<svg width="44" height="45" viewBox="0 0 44 45" fill="none" xmlns="http://www.w3.org/2000/svg">
<rect opacity="0.01" y="0.115723" width="44" height="44" fill="#1A1A1A"/>
<path d="M20.3678 42.2824C20.1553 42.2822 19.9443 42.2449 19.7445 42.1724C18.9512 41.8819 18.4591 41.087 18.5528 40.2474L19.9645 27.2491H9.16618C8.48746 27.2501 7.86371 26.8761 7.54491 26.2769C7.22611 25.6777 7.26443 24.9514 7.64451 24.3891L22.1095 2.75574C22.5802 2.05919 23.4644 1.77203 24.2545 2.05907C25.0126 2.34051 25.4967 3.08537 25.4462 3.89241L24.0345 16.9824H34.8328C35.5116 16.9814 36.1353 17.3554 36.4541 17.9546C36.7729 18.5538 36.7346 19.2801 36.3545 19.8424L21.8895 41.4757C21.548 41.981 20.9777 42.2833 20.3678 42.2824Z" fill="#1A1A1A"/>
</svg>
