<svg width="44" height="45" viewBox="0 0 44 45" fill="none" xmlns="http://www.w3.org/2000/svg">
<rect opacity="0.01" y="0.115723" width="44" height="44" fill="#1A1A1A"/>
<path d="M16.5 5.61572H9.16667C7.14162 5.61572 5.5 7.25735 5.5 9.28239V16.6157C5.5 18.6408 7.14162 20.2824 9.16667 20.2824H16.5C18.525 20.2824 20.1667 18.6408 20.1667 16.6157V9.28239C20.1667 7.25735 18.525 5.61572 16.5 5.61572Z" fill="#1A1A1A"/>
<path d="M34.833 5.61572H27.4997C25.4746 5.61572 23.833 7.25735 23.833 9.28239V16.6157C23.833 18.6408 25.4746 20.2824 27.4997 20.2824H34.833C36.8581 20.2824 38.4997 18.6408 38.4997 16.6157V9.28239C38.4997 7.25735 36.8581 5.61572 34.833 5.61572Z" fill="#1A1A1A"/>
<path d="M16.5 23.9492H9.16667C7.14162 23.9492 5.5 25.5908 5.5 27.6159V34.9492C5.5 36.9743 7.14162 38.6159 9.16667 38.6159H16.5C18.525 38.6159 20.1667 36.9743 20.1667 34.9492V27.6159C20.1667 25.5908 18.525 23.9492 16.5 23.9492Z" fill="#1A1A1A"/>
<path d="M34.833 23.9492H27.4997C25.4746 23.9492 23.833 25.5908 23.833 27.6159V34.9492C23.833 36.9743 25.4746 38.6159 27.4997 38.6159H34.833C36.8581 38.6159 38.4997 36.9743 38.4997 34.9492V27.6159C38.4997 25.5908 36.8581 23.9492 34.833 23.9492Z" fill="#1A1A1A"/>
</svg>
