<svg width="44" height="45" viewBox="0 0 44 45" fill="none" xmlns="http://www.w3.org/2000/svg">
<rect opacity="0.01" x="44" y="0.115723" width="44" height="44" transform="rotate(90 44 0.115723)" fill="#1A1A1A"/>
<path d="M32.1934 38.6158C31.9002 38.617 31.611 38.5478 31.3501 38.4141L22.0001 33.5191L12.6501 38.4141C12.0307 38.7398 11.2799 38.6845 10.7149 38.2715C10.1499 37.8585 9.86936 37.1598 9.99177 36.4708L11.8251 26.1491L4.27177 18.8158C3.79154 18.3365 3.61522 17.6313 3.81343 16.9824C4.03021 16.3177 4.60621 15.8342 5.29843 15.7358L15.7484 14.2141L20.3501 4.8091C20.6564 4.17662 21.2973 3.7749 22.0001 3.7749C22.7029 3.7749 23.3438 4.17662 23.6501 4.8091L28.3068 14.1958L38.7568 15.7174C39.449 15.8158 40.025 16.2994 40.2418 16.9641C40.44 17.6129 40.2637 18.3182 39.7834 18.7974L32.2301 26.1308L34.0634 36.4524C34.1971 37.1542 33.9109 37.8697 33.3301 38.2858C32.9981 38.5184 32.5984 38.6345 32.1934 38.6158Z" fill="#1A1A1A"/>
</svg>
