<svg width="736" height="793" viewBox="0 0 736 793" fill="none" xmlns="http://www.w3.org/2000/svg">
<path d="M523.915 196.033H409.221V284.744H523.915V196.033Z" fill="#EBEBEB"/>
<path d="M418.113 276.663L449.844 228.054L475.788 259.129L491.567 242.617L515.023 276.663H418.113Z" fill="#F5F5F5"/>
<path d="M480.61 231.005C480.61 232.393 480.199 233.751 479.427 234.905C478.656 236.06 477.559 236.96 476.276 237.491C474.993 238.023 473.581 238.162 472.219 237.891C470.857 237.62 469.606 236.951 468.624 235.969C467.642 234.988 466.974 233.736 466.703 232.374C466.432 231.012 466.571 229.601 467.102 228.318C467.634 227.035 468.534 225.938 469.688 225.167C470.843 224.395 472.2 223.983 473.589 223.983C475.451 223.983 477.237 224.723 478.554 226.04C479.871 227.357 480.61 229.143 480.61 231.005Z" fill="#F5F5F5"/>
<path d="M335.652 320.623L269.741 346.509C264.528 314.495 254.301 283.502 239.437 254.673L299.716 228.748C322.767 257.045 331.254 288.024 335.652 320.623Z" fill="#EBEBEB"/>
<path d="M189.112 114.247L37.6333 117.372L41.7033 314.894L193.259 315.588L189.112 114.247Z" fill="#EBEBEB"/>
<path d="M179.293 121.48L46.7378 124.22L50.4413 303.359L183.074 305.095L179.293 121.48Z" fill="#FAFAFA"/>
<path d="M156.764 154.503L68.7275 152.979L71.3123 278.186L159.271 276.373L156.764 154.503Z" fill="#EBEBEB"/>
<path d="M71.3123 278.186L157.94 212.043L68.7275 152.979L71.3123 278.186Z" fill="#F5F5F5"/>
<path d="M594.263 0.749023L485.298 3.00587L488.23 145.09L597.233 145.573L594.263 0.749023Z" fill="#EBEBEB"/>
<path d="M587.184 5.95703L491.856 7.92453L494.499 136.796L589.923 138.05L587.184 5.95703Z" fill="#FAFAFA"/>
<path d="M570.981 29.7216L507.654 28.6221L509.506 118.683L572.794 117.391L570.981 29.7216Z" fill="#EBEBEB"/>
<path d="M509.506 118.683L571.829 71.1163L507.654 28.6221L509.506 118.683Z" fill="#F5F5F5"/>
<path d="M254.599 355.883L145.634 358.12L148.566 500.205L257.569 500.687L254.599 355.883Z" fill="#EBEBEB"/>
<path d="M247.519 361.072L152.173 363.04L154.835 491.911L250.239 493.165L247.519 361.072Z" fill="#FAFAFA"/>
<path d="M231.316 384.836L167.99 383.736L169.842 473.798L233.11 472.505L231.316 384.836Z" fill="#EBEBEB"/>
<path d="M169.842 473.798L232.165 426.231L167.99 383.736L169.842 473.798Z" fill="#F5F5F5"/>
<path d="M667.813 302.452L602.596 303.802L604.351 388.849L669.606 389.138L667.813 302.452Z" fill="#EBEBEB"/>
<path d="M663.588 305.577L606.511 306.754L608.112 383.891L665.208 384.624L663.588 305.577Z" fill="#FAFAFA"/>
<path d="M653.886 319.793L615.982 319.137L617.082 373.05L654.966 372.259L653.886 319.793Z" fill="#EBEBEB"/>
<path d="M617.082 373.05L654.387 344.56L615.982 319.137L617.082 373.05Z" fill="#F5F5F5"/>
<path d="M300.526 48.1422C299.836 47.6399 299.19 47.0784 298.597 46.4641C297.189 45.2103 295.415 43.6285 293.312 41.7189C291.21 39.8093 288.393 37.3595 285.346 34.8327C283.822 33.5596 282.202 32.2672 280.485 30.9748C279.617 30.3383 278.729 29.721 277.804 29.0459C276.946 28.4449 275.974 28.0248 274.949 27.8114C273.941 28.0091 272.995 28.4456 272.19 29.0845C271.284 29.6824 270.416 30.3383 269.586 31.0134C267.908 32.3636 266.365 33.7332 264.899 35.0641C261.967 37.726 259.402 40.2143 257.183 42.2976L252.11 47.3321C251.523 47.9811 250.877 48.5751 250.181 49.1067C250.652 48.3623 251.209 47.676 251.84 47.062C252.94 45.8082 254.599 44.0336 256.682 41.8539C258.765 39.6743 261.292 37.1474 264.185 34.4469C265.651 33.0773 267.195 31.6885 268.892 30.2997C269.741 29.6246 270.609 28.9494 271.554 28.3708C272.53 27.6115 273.686 27.1196 274.91 26.9434C276.111 27.156 277.25 27.6301 278.247 28.3322C279.212 28.9302 280.176 29.586 280.986 30.2611C282.742 31.5535 284.343 32.8844 285.866 34.119C288.895 36.7037 291.518 39.1342 293.698 41.1981C295.878 43.262 297.556 45.056 298.79 46.1747C299.431 46.7732 300.012 47.432 300.526 48.1422Z" fill="#E0E0E0"/>
<path d="M223.292 48.3547L224.855 125.338L325.255 123.293L325.621 46.2715L223.292 48.3547Z" fill="#EBEBEB"/>
<path d="M226.957 53.3511L228.327 120.709L319.391 118.857L320.298 51.4414L226.957 53.3511Z" fill="#FAFAFA"/>
<path d="M243.739 64.8085L242.948 109.54L306.602 108.248L305.696 63.5547L243.739 64.8085Z" fill="#EBEBEB"/>
<path d="M296.341 76.2662C296.341 76.5555 286.503 76.7677 274.351 76.7677C262.199 76.7677 252.38 76.5555 252.38 76.2662C252.38 75.9768 262.218 75.7646 274.351 75.7646C286.484 75.7646 296.341 76.054 296.341 76.2662Z" fill="#E0E0E0"/>
<path d="M296.341 83.2877C296.341 83.5577 286.503 83.7892 274.351 83.7892C262.199 83.7892 252.38 83.5577 252.38 83.2877C252.38 83.0176 262.218 82.7861 274.351 82.7861C286.484 82.7861 296.341 82.9983 296.341 83.2877Z" fill="#E0E0E0"/>
<path d="M296.341 90.232C296.341 90.502 286.503 90.7335 274.351 90.7335C262.199 90.7335 252.38 90.502 252.38 90.232C252.38 89.9619 262.218 89.7305 274.351 89.7305C286.484 89.7305 296.341 89.9619 296.341 90.232Z" fill="#E0E0E0"/>
<path d="M268.005 97.1754C265.433 97.6814 262.807 97.85 260.193 97.6769C257.578 97.85 254.952 97.6814 252.38 97.1754C257.567 96.5066 262.818 96.5066 268.005 97.1754Z" fill="#E0E0E0"/>
<path d="M260.887 73.1607C260.887 73.1607 260.887 72.5242 260.462 71.444C260.027 69.8989 259.09 68.542 257.801 67.5861C256.87 66.9154 255.788 66.4837 254.651 66.3289C253.515 66.1742 252.357 66.3012 251.281 66.6988C249.979 67.1866 248.857 68.0602 248.065 69.2029C247.272 70.3456 246.848 71.7028 246.848 73.0932C246.848 74.4836 247.272 75.8408 248.065 76.9835C248.857 78.1262 249.979 78.9998 251.281 79.4876C252.359 79.8824 253.517 80.0063 254.654 79.8482C255.791 79.6901 256.871 79.2549 257.801 78.581C259.078 77.655 260.014 76.3326 260.462 74.8196C260.79 73.7394 260.79 73.0836 260.887 73.0836C261.05 73.7162 261.05 74.3799 260.887 75.0125C260.543 76.6934 259.614 78.1974 258.264 79.2561C257.249 80.043 256.055 80.5645 254.789 80.7733C253.522 80.9821 252.224 80.8717 251.011 80.452C249.515 79.9153 248.221 78.9296 247.306 77.6297C246.392 76.3298 245.901 74.7791 245.901 73.1897C245.901 71.6002 246.392 70.0496 247.306 68.7496C248.221 67.4497 249.515 66.464 251.011 65.9273C252.222 65.4951 253.523 65.3781 254.792 65.5873C256.061 65.7965 257.255 66.3251 258.264 67.1232C259.617 68.1784 260.548 69.684 260.887 71.3668C261.032 71.9559 261.032 72.5716 260.887 73.1607Z" fill="#E0E0E0"/>
<path d="M299.407 95.999C299.407 95.999 299.253 96.5584 298.713 97.465C297.986 98.8092 296.803 99.8491 295.376 100.397C294.843 100.574 294.276 100.625 293.72 100.545C293.164 100.464 292.635 100.255 292.174 99.934C291.609 99.5297 291.222 98.9233 291.092 98.2407C290.963 97.5582 291.102 96.852 291.48 96.2691C291.712 95.9443 292.024 95.6852 292.386 95.5168C292.61 95.4257 292.854 95.3939 293.094 95.4243C293.334 95.4547 293.562 95.5463 293.756 95.6904C294.048 95.9641 294.273 96.3013 294.413 96.676C294.554 97.0507 294.606 97.4527 294.566 97.8508C294.524 99.3413 293.957 100.769 292.965 101.882C292.437 102.474 291.776 102.93 291.036 103.213C290.666 103.367 290.269 103.445 289.869 103.445C289.468 103.445 289.072 103.367 288.702 103.213C288.04 102.912 287.478 102.429 287.078 101.822C286.679 101.214 286.46 100.507 286.445 99.7797C286.381 98.5274 286.676 97.2829 287.294 96.1919C287.39 96.0203 287.526 95.8744 287.69 95.7669C287.855 95.6594 288.043 95.5934 288.239 95.5747C288.434 95.5774 288.625 95.6302 288.794 95.7282C288.963 95.8261 289.104 95.9659 289.203 96.1341C289.485 96.5971 289.656 97.1183 289.705 97.6579C289.787 98.4244 289.69 99.1993 289.422 99.9221C289.154 100.645 288.723 101.296 288.162 101.824C287.352 102.557 286.734 102.654 286.734 102.596C286.734 102.538 287.236 102.307 287.872 101.554C288.332 101.034 288.671 100.418 288.864 99.7508C289.058 99.0838 289.101 98.3822 288.991 97.6965C288.932 97.2793 288.788 96.8787 288.567 96.5198C288.316 96.2498 288.239 96.2498 287.969 96.5198C287.513 97.4682 287.307 98.5173 287.371 99.5676C287.39 100.115 287.558 100.647 287.857 101.106C288.157 101.565 288.575 101.933 289.068 102.172C289.633 102.321 290.229 102.294 290.778 102.094C291.326 101.894 291.8 101.53 292.135 101.053C292.978 100.125 293.463 98.9291 293.505 97.6772C293.536 97.4303 293.517 97.1796 293.447 96.9406C293.377 96.7017 293.259 96.4797 293.1 96.2884C292.888 96.0955 292.444 96.2884 292.155 96.6549C291.927 97.0498 291.847 97.5125 291.928 97.9609C292.01 98.4093 292.247 98.8145 292.598 99.1046C292.953 99.3682 293.364 99.547 293.798 99.6272C294.233 99.7075 294.68 99.6871 295.106 99.5676C296.417 99.1019 297.546 98.2303 298.327 97.0792C299.022 96.4234 299.35 95.9605 299.407 95.999Z" fill="#E0E0E0"/>
<path d="M351.893 208.051L282.317 238.971L280.658 185.945L350.157 153.096L351.893 208.051Z" fill="#EBEBEB"/>
<path d="M697.479 157.879C696.372 157.123 695.339 156.264 694.393 155.314L686.292 148.022C682.839 144.975 678.75 141.329 674.082 137.452C671.728 135.523 669.259 133.594 666.617 131.665C665.286 130.701 663.916 129.736 662.489 128.849C661.177 127.925 659.695 127.27 658.129 126.92C656.58 127.213 655.125 127.874 653.886 128.849C652.497 129.775 651.166 130.778 649.874 131.819C647.327 133.883 644.936 136.005 642.679 138.03C638.184 142.12 634.249 145.939 630.97 149.141L623.254 156.857C622.365 157.855 621.377 158.76 620.303 159.557C621.028 158.432 621.876 157.39 622.83 156.452C624.547 154.523 627.074 151.784 630.256 148.466C633.439 145.148 637.336 141.232 641.83 137.066C644.068 134.983 646.459 132.842 649.044 130.72C650.337 129.678 651.706 128.637 653.133 127.653C654.624 126.471 656.401 125.706 658.284 125.435C660.133 125.754 661.887 126.486 663.415 127.576C664.881 128.502 666.269 129.505 667.62 130.469C670.301 132.398 672.77 134.501 675.104 136.487C679.753 140.345 683.784 144.203 687.14 147.347C690.497 150.491 693.139 153.134 694.856 155.063C695.824 155.91 696.703 156.854 697.479 157.879Z" fill="#E0E0E0"/>
<path d="M578.928 158.207L581.339 276.392L735.441 273.267L736 155.024L578.928 158.207Z" fill="#EBEBEB"/>
<path d="M584.579 165.884L586.663 269.275L726.432 266.439L727.821 162.972L584.579 165.884Z" fill="#FAFAFA"/>
<path d="M610.331 183.476L609.115 252.145L706.815 250.159L705.407 181.547L610.331 183.476Z" fill="#EBEBEB"/>
<path d="M691.056 201.164C691.056 201.588 675.953 201.936 657.319 201.936C638.686 201.936 623.679 201.646 623.679 201.164C623.679 200.682 638.782 200.393 657.416 200.393C676.049 200.393 691.056 200.74 691.056 201.164Z" fill="#E0E0E0"/>
<path d="M691.056 211.831C691.056 212.255 675.953 212.603 657.319 212.603C638.686 212.603 623.582 212.255 623.582 211.831C623.582 211.407 638.686 211.06 657.319 211.06C675.953 211.06 691.056 211.407 691.056 211.831Z" fill="#E0E0E0"/>
<path d="M691.056 222.498C691.056 222.922 675.953 223.27 657.319 223.27C638.686 223.27 623.679 222.865 623.679 222.498C623.679 222.132 638.782 221.727 657.416 221.727C676.049 221.727 691.056 222.074 691.056 222.498Z" fill="#E0E0E0"/>
<path d="M647.578 233.165C647.578 233.589 642.216 233.937 635.58 233.937C628.945 233.937 623.582 233.589 623.582 233.165C623.582 232.741 628.945 232.394 635.58 232.394C642.216 232.394 647.578 232.741 647.578 233.165Z" fill="#E0E0E0"/>
<path d="M636.641 196.303C636.487 196.303 636.487 195.319 636.005 193.66C635.299 191.336 633.857 189.305 631.896 187.873C630.334 186.719 628.482 186.021 626.546 185.857C624.611 185.692 622.668 186.069 620.934 186.944C619.199 187.818 617.742 189.157 616.724 190.812C615.705 192.466 615.166 194.37 615.166 196.312C615.166 198.255 615.705 200.159 616.724 201.813C617.742 203.467 619.199 204.806 620.934 205.681C622.668 206.556 624.611 206.932 626.546 206.768C628.482 206.604 630.334 205.906 631.896 204.751C633.854 203.317 635.296 201.287 636.005 198.965C636.487 197.306 636.487 196.303 636.641 196.303C636.87 197.221 636.87 198.181 636.641 199.1C636.113 201.682 634.684 203.993 632.61 205.62C631.065 206.849 629.231 207.663 627.283 207.983C625.335 208.304 623.337 208.121 621.48 207.452C619.174 206.637 617.177 205.128 615.764 203.131C614.352 201.134 613.594 198.749 613.594 196.303C613.594 193.857 614.352 191.471 615.764 189.475C617.177 187.478 619.174 185.968 621.48 185.154C623.345 184.498 625.348 184.33 627.296 184.668C629.244 185.006 631.074 185.837 632.61 187.083C634.679 188.705 636.107 191.008 636.641 193.583C636.857 194.477 636.857 195.409 636.641 196.303Z" fill="#E0E0E0"/>
<path d="M695.782 231.352C695.571 232.157 695.211 232.916 694.721 233.589C693.609 235.662 691.788 237.264 689.59 238.103C688.767 238.37 687.894 238.444 687.038 238.32C686.182 238.197 685.366 237.878 684.652 237.389C683.791 236.762 683.204 235.828 683.01 234.78C682.816 233.733 683.031 232.651 683.61 231.757C683.957 231.254 684.438 230.86 684.999 230.619C685.339 230.478 685.709 230.427 686.074 230.471C686.439 230.515 686.786 230.652 687.082 230.869C687.535 231.287 687.885 231.804 688.102 232.38C688.32 232.956 688.4 233.575 688.336 234.187C688.281 236.477 687.412 238.671 685.887 240.379C685.109 241.275 684.131 241.976 683.032 242.424C682.467 242.662 681.86 242.785 681.248 242.785C680.635 242.785 680.028 242.662 679.463 242.424C678.454 241.953 677.595 241.212 676.982 240.282C676.369 239.352 676.026 238.271 675.991 237.158C675.904 235.235 676.351 233.325 677.284 231.641C677.439 231.383 677.652 231.165 677.907 231.004C678.161 230.843 678.45 230.744 678.75 230.715C679.049 230.72 679.342 230.8 679.601 230.949C679.861 231.097 680.079 231.309 680.235 231.564C680.655 232.277 680.912 233.074 680.987 233.898C681.112 235.074 680.965 236.264 680.557 237.374C680.149 238.485 679.491 239.486 678.634 240.302C677.399 241.421 676.435 241.556 676.435 241.498C676.435 241.44 677.206 241.035 678.19 239.878C678.873 239.091 679.379 238.168 679.675 237.17C679.972 236.172 680.05 235.122 679.907 234.091C679.812 233.451 679.596 232.836 679.27 232.278C678.885 231.853 678.75 231.873 678.344 232.393C677.649 233.854 677.325 235.464 677.399 237.081C677.434 237.921 677.697 238.737 678.159 239.44C678.621 240.143 679.265 240.708 680.023 241.073C680.887 241.305 681.801 241.267 682.642 240.963C683.484 240.66 684.212 240.106 684.729 239.376C686.019 237.94 686.763 236.097 686.832 234.168C686.88 233.792 686.848 233.411 686.739 233.048C686.629 232.686 686.444 232.351 686.195 232.065C685.887 231.737 685.192 232.065 684.768 232.605C684.356 233.208 684.194 233.947 684.316 234.667C684.439 235.387 684.836 236.031 685.424 236.463C685.973 236.862 686.605 237.131 687.273 237.251C687.941 237.371 688.628 237.339 689.281 237.158C691.299 236.436 693.031 235.083 694.22 233.3C695.165 232.008 695.686 231.294 695.782 231.352Z" fill="#E0E0E0"/>
<path d="M664.186 792.495C664.186 792.784 515.485 792.996 332.103 792.996C148.72 792.996 0 792.784 0 792.495C0 792.205 148.662 791.993 332.103 791.993C515.543 791.993 664.186 792.225 664.186 792.495Z" fill="#263238"/>
<path d="M512.11 688.854C479.53 667.539 471.255 626.723 471.603 589.842C471.603 583.689 470.831 577.208 473.647 571.749C476.463 566.29 483.292 562.432 488.963 564.882C493.631 566.927 495.791 572.192 498.492 576.455C502.106 582.272 507.287 586.952 513.441 589.958C517.453 591.887 522.391 593.025 526.268 590.787C531.573 587.74 532.055 580.39 531.824 574.276L530.782 540.076C530.589 533.961 530.415 527.712 532.19 521.867C533.965 516.022 538.112 510.525 543.976 508.75C549.84 506.976 557.189 510.158 558.597 516.119C558.887 518.641 559.003 521.18 558.944 523.719C559.176 526.265 560.449 529.042 562.918 529.698C565.387 530.354 567.836 528.56 569.65 526.728C575.899 520.401 580.047 512.338 583.904 504.333C587.762 496.328 591.504 488.13 597.156 481.186C602.808 474.242 610.659 468.783 619.551 468.069C628.443 467.356 638.011 472.544 640.461 481.089C642.91 489.635 638.03 498.45 632.745 505.645C624.726 516.208 615.228 525.563 604.544 533.421C602.454 534.612 600.803 536.445 599.837 538.648C598.603 542.757 602.615 546.711 606.724 547.965C611.392 549.354 616.368 548.775 621.229 549.219C626.09 549.663 631.375 551.63 633.304 556.105C636.005 562.297 630.854 568.971 625.743 573.466C615.491 582.338 603.793 589.384 591.157 594.298C586.644 596.053 581.879 597.596 578.291 600.856C574.703 604.116 572.505 609.652 574.935 613.915C577.365 618.178 582.998 619.413 587.743 618.429C592.488 617.445 596.712 614.783 601.245 612.97C609.675 609.594 620.689 609.922 626.321 617.04C628.046 619.491 629.171 622.312 629.606 625.277C630.042 628.242 629.776 631.268 628.829 634.111C626.898 639.814 623.827 645.064 619.802 649.542C606.641 665.906 589.384 678.497 569.785 686.038C550.187 693.271 531.939 695.547 512.129 688.931" fill="#0B56A4" fill-opacity="0.75"/>
<path d="M631.394 472.969L630.797 473.567L628.983 475.226C627.402 476.672 625.125 478.813 622.116 481.649C613.761 489.643 606.024 498.257 598.969 507.419C594.494 513.206 589.845 519.726 584.985 526.824C580.124 533.923 575.031 541.581 569.958 549.798C564.591 558.365 559.697 567.219 555.298 576.32C553.022 581.046 550.997 585.965 548.952 591.038L542.664 606.373C534.671 625.766 527.78 645.594 522.025 665.765C517.405 682.258 514.369 699.155 512.959 716.225C512.044 727.74 512.141 739.313 513.248 750.811C513.692 754.862 514.077 758.025 514.425 760.147C514.579 761.188 514.695 761.979 514.791 762.577C514.888 763.175 514.888 763.407 514.888 763.407C514.027 759.257 513.383 755.066 512.959 750.849C511.696 739.319 511.496 727.696 512.361 716.129C513.682 699.002 516.667 682.044 521.272 665.495C526.978 645.269 533.856 625.393 541.873 605.968L548.084 590.633C550.129 585.599 552.154 580.622 554.45 575.877C558.872 566.75 563.799 557.876 569.206 549.296C574.318 541.06 579.468 533.44 584.348 526.342C589.228 519.244 593.993 512.724 598.429 506.956C605.511 497.812 613.309 489.247 621.75 481.34C624.74 478.524 627.112 476.422 628.752 475.013L630.681 473.432L631.394 472.969Z" fill="#263238"/>
<path d="M554.681 575.857C554.409 575.006 554.203 574.136 554.064 573.253C553.697 571.556 553.273 569.106 552.772 566.078C551.749 560.002 550.65 551.572 549.435 542.275C548.219 532.978 546.966 524.587 545.847 518.549C545.287 515.521 544.805 513.09 544.439 511.412C544.201 510.549 544.052 509.663 543.995 508.77C544.327 509.595 544.592 510.447 544.786 511.316C545.249 512.975 545.827 515.405 546.483 518.414C547.776 524.432 549.145 532.842 550.341 542.159C551.537 551.476 552.579 559.712 553.389 565.981C553.794 568.894 554.141 571.305 554.392 573.196C554.576 574.071 554.673 574.963 554.681 575.857Z" fill="#263238"/>
<path d="M634.018 559.23C633.75 559.32 633.471 559.372 633.188 559.385L630.835 559.635C628.79 559.847 625.839 560.156 622.194 560.658C614.922 561.584 604.833 563.242 593.935 565.538C583.036 567.833 573.141 570.418 566.1 572.463C562.571 573.466 559.735 574.392 557.768 574.97L555.491 575.645C555.23 575.743 554.958 575.807 554.681 575.838C554.913 575.68 555.166 575.557 555.434 575.472L557.652 574.623C559.581 573.909 562.397 572.926 565.908 571.845C572.929 569.627 582.766 566.985 593.742 564.651C604.718 562.317 614.806 560.793 622.116 560.002C625.781 559.597 628.752 559.385 630.816 559.288L633.188 559.192C633.465 559.163 633.745 559.176 634.018 559.23Z" fill="#263238"/>
<path d="M522.121 664.048C521.896 663.757 521.709 663.439 521.562 663.103L520.154 660.267C518.938 657.817 517.26 654.23 515.235 649.774C511.184 640.843 505.976 628.343 500.401 614.474C494.827 600.606 489.715 588.087 485.819 579.117C483.89 574.719 482.308 571.112 481.17 568.489C480.649 567.312 480.244 566.348 479.916 565.596C479.764 565.264 479.635 564.923 479.53 564.573C479.755 564.864 479.943 565.182 480.09 565.518L481.498 568.335C482.713 570.804 484.391 574.391 486.417 578.847C490.467 587.778 495.676 600.278 501.25 614.147C506.825 628.016 511.936 640.515 515.833 649.504C517.762 653.902 519.324 657.509 520.481 660.132C521.002 661.309 521.407 662.273 521.735 663.025C521.891 663.355 522.021 663.697 522.121 664.048Z" fill="#263238"/>
<path d="M627.189 627.938C626.847 628.106 626.492 628.248 626.128 628.363L623.081 629.443L611.816 633.301C602.306 636.58 589.247 641.267 574.8 646.475C560.352 651.683 547.255 656.274 537.687 659.399C532.904 660.962 529.027 662.196 526.326 662.987L523.22 663.894C522.865 664.02 522.496 664.104 522.121 664.144C522.454 663.969 522.802 663.827 523.163 663.72L526.23 662.64L537.475 658.782C546.985 655.503 560.063 650.816 574.491 645.607C588.92 640.399 602.036 635.808 611.604 632.684C616.387 631.121 620.265 629.906 622.965 629.096L626.071 628.189C626.432 628.059 626.807 627.975 627.189 627.938Z" fill="#263238"/>
<path d="M339.413 328.531L335.285 792.495H519.073V334.858L339.413 328.531Z" fill="#455A64"/>
<path d="M345.181 405.63V470.673H432.233V408.716L345.181 405.63Z" fill="#263238"/>
<path d="M438.425 332.022L436.785 792.495H519.073V334.858L438.425 332.022Z" fill="#263238"/>
<path d="M345.181 334.26V399.303H432.233V337.327L345.181 334.26Z" fill="#263238"/>
<path d="M375.195 352.141V361.747H401.833V351.273L375.195 352.141Z" fill="#263238"/>
<path d="M402.701 369.829H375.195V373.764H402.701V369.829Z" fill="#263238"/>
<g opacity="0.4">
<path d="M375.195 352.141V361.747H401.833V351.273L375.195 352.141Z" fill="black"/>
<path d="M402.701 369.83H375.195V373.765H402.701V369.83Z" fill="black"/>
</g>
<path d="M345.181 562.162V627.186H432.233V565.229L345.181 562.162Z" fill="#263238"/>
<path d="M375.195 580.044V589.65H401.833V579.176L375.195 580.044Z" fill="#263238"/>
<path d="M402.701 597.731H375.195V601.666H402.701V597.731Z" fill="#263238"/>
<g opacity="0.4">
<path d="M375.195 580.044V589.65H401.833V579.176L375.195 580.044Z" fill="black"/>
<path d="M402.701 597.732H375.195V601.667H402.701V597.732Z" fill="black"/>
</g>
<path d="M345.181 635.462V700.486H432.233V638.529L345.181 635.462Z" fill="#263238"/>
<path d="M375.195 653.343V662.949H401.833V652.475L375.195 653.343Z" fill="#263238"/>
<path d="M402.701 671.031H375.195V674.966H402.701V671.031Z" fill="#263238"/>
<g opacity="0.4">
<path d="M375.195 653.343V662.949H401.833V652.475L375.195 653.343Z" fill="black"/>
<path d="M402.701 671.031H375.195V674.966H402.701V671.031Z" fill="black"/>
</g>
<path d="M344.255 708.761V773.785H431.307V711.828L344.255 708.761Z" fill="#263238"/>
<path d="M374.25 726.641V736.247H400.888V725.773L374.25 726.641Z" fill="#263238"/>
<path d="M401.756 744.33H374.25V748.265H401.756V744.33Z" fill="#263238"/>
<g opacity="0.4">
<path d="M374.25 726.641V736.247H400.888V725.773L374.25 726.641Z" fill="black"/>
<path d="M401.756 744.33H374.25V748.265H401.756V744.33Z" fill="black"/>
</g>
<path d="M343.522 482.305H256.47V547.348H343.522V482.305Z" fill="#455A64"/>
<path d="M287.062 511.605V520.632H312.1V510.795L287.062 511.605Z" fill="#263238"/>
<path d="M312.91 528.232H287.062V531.917H312.91V528.232Z" fill="#263238"/>
<g opacity="0.4">
<path d="M287.062 511.605V520.632H312.1V510.795L287.062 511.605Z" fill="black"/>
<path d="M312.91 528.232H287.062V531.917H312.91V528.232Z" fill="black"/>
</g>
<path d="M343.522 482.305L429.34 481.669L427.777 547.329H343.522V482.305Z" fill="#263238"/>
<path opacity="0.4" d="M343.522 482.305L429.34 481.669L427.777 547.329H343.522V482.305Z" fill="black"/>
<path d="M426.292 423.241H340.494V481.649H426.292V423.241Z" fill="#FAFAFA"/>
<path d="M319.68 432.558L324.001 482.189L426.234 481.668L420.177 433.117C419.966 431.606 419.167 430.239 417.953 429.314C416.739 428.389 415.209 427.981 413.696 428.179L372.436 431.767L365.415 426.559C364.774 426.11 363.996 425.899 363.216 425.961L322.477 429.548C321.712 429.588 320.991 429.925 320.469 430.486C319.947 431.048 319.664 431.791 319.68 432.558Z" fill="#263238"/>
<path d="M319.68 432.558L324.001 482.189L426.234 481.668L420.177 433.117C419.966 431.606 419.167 430.239 417.953 429.314C416.739 428.389 415.209 427.981 413.696 428.179L372.436 431.767L365.415 426.559C364.774 426.11 363.996 425.899 363.216 425.961L322.477 429.548C321.712 429.588 320.991 429.925 320.469 430.486C319.947 431.048 319.664 431.791 319.68 432.558Z" fill="#0B56A4" fill-opacity="0.75"/>
<path d="M290.342 469.265L288.181 456.342L382.756 450.092L391.07 482.17L292.213 481.668L290.342 469.265Z" fill="#FAFAFA"/>
<path d="M278.266 462.977L279.945 482.266H381.097L378.705 463.498C378.494 461.99 377.698 460.627 376.488 459.702C375.279 458.778 373.754 458.368 372.244 458.56L330.984 462.148L323.943 456.94C323.311 456.488 322.538 456.276 321.764 456.342L281.025 459.949C280.259 459.989 279.54 460.329 279.023 460.896C278.507 461.463 278.235 462.211 278.266 462.977Z" fill="#0B56A4" fill-opacity="0.75"/>
<path opacity="0.7" d="M278.266 462.977L279.945 482.266H381.097L378.705 463.498C378.494 461.99 377.698 460.627 376.488 459.702C375.279 458.778 373.754 458.368 372.244 458.56L330.984 462.148L323.943 456.94C323.311 456.488 322.538 456.276 321.764 456.342L281.025 459.949C280.259 459.989 279.54 460.329 279.023 460.896C278.507 461.463 278.235 462.211 278.266 462.977Z" fill="#FAFAFA"/>
<path d="M385.013 458.753H398.516C399.026 458.754 399.53 458.87 399.99 459.093C400.449 459.316 400.853 459.64 401.17 460.041C401.487 460.441 401.709 460.908 401.821 461.406C401.932 461.905 401.93 462.422 401.814 462.919L397.455 481.649H391.147L385.013 458.753Z" fill="#263238"/>
<path d="M528.756 177.921L537.938 181.104L530.685 187.759L523.433 194.413L521.504 184.576L519.575 174.738L528.756 177.921Z" fill="#FAFAFA"/>
<path d="M448.262 179.136L448.86 178.345C449.285 177.844 449.883 177.092 450.654 176.069C452.897 173.094 454.835 169.902 456.441 166.54C457.595 164.117 458.563 161.608 459.334 159.037C460.164 156.221 460.82 153.076 461.649 149.739C463.27 143.027 465.121 135.408 467.147 126.978C469.172 118.549 471.448 109.309 473.84 99.4138C474.391 96.8584 475.099 94.3395 475.962 91.8717C476.909 89.3396 478.098 86.9044 479.511 84.5997C480.99 82.2305 482.71 80.0199 484.642 78.0028C485.621 76.9734 486.658 76.0009 487.748 75.0901H487.844C488.249 76.6718 487.844 75.5145 487.998 75.8617H487.748L487.227 75.7267L486.185 75.4759L484.102 74.9744L449.15 66.4485L430.651 61.9156L421.2 59.6009L416.416 58.4435H416.127H415.972C415.876 58.4435 416.474 58.4435 416.184 58.4435L415.625 58.6557L414.487 59.0993C413.773 59.4658 413.002 59.7552 412.307 60.1602C406.571 63.1808 401.954 67.9604 399.133 73.7977C397.795 76.6708 396.835 79.7052 396.278 82.8251C395.564 85.9114 394.851 88.9783 394.156 92.026C391.34 104.178 388.639 115.906 386.055 127.094L384.126 135.369C382.129 143.229 378.61 150.622 373.767 157.127C372.996 158.15 372.205 159.056 371.395 160.098L371.086 160.464L370.932 160.657C370.527 159.326 370.932 160.291 370.778 160.001H370.951L371.858 160.233L373.652 160.676L380.673 162.412L393.905 165.692L433.757 175.606L444.598 178.365L447.394 179.098L448.359 179.387L447.375 179.194L444.54 178.558L433.68 175.992L393.732 166.347L380.499 163.145L373.459 161.429L371.665 161.004L370.758 160.773H370.585C370.469 160.484 370.739 161.429 370.315 160.098L370.469 159.924L370.758 159.558C371.569 158.612 372.34 157.629 373.092 156.606C376.205 152.392 378.766 147.796 380.712 142.93C382.641 137.709 384.125 132.334 385.148 126.862C387.714 115.675 390.414 103.947 393.192 91.7753C393.905 88.7276 394.6 85.6606 395.314 82.5743C395.881 79.3877 396.86 76.2884 398.226 73.3541C401.048 67.2059 405.785 62.137 411.729 58.9064C412.462 58.4821 413.253 58.1735 414.005 57.8262L415.181 57.3633L415.76 57.1318H416.107H416.262H416.57L421.335 58.3085L430.786 60.8354L449.285 65.3683L484.218 73.952L486.301 74.4729L487.342 74.7236L487.863 74.8586H488.114C488.211 75.2251 487.998 74.0678 488.346 75.6688H488.249C487.188 76.5754 486.166 77.5977 485.201 78.5236C481.467 82.3947 478.565 86.9901 476.676 92.026C475.825 94.4567 475.123 96.9367 474.573 99.4524L467.764 126.997L462.131 149.72C461.263 153.057 460.569 156.182 459.701 159.018C458.905 161.604 457.912 164.125 456.73 166.56C455.097 169.922 453.105 173.097 450.789 176.031C450.009 177.114 449.165 178.151 448.262 179.136Z" fill="#263238"/>
<path d="M461.051 96.4046C460.319 96.3983 459.592 96.2879 458.891 96.0767C457.521 95.8066 455.534 95.3823 453.104 94.8422C448.224 93.7427 441.53 92.161 434.085 90.2706C426.639 88.3803 420.004 86.4128 415.201 85.0625C412.79 84.3488 410.861 83.7316 409.53 83.2879C408.822 83.1161 408.141 82.8501 407.504 82.4971C408.231 82.5643 408.948 82.7065 409.645 82.9214L415.432 84.3874L434.355 89.2869L453.316 94.1478L459.103 95.7102C459.774 95.8753 460.427 96.108 461.051 96.4046Z" fill="#263238"/>
<path d="M459.72 104.487C458.99 104.455 458.266 104.345 457.56 104.159C456.171 103.889 454.204 103.464 451.773 102.905C446.893 101.805 440.2 100.224 432.735 98.3334C425.27 96.443 418.673 94.4755 413.87 93.1446C411.459 92.4116 409.53 91.8136 408.199 91.37C407.528 91.1801 406.881 90.9148 406.27 90.5791C406.997 90.6318 407.715 90.7677 408.411 90.9842L414.198 92.4502L433.12 97.3689L452.005 102.23L457.791 103.773C458.459 103.939 459.105 104.179 459.72 104.487Z" fill="#263238"/>
<path d="M457.791 112.549C457.061 112.545 456.334 112.441 455.631 112.241C454.242 111.971 452.275 111.527 449.844 110.987C444.964 109.887 438.271 108.306 430.806 106.415C423.341 104.525 416.744 102.654 411.941 101.207C409.53 100.494 407.601 99.8956 406.27 99.452C405.569 99.2583 404.891 98.9933 404.244 98.6611C404.973 98.7014 405.693 98.8376 406.386 99.0662L412.172 100.532L431.095 105.432L450.076 110.293L455.862 111.855C456.526 112.025 457.172 112.257 457.791 112.549Z" fill="#263238"/>
<path d="M456.113 120.632C455.382 120.613 454.657 120.503 453.953 120.304C452.583 120.034 450.597 119.61 448.166 119.07C443.286 117.97 436.592 116.389 429.147 114.479C421.701 112.569 415.066 110.737 410.263 109.29C407.871 108.576 405.942 107.959 404.611 107.515C403.898 107.341 403.211 107.075 402.566 106.725C403.293 106.79 404.011 106.932 404.707 107.149L410.494 108.596L429.436 113.514L448.378 118.375L454.165 119.938C454.837 120.099 455.491 120.332 456.113 120.632Z" fill="#263238"/>
<path d="M453.509 128.714C452.779 128.682 452.055 128.572 451.349 128.386C449.96 128.116 447.992 127.691 445.562 127.132C440.682 126.032 433.988 124.451 426.523 122.56C419.059 120.67 412.462 118.703 407.659 117.352C405.247 116.639 403.319 116.041 401.988 115.597C401.272 115.429 400.579 115.177 399.924 114.845C400.652 114.885 401.372 115.021 402.065 115.25L407.851 116.716L426.774 121.635L445.736 126.476L451.522 128.039C452.209 128.183 452.876 128.409 453.509 128.714Z" fill="#263238"/>
<path d="M451.619 136.777C450.887 136.77 450.159 136.66 449.458 136.449C448.089 136.179 446.102 135.754 443.672 135.214C438.791 134.115 432.098 132.533 424.652 130.643C417.207 128.752 410.571 126.785 405.768 125.435C403.376 124.721 401.428 124.104 400.097 123.66C399.39 123.488 398.709 123.222 398.072 122.869C398.798 122.936 399.516 123.079 400.213 123.293L406 124.759L424.942 129.659L443.884 134.52L449.671 136.082C450.342 136.247 450.994 136.48 451.619 136.777Z" fill="#263238"/>
<path d="M449.227 145.149C448.496 145.144 447.769 145.04 447.067 144.84C445.697 144.57 443.71 144.146 441.28 143.587C436.4 142.487 429.706 140.905 422.241 139.015C414.776 137.125 408.179 135.157 403.376 133.807C400.985 133.093 399.036 132.495 397.705 132.052C397.035 131.862 396.387 131.596 395.776 131.261C396.505 131.301 397.225 131.437 397.918 131.666L403.704 133.132L422.627 138.051L441.588 142.892L447.375 144.455C448.013 144.626 448.634 144.858 449.227 145.149Z" fill="#263238"/>
<path d="M447.452 153.192C445.888 153.101 444.336 152.848 442.823 152.44C439.987 151.842 436.091 150.974 431.809 149.874C427.527 148.775 423.707 147.579 420.93 146.749C419.401 146.385 417.919 145.848 416.512 145.148C418.075 145.301 419.619 145.604 421.123 146.055C423.939 146.73 427.797 147.791 432.06 148.91C436.322 150.029 440.2 150.974 442.997 151.745C444.529 152.067 446.023 152.552 447.452 153.192Z" fill="#263238"/>
<path d="M323.191 344.175L257.28 370.061C252.065 338.056 241.846 307.071 226.996 278.244L267.503 260.884C271.2 259.298 275.182 258.487 279.205 258.499C283.227 258.512 287.204 259.348 290.891 260.956C294.578 262.565 297.896 264.912 300.642 267.852C303.387 270.792 305.501 274.263 306.853 278.051C314.621 299.453 320.097 321.618 323.191 344.175Z" fill="#FAFAFA"/>
<path d="M323.191 344.175C323.191 344.175 323.191 343.886 323.037 343.346C322.882 342.806 322.805 341.976 322.651 340.973C322.304 338.89 321.802 335.785 321.069 331.811C318.985 320.58 316.333 309.461 313.122 298.498C312.08 295.026 310.981 291.381 309.727 287.639C308.473 283.896 307.22 279.923 305.561 276.065C303.797 272.089 301.16 268.562 297.845 265.745C294.279 262.792 290.082 260.7 285.577 259.631C280.835 258.558 275.9 258.697 271.226 260.036C270.011 260.344 268.873 260.865 267.696 261.27L264.185 262.794L257.029 265.861L227.227 278.688L227.478 278.013C227.999 279.055 228.558 280.193 229.137 281.331C236.54 296.258 242.776 311.736 247.789 327.625C252.133 341.509 255.453 355.692 257.723 370.061L257.183 369.753L305.059 351.177L318.446 346.027L321.995 344.696C322.786 344.388 323.23 344.252 323.23 344.252C323.23 344.252 322.863 344.445 322.092 344.754L318.658 346.162L305.406 351.409L257.473 370.447L257.01 370.64V370.119C254.677 355.805 251.325 341.675 246.979 327.837C241.919 312.028 235.657 296.629 228.249 281.775L226.61 278.457L226.359 277.975L226.861 277.782L256.662 264.974L263.819 261.887L267.329 260.383C268.564 259.959 269.741 259.438 270.975 259.11C275.811 257.748 280.911 257.622 285.809 258.743C290.446 259.85 294.764 262.015 298.424 265.07C301.851 267.974 304.569 271.622 306.371 275.737C308.068 279.711 309.245 283.646 310.518 287.407C311.791 291.169 312.833 294.814 313.855 298.286C317.031 309.287 319.607 320.453 321.571 331.734C322.227 335.746 322.69 338.832 322.96 340.973C323.075 341.996 323.172 342.786 323.249 343.384C323.255 343.649 323.235 343.914 323.191 344.175Z" fill="#263238"/>
<path d="M269.702 259.977C269.702 259.977 279.54 280.154 278.672 280.868C277.803 281.581 303.092 271.435 303.4 271.223C303.477 271.281 290.322 253.728 269.702 259.977Z" fill="#263238"/>
<path d="M266.018 287.175C263.197 288.918 260.204 290.366 257.087 291.496C254.106 292.927 250.992 294.064 247.789 294.89C250.599 293.14 253.586 291.691 256.701 290.57C259.687 289.133 262.808 287.996 266.018 287.175Z" fill="#263238"/>
<path d="M298.732 284.282C298.848 284.533 288.162 289.722 274.872 295.855C261.581 301.989 250.702 306.754 250.586 306.503C250.471 306.252 261.157 301.083 274.447 294.93C287.737 288.776 298.617 284.031 298.732 284.282Z" fill="#263238"/>
<path d="M303.169 296.164C303.285 296.415 292.598 301.584 279.308 307.738C266.018 313.891 255.139 318.655 255.023 318.405C254.907 318.154 265.593 312.984 278.884 306.831C292.174 300.678 303.053 295.894 303.169 296.164Z" fill="#263238"/>
<path d="M307.702 307.949C307.818 308.2 297.131 313.37 283.841 319.523C270.551 325.676 259.672 330.421 259.556 330.17C259.44 329.92 270.126 324.75 283.417 318.597C296.707 312.444 307.586 307.737 307.702 307.949Z" fill="#263238"/>
<path d="M294.952 329.843C293.539 330.769 292.04 331.557 290.477 332.196C287.66 333.527 283.745 335.321 279.385 337.231C272.557 340.24 266.693 342.689 264.475 343.442L264.166 343.557V343.268C264.32 342.554 264.436 342.226 264.494 342.226C264.552 342.226 264.494 342.593 264.494 343.326L264.262 343.133C266.307 342.014 271.978 339.275 278.903 336.324C283.262 334.395 287.236 332.717 290.129 331.54C291.671 330.803 293.288 330.234 294.952 329.843Z" fill="#263238"/>
<path d="M600.262 342.459L527.098 310.824C534.794 304.472 540.821 296.333 544.651 287.118L566.004 235.847C568.03 231.17 571.19 227.072 575.198 223.923C579.205 220.774 583.935 218.674 588.958 217.812L656.818 247.208C649.476 251.469 643.695 257.974 640.325 265.765L615.963 321.954C612.475 329.964 607.085 337.003 600.262 342.459Z" fill="#0B56A4" fill-opacity="0.75"/>
<path opacity="0.7" d="M600.262 342.459L527.098 310.824C534.794 304.472 540.821 296.333 544.651 287.118L566.004 235.847C568.03 231.17 571.19 227.072 575.198 223.923C579.205 220.774 583.935 218.674 588.958 217.812L656.818 247.208C649.476 251.469 643.695 257.974 640.325 265.765L615.963 321.954C612.475 329.964 607.085 337.003 600.262 342.459Z" fill="#FAFAFA"/>
<path d="M626.63 268.445C626.514 268.696 614.536 263.7 599.856 257.258C585.177 250.815 573.372 245.414 573.488 245.163C573.604 244.913 585.582 249.908 600.262 256.351C614.941 262.794 626.746 268.195 626.63 268.445Z" fill="#263238"/>
<path d="M623.679 278.534C623.563 278.785 611.179 273.596 595.999 266.96C580.818 260.325 568.627 254.712 568.743 254.461C568.859 254.21 581.242 259.38 596.404 266.034C611.565 272.689 623.679 278.283 623.679 278.534Z" fill="#263238"/>
<path d="M619.821 287.445C619.724 287.696 607.321 282.507 592.16 275.872C576.999 269.236 564.789 263.642 564.885 263.392C564.982 263.141 577.385 268.31 592.565 274.965C607.746 281.62 619.821 287.175 619.821 287.445Z" fill="#263238"/>
<path d="M615.828 296.356C615.712 296.607 603.329 291.418 588.148 284.783C572.967 278.147 560.777 272.554 560.892 272.283C561.008 272.013 573.392 277.222 588.553 283.857C603.714 290.493 615.963 296.164 615.828 296.356Z" fill="#263238"/>
<path d="M611.912 305.249C611.912 305.519 599.413 300.33 584.252 293.676C569.09 287.021 556.88 281.446 556.996 281.176C557.112 280.906 569.476 286.114 584.657 292.75C599.837 299.385 612.105 304.998 611.912 305.249Z" fill="#263238"/>
<path d="M581.609 302.587C580.114 302.259 578.664 301.754 577.288 301.083C574.665 300.041 571.077 298.537 567.142 296.801C563.207 295.065 559.658 293.463 557.112 292.248C555.689 291.686 554.336 290.961 553.08 290.088C554.568 290.439 556.016 290.943 557.401 291.592C560.024 292.653 563.612 294.158 567.547 295.875C571.482 297.591 575.031 299.231 577.577 300.446C578.994 301.013 580.346 301.731 581.609 302.587Z" fill="#263238"/>
<path d="M600.03 323.169C599.934 323.169 600.242 322.474 600.416 321.24C600.629 319.462 600.264 317.663 599.374 316.109C598.655 314.881 597.611 313.877 596.357 313.205C595.102 312.534 593.687 312.223 592.267 312.306C590.847 312.389 589.477 312.863 588.309 313.675C587.142 314.488 586.222 315.607 585.65 316.91C585.079 318.213 584.879 319.648 585.073 321.058C585.266 322.467 585.845 323.796 586.747 324.896C587.648 325.997 588.836 326.827 590.179 327.295C591.523 327.763 592.969 327.85 594.359 327.547C596.109 327.156 597.681 326.2 598.834 324.828C599.644 323.844 599.953 323.169 600.03 323.207C599.906 323.916 599.6 324.581 599.143 325.136C598.034 326.708 596.398 327.83 594.533 328.3C593.139 328.664 591.675 328.67 590.279 328.316C588.882 327.961 587.599 327.259 586.547 326.274C585.249 325.051 584.36 323.457 584.004 321.709C583.648 319.961 583.841 318.146 584.558 316.513C585.274 314.879 586.478 313.507 588.005 312.586C589.532 311.664 591.307 311.237 593.086 311.364C594.524 311.466 595.911 311.933 597.119 312.719C598.327 313.505 599.315 314.585 599.992 315.858C600.899 317.553 601.179 319.513 600.782 321.394C600.67 322.035 600.413 322.642 600.03 323.169Z" fill="#263238"/>
<path d="M599.103 244.427L577.902 235.138L576.563 238.194L597.764 247.483L599.103 244.427Z" fill="#263238"/>
<path d="M557.922 433.213L478.932 431.362L508.329 392.012H585.39L557.922 433.213Z" fill="#0B56A4" fill-opacity="0.75"/>
<path d="M490.66 425.459L553.138 427.369L544.458 414.599L532.171 419.865L522.449 403.064L490.66 425.459Z" fill="#0B56A4" fill-opacity="0.75"/>
<path d="M542.799 402.949C542.799 403.75 542.561 404.534 542.116 405.2C541.671 405.866 541.039 406.385 540.298 406.692C539.558 406.998 538.744 407.078 537.958 406.922C537.172 406.766 536.45 406.38 535.884 405.813C535.317 405.247 534.932 404.525 534.775 403.739C534.619 402.954 534.699 402.139 535.006 401.399C535.312 400.659 535.832 400.026 536.498 399.581C537.164 399.136 537.947 398.898 538.748 398.898C539.823 398.898 540.853 399.325 541.613 400.085C542.372 400.845 542.799 401.875 542.799 402.949Z" fill="#0B56A4" fill-opacity="0.75"/>
<g opacity="0.7">
<path d="M490.66 425.459L553.138 427.369L544.458 414.599L532.171 419.865L522.449 403.064L490.66 425.459Z" fill="#FAFAFA"/>
<path d="M542.799 402.949C542.799 403.75 542.561 404.534 542.116 405.2C541.671 405.866 541.039 406.385 540.298 406.692C539.558 406.998 538.744 407.078 537.958 406.922C537.172 406.766 536.45 406.38 535.884 405.813C535.317 405.247 534.932 404.525 534.775 403.739C534.619 402.954 534.699 402.139 535.006 401.399C535.312 400.659 535.832 400.026 536.498 399.581C537.164 399.136 537.947 398.898 538.748 398.898C539.823 398.898 540.853 399.325 541.613 400.085C542.372 400.845 542.799 401.875 542.799 402.949Z" fill="#FAFAFA"/>
</g>
<path d="M343.696 201.917L274.119 232.818L272.46 179.811L341.96 146.962L343.696 201.917Z" fill="#0B56A4" fill-opacity="0.75"/>
<path opacity="0.7" d="M343.696 201.917L274.119 232.818L272.46 179.811L341.96 146.962L343.696 201.917Z" fill="#FAFAFA"/>
<path d="M277.206 223.502L340.339 194.066L319.815 182.146L311.926 196.034L288.76 184.904L277.206 223.502Z" fill="#0B56A4" fill-opacity="0.75"/>
<path d="M312.968 182.146C312.968 182.822 312.767 183.483 312.391 184.045C312.015 184.606 311.481 185.044 310.856 185.302C310.231 185.56 309.543 185.626 308.88 185.493C308.218 185.36 307.609 185.032 307.133 184.553C306.656 184.074 306.332 183.463 306.203 182.8C306.073 182.136 306.144 181.449 306.405 180.826C306.666 180.202 307.107 179.67 307.671 179.297C308.235 178.925 308.897 178.728 309.573 178.731C310.02 178.731 310.463 178.82 310.877 178.992C311.29 179.164 311.665 179.415 311.98 179.733C312.296 180.05 312.545 180.426 312.715 180.841C312.884 181.255 312.97 181.698 312.968 182.146Z" fill="#0B56A4" fill-opacity="0.75"/>
<path d="M299.215 178.635C299.019 176.688 298.703 174.755 298.269 172.848C296.881 167.633 293.784 163.035 289.473 159.789C286.307 157.41 282.596 155.861 278.678 155.282C274.76 154.702 270.76 155.111 267.04 156.471C264.894 157.232 262.877 158.319 261.06 159.692C259.14 161.096 257.453 162.795 256.065 164.727C253.095 168.774 251.494 173.663 251.494 178.683C251.494 183.702 253.095 188.591 256.065 192.638C257.453 194.57 259.14 196.269 261.06 197.673C262.877 199.047 264.894 200.133 267.04 200.894C271.014 202.341 275.301 202.707 279.462 201.955C283.097 201.292 286.526 199.786 289.473 197.557C293.783 194.318 296.88 189.726 298.269 184.518C298.705 182.61 299.02 180.678 299.215 178.731C299.248 179.245 299.248 179.76 299.215 180.274C299.223 180.92 299.178 181.565 299.08 182.203C298.993 183.056 298.838 183.901 298.617 184.73C297.532 189.266 295.16 193.392 291.786 196.612C288.412 199.832 284.179 202.009 279.597 202.881C275.307 203.616 270.898 203.19 266.828 201.647C262.247 199.995 258.259 197.021 255.37 193.101C252.251 188.894 250.567 183.795 250.567 178.557C250.567 173.32 252.251 168.221 255.37 164.013C256.827 162.013 258.591 160.255 260.598 158.805C262.492 157.387 264.594 156.268 266.828 155.487C270.687 154.104 274.833 153.72 278.88 154.371C282.928 155.022 286.745 156.686 289.975 159.21C294.358 162.569 297.445 167.339 298.713 172.713C298.936 173.541 299.091 174.386 299.176 175.24C299.311 176.366 299.35 177.502 299.292 178.635H299.215Z" fill="#263238"/>
<path d="M259.112 196.458C259.305 196.671 252.168 203.287 243.199 211.234C234.229 219.181 226.784 225.469 226.61 225.276C226.436 225.084 233.554 218.448 242.524 210.482C251.493 202.515 258.958 196.246 259.112 196.458Z" fill="#263238"/>
<path d="M108.541 289.296C101.905 285.708 91.9711 287.907 87.9204 294.273C85.443 298.838 84.5412 304.092 85.3549 309.222C85.8757 314.353 87.1681 319.387 87.2839 324.538C87.5024 327.317 87.1276 330.112 86.1844 332.736C85.7094 334.042 84.9761 335.24 84.0283 336.258C83.0805 337.275 81.9376 338.091 80.6677 338.657C76.7134 340.239 71.7753 338.657 68.2454 341.107C67.4733 341.72 66.8311 342.481 66.356 343.345C65.881 344.208 65.5827 345.158 65.4786 346.139C65.3744 347.119 65.4665 348.11 65.7495 349.055C66.0324 349.999 66.5006 350.877 67.1266 351.639C68.4906 353.108 70.2971 354.091 72.2713 354.44C74.2455 354.788 76.2794 354.482 78.0636 353.568C74.3408 357.021 75.0352 363.675 78.7966 367.07C80.78 368.666 83.1617 369.689 85.6842 370.029C88.2068 370.369 90.7743 370.013 93.1092 368.999C97.7596 366.897 101.719 363.519 104.528 359.258C111.771 348.792 115.549 336.318 115.33 323.592C115.339 311.698 112.745 299.946 107.73 289.161" fill="#263238"/>
<path d="M325.178 401.868C322.96 398.28 307.567 406.864 306.197 407.481C304.828 408.099 303.902 406.17 305.156 405.668C306.95 404.954 325.718 396.892 323.558 393.362C322.362 391.433 319.025 393.863 319.025 393.863C319.025 393.863 302.031 402.698 301.066 400.981C300.102 399.264 309.901 393.728 313.334 392.108C316.768 390.488 317.346 388.25 315.379 387.324C314.048 386.688 303.4 391.433 300.044 393.111C296.688 394.789 287.545 399.611 290.129 393.574C292.714 387.536 292.425 382 291.287 380.476C290.994 380.161 290.609 379.946 290.187 379.862C289.765 379.779 289.327 379.83 288.936 380.01C288.545 380.189 288.22 380.488 288.008 380.862C287.797 381.237 287.709 381.669 287.757 382.097C287.587 384.305 287.114 386.48 286.349 388.559C285.808 390.25 284.979 391.836 283.899 393.246C282.626 394.905 281.488 396.236 280.485 397.354C270.686 400.788 242.697 409.468 216.541 406.999C215.596 406.903 214.226 405.07 212.683 402.157L177.21 413.577C178.541 416.316 179.988 419.363 181.55 422.392C201.341 461.935 293.081 420.907 293.081 420.907V420.81C299.957 419.495 306.757 417.808 313.45 415.756C322.632 412.458 322.342 411.628 321.783 410.625C320.259 407.925 305.406 415.834 307.605 412.284C309.804 408.735 326.895 404.627 325.178 401.868Z" fill="#EB996E"/>
<path d="M200.377 419.094L264.61 394.057L304.249 417.435L234.017 442.511L200.377 419.094Z" fill="#263238"/>
<path d="M266.423 395.137L272.538 393.497C284.091 400.083 294.749 408.129 304.249 417.435L302.455 416.374L266.423 395.137Z" fill="#FAFAFA"/>
<path d="M304.249 417.435C302.616 416.352 301.068 415.147 299.62 413.827C296.784 411.532 292.83 408.407 288.374 405.089C283.918 401.772 279.79 398.878 276.801 396.853C275.105 395.833 273.481 394.699 271.94 393.458C273.781 394.193 275.534 395.131 277.167 396.255C281.241 398.729 285.188 401.407 288.991 404.279C293.467 407.616 297.363 410.857 300.102 413.287C301.618 414.529 303.007 415.918 304.249 417.435Z" fill="#263238"/>
<path d="M189.035 474.049L186.238 416.181L186.025 413.751L216.676 399.573L206.916 375.674C196.152 335.34 157.728 334.742 157.728 334.742L128.428 331.868L115.215 334.742C115.215 334.742 90.7366 338.967 89.8108 373.861C89.3677 395.122 93.899 416.194 103.043 435.393L112.013 430.706C111.986 436.387 110.259 441.929 107.055 446.62C103.283 452.093 100.605 458.243 99.166 464.732L189.035 474.049Z" fill="#0B56A4" fill-opacity="0.75"/>
<path d="M122.274 366.415C122.429 366.415 122.66 369.27 123.335 373.861C125.099 385.821 128.738 397.428 134.118 408.253C136.182 412.401 137.629 414.889 137.494 414.966C137.023 414.476 136.62 413.924 136.298 413.326C135.565 412.246 134.6 410.626 133.481 408.581C127.692 397.837 124.013 386.084 122.641 373.957C122.371 371.642 122.236 369.752 122.217 368.44C122.137 367.766 122.157 367.084 122.274 366.415Z" fill="#263238"/>
<path d="M182.168 402.023C184.217 401.137 186.052 399.821 187.549 398.165C189.082 396.339 189.916 394.029 189.902 391.645C189.918 390.204 189.574 388.783 188.9 387.509C188.226 386.236 187.245 385.151 186.045 384.354C185.14 383.745 184.123 383.324 183.052 383.115C181.982 382.907 180.881 382.915 179.814 383.139L179.332 383.254L179.236 382.772C178.29 378.123 177.519 374.111 176.998 371.198C176.66 369.694 176.44 368.166 176.342 366.627C176.891 368.065 177.311 369.55 177.596 371.063C178.271 373.88 179.158 377.873 180.181 382.502L179.583 382.136C180.776 381.864 182.013 381.838 183.217 382.061C184.421 382.283 185.567 382.748 186.585 383.428C187.907 384.325 188.982 385.541 189.711 386.964C190.439 388.387 190.797 389.97 190.751 391.568C190.731 394.159 189.756 396.652 188.012 398.57C186.857 399.83 185.442 400.824 183.865 401.483C183.344 401.782 182.766 401.967 182.168 402.023Z" fill="#263238"/>
<path d="M187.086 425.98C186.177 421.963 185.654 417.868 185.524 413.751C185.003 406.98 184.154 401.56 184.424 401.502C185.671 405.439 186.378 409.527 186.527 413.654C186.981 417.746 187.168 421.864 187.086 425.98Z" fill="#263238"/>
<path d="M216.772 399.805C215.447 400.794 214.018 401.634 212.509 402.312C209.809 403.72 206.028 405.591 201.765 407.501C197.502 409.411 193.625 411.012 190.771 412.092C189.271 412.781 187.699 413.299 186.083 413.635C187.478 412.755 188.958 412.018 190.5 411.436L201.36 406.575L212.201 401.676C213.664 400.914 215.195 400.287 216.772 399.805Z" fill="#263238"/>
<path d="M102.542 372.317C102.205 370.539 102.205 368.713 102.542 366.935C102.523 365.119 102.837 363.315 103.467 361.611C103.805 363.396 103.805 365.228 103.467 367.012C103.485 368.822 103.171 370.62 102.542 372.317Z" fill="#FAFAFA"/>
<path d="M105.416 384.277C103.917 384.2 102.455 383.792 101.133 383.081C99.7131 382.661 98.3981 381.945 97.2756 380.979C98.7799 381.041 100.251 381.443 101.577 382.155C103.776 383.062 105.531 384.007 105.416 384.277Z" fill="#FAFAFA"/>
<path d="M116.14 378.567C115.569 377.324 115.426 375.926 115.735 374.593C115.967 372.375 116.719 370.735 116.97 370.735C117.102 372.025 117.024 373.328 116.738 374.593C116.744 375.941 116.542 377.281 116.14 378.567Z" fill="#FAFAFA"/>
<path d="M114.443 398.493C114.137 396.944 114.412 395.338 115.215 393.979C116.276 391.626 117.954 390.276 118.127 390.468C118.301 390.661 117.105 392.224 116.198 394.326C115.292 396.429 114.694 398.512 114.443 398.493Z" fill="#FAFAFA"/>
<path d="M110.585 409.468C109.077 408.83 107.646 408.021 106.322 407.057C104.008 405.668 102.04 404.704 102.156 404.434C103.843 404.582 105.457 405.189 106.824 406.189C109.254 407.597 110.817 409.275 110.585 409.468Z" fill="#FAFAFA"/>
<path d="M126.846 407.212C126.497 408.893 125.96 410.53 125.245 412.092C124.834 413.757 124.232 415.368 123.451 416.895C123.259 415.139 123.552 413.364 124.3 411.764C124.727 410.047 125.606 408.475 126.846 407.212Z" fill="#FAFAFA"/>
<path d="M110.585 421.717C109.222 421.834 107.852 421.615 106.592 421.081C104.451 420.463 102.734 419.75 102.87 419.48C104.232 419.363 105.603 419.582 106.862 420.116C109.042 420.733 110.701 421.544 110.585 421.717Z" fill="#FAFAFA"/>
<path d="M124.628 352.449C123.376 353.569 121.914 354.428 120.326 354.976C118.878 355.817 117.279 356.367 115.62 356.596C118.31 354.617 121.375 353.206 124.628 352.449Z" fill="#FAFAFA"/>
<path d="M112.668 338.985C112.881 339.197 111.299 340.914 109.563 343.229C108.636 344.719 107.55 346.103 106.322 347.357C106.697 345.583 107.543 343.944 108.772 342.612C110.585 340.239 112.514 338.773 112.668 338.985Z" fill="#FAFAFA"/>
<path d="M143.55 369.578C141.768 368.979 140.164 367.945 138.882 366.569C137.388 365.426 136.212 363.918 135.468 362.19C136.947 363.262 138.317 364.477 139.558 365.817C141.757 367.842 143.705 369.327 143.55 369.578Z" fill="#FAFAFA"/>
<path d="M161.972 351.157C161.115 352.88 160.053 354.493 158.808 355.96C157.867 357.593 156.727 359.103 155.413 360.455C155.879 358.589 156.763 356.855 157.998 355.382C159.869 352.7 161.779 350.964 161.972 351.157Z" fill="#FAFAFA"/>
<path d="M150.263 385.781C147.142 386.45 143.914 386.45 140.792 385.781C143.914 385.112 147.142 385.112 150.263 385.781Z" fill="#FAFAFA"/>
<path d="M167.681 379.107C166.748 377.546 166.267 375.756 166.293 373.937C165.995 372.146 166.209 370.308 166.91 368.633C167.207 370.359 167.336 372.109 167.296 373.86C167.6 375.592 167.729 377.349 167.681 379.107Z" fill="#FAFAFA"/>
<path d="M172.195 401.714C170.432 401.321 168.753 400.616 167.238 399.631C165.58 398.926 164.063 397.926 162.763 396.68C164.528 397.057 166.209 397.756 167.72 398.744C169.386 399.443 170.904 400.45 172.195 401.714Z" fill="#FAFAFA"/>
<path d="M184.617 390.237C184.752 390.488 183.633 391.337 182.129 392.166C180.624 392.995 179.274 393.458 179.139 393.208C179.004 392.957 180.123 392.108 181.647 391.279C183.171 390.449 184.502 389.986 184.617 390.237Z" fill="#FAFAFA"/>
<path d="M145.499 411.436C145.441 409.427 145.892 407.437 146.81 405.649C147.431 403.748 148.542 402.045 150.032 400.711C149.407 402.543 148.639 404.323 147.736 406.035C147.148 407.896 146.399 409.703 145.499 411.436Z" fill="#FAFAFA"/>
<path d="M165.945 421.157C164.428 419.446 163.343 417.395 162.782 415.178C161.904 413.062 161.553 410.765 161.76 408.484C162.519 410.576 163.163 412.707 163.688 414.869C164.553 416.923 165.306 419.022 165.945 421.157Z" fill="#FAFAFA"/>
<path d="M180.181 414.213C180.412 414.387 179.679 415.602 179.101 417.184C178.522 418.766 178.271 420.154 177.982 420.154C177.692 420.154 177.5 418.611 178.155 416.837C178.811 415.062 180.026 414.02 180.181 414.213Z" fill="#FAFAFA"/>
<path d="M201.36 397.297C198.624 398.99 195.561 400.088 192.372 400.518C193.655 399.537 195.125 398.828 196.692 398.435C198.156 397.747 199.744 397.36 201.36 397.297Z" fill="#FAFAFA"/>
<path d="M200.377 384.894C200.043 383.199 200.204 381.445 200.84 379.84C201.149 378.113 201.961 376.516 203.174 375.249C202.853 376.88 202.375 378.475 201.746 380.013C201.46 381.683 201.001 383.319 200.377 384.894Z" fill="#FAFAFA"/>
<path d="M194.378 374.324C192.673 374.801 190.891 374.932 189.135 374.71C187.38 374.488 185.686 373.917 184.154 373.031C185.874 373.115 187.584 373.34 189.266 373.706C190.985 373.762 192.695 373.968 194.378 374.324Z" fill="#FAFAFA"/>
<path d="M187.395 361.882C187.81 360.308 188.691 358.896 189.922 357.831C191.735 355.902 193.664 354.841 193.78 355.072C193.895 355.304 192.372 356.654 190.636 358.525C188.9 360.396 187.742 362.036 187.395 361.882Z" fill="#FAFAFA"/>
<path d="M174.355 352.661C173.022 349.864 172.318 346.809 172.292 343.711C173.625 346.508 174.329 349.563 174.355 352.661Z" fill="#FAFAFA"/>
<path d="M110.585 449.552C110.74 449.764 110.045 450.612 109.023 451.48C108 452.348 107.094 452.792 106.843 452.58C106.592 452.368 107.364 451.519 108.386 450.651C109.409 449.783 110.469 449.339 110.585 449.552Z" fill="#FAFAFA"/>
<path d="M184.637 461.086C182.736 461.497 180.779 461.581 178.85 461.337C176.891 461.408 174.935 461.147 173.063 460.565C176.967 460.081 180.925 460.258 184.772 461.086H184.637Z" fill="#FAFAFA"/>
<path d="M137.995 414.406C138.13 414.657 130.279 419.556 120.326 425.362C110.373 431.168 102.291 435.663 102.156 435.431C102.021 435.2 109.871 430.3 119.825 424.494C129.778 418.688 137.841 414.175 137.995 414.406Z" fill="#263238"/>
<path d="M100.304 460.662C99.3782 460.662 89.1549 490.83 98.9345 510.814C99.9183 512.743 103.332 517.334 107.595 523.873C127.849 554.948 179.197 624.543 180.74 635.249C182.669 648.211 215.75 783.776 215.75 783.776H242.755L220.052 629.096L186.218 482.362L100.304 460.662Z" fill="#FFBE9D"/>
<path d="M187.318 665.379C189.228 663.626 190.726 661.471 191.703 659.069C192.68 656.668 193.113 654.08 192.97 651.491C192.738 642.193 187.298 620.011 187.298 620.011L178.599 625.335C178.599 625.335 185.447 643.544 185.775 649.253C186.16 655.638 184.964 657.721 184.964 657.721L187.318 665.379Z" fill="#EB996E"/>
<path d="M116.854 535.987L145.422 642.077L56.1704 734.878L74.9388 757.176C74.9388 757.176 184.579 667.288 186.566 654.365C188.842 639.608 162.107 534.771 162.107 534.771L116.854 535.987Z" fill="#FFBE9D"/>
<path d="M80.2047 754.437L60.1632 730.73L54.8779 735.726L61.6484 744.927C66.3164 751.061 82.3844 771.411 86.9173 774.324C91.9711 777.565 80.2047 754.437 80.2047 754.437Z" fill="#0B56A4" fill-opacity="0.75"/>
<path d="M88.3834 773.938C88.5763 773.765 81.3042 765.007 72.1419 754.36C62.9795 743.712 55.3602 735.244 55.1673 735.418C54.9744 735.591 62.2465 744.349 71.4089 754.996C80.5713 765.644 88.1905 774.112 88.3834 773.938Z" fill="#263238"/>
<path d="M60.221 741.591C60.3367 741.591 60.5875 741.109 60.8768 740.241C61.2417 739.068 61.392 737.84 61.3205 736.614C61.2432 735.338 60.7329 734.127 59.8738 733.181C59.1794 732.486 58.5621 732.332 58.5235 732.428C58.485 732.525 58.89 732.911 59.353 733.605C59.9373 734.536 60.288 735.595 60.3753 736.691C60.4243 737.832 60.3662 738.975 60.2017 740.105C60.1053 740.993 60.086 741.571 60.221 741.591Z" fill="#263238"/>
<path d="M81.0727 756.288C81.0727 756.578 80.0503 756.597 78.893 756.578C77.7356 756.558 76.7905 756.481 76.7519 756.211C76.7133 755.941 77.6585 755.536 78.9123 755.555C80.1661 755.575 81.1305 756.018 81.0727 756.288Z" fill="#263238"/>
<path d="M82.2107 758.507C82.2107 758.796 81.2462 758.989 80.1275 758.97C79.0087 758.95 78.1985 758.68 78.0828 758.391C77.9671 758.102 78.9894 757.909 80.1661 757.947C81.3427 757.986 82.23 758.237 82.2107 758.507Z" fill="#263238"/>
<path d="M83.098 760.475C83.098 760.764 82.3843 760.995 81.5163 761.13C80.6483 761.265 79.896 761.246 79.8189 760.976C79.7417 760.706 80.4168 760.282 81.362 760.147C82.3072 760.012 83.098 760.205 83.098 760.475Z" fill="#263238"/>
<path d="M80.8605 756.482C81.0941 755.419 81.5767 754.427 82.2686 753.588C82.9386 752.591 83.789 751.727 84.7762 751.042C85.3695 750.629 86.0192 750.305 86.7051 750.077C87.0987 749.952 87.5075 749.881 87.9203 749.865C88.1742 749.864 88.4259 749.912 88.6609 750.008C88.8959 750.104 89.1096 750.246 89.2899 750.425C89.5707 750.839 89.6795 751.347 89.5931 751.84C89.5067 752.333 89.232 752.773 88.8269 753.067C88.2669 753.503 87.6662 753.884 87.033 754.205C85.9965 754.759 84.9119 755.217 83.7925 755.575C82.8005 756.003 81.7284 756.213 80.6483 756.192C81.5651 755.662 82.5348 755.229 83.5417 754.9C84.5812 754.461 85.5926 753.959 86.5701 753.395C87.1258 753.069 87.6605 752.708 88.1711 752.315C88.634 751.949 88.7691 751.351 88.5376 751.1C88.3061 750.849 87.631 750.83 86.9945 751.1C86.3905 751.288 85.8134 751.554 85.2777 751.891C84.3605 752.504 83.5411 753.251 82.8473 754.109C81.6514 755.517 80.9955 756.559 80.8605 756.482Z" fill="#263238"/>
<path d="M81.0728 755.922C82.0572 755.436 83.1385 755.179 84.2362 755.169C85.4319 755.048 86.6385 755.087 87.824 755.285C88.54 755.4 89.2395 755.601 89.9072 755.883C90.2909 756.015 90.6496 756.211 90.9681 756.462C91.1876 756.611 91.3613 756.818 91.4696 757.06C91.5459 757.209 91.5856 757.374 91.5856 757.542C91.5856 757.71 91.5459 757.875 91.4696 758.024C91.2182 758.4 90.8842 758.714 90.493 758.941C90.1019 759.169 89.664 759.304 89.2128 759.336C88.4797 759.472 87.7277 759.472 86.9945 759.336C85.8167 759.092 84.6756 758.697 83.5997 758.159C81.6707 757.272 80.9763 756.134 81.092 756.057C81.9938 756.596 82.9279 757.079 83.889 757.504C84.9468 757.906 86.0375 758.216 87.1489 758.429C87.7887 758.52 88.438 758.52 89.0778 758.429C89.6544 758.371 90.1895 758.103 90.5823 757.677C90.7752 757.677 90.158 757.06 89.5407 756.848C88.9195 756.584 88.2733 756.384 87.6118 756.25C86.5011 756.025 85.3692 755.922 84.2362 755.941C83.1832 756.027 82.1247 756.02 81.0728 755.922Z" fill="#263238"/>
<path d="M79.8189 753.955C79.5488 754.167 74.6493 749.326 69.2676 742.883C63.8859 736.44 59.9124 730.924 60.1824 730.731C60.4525 730.538 64.8697 735.727 70.2514 742.15C75.6331 748.573 80.0889 753.743 79.8189 753.955Z" fill="#263238"/>
<path d="M243.797 783.795L215.364 783.486L215.692 792.417H217.621C225.877 792.552 259.595 792.533 265.034 790.778C271.033 788.849 243.797 783.795 243.797 783.795Z" fill="#0B56A4" fill-opacity="0.75"/>
<path d="M265.613 789.428C265.613 789.158 254.425 789.428 240.652 789.987C226.88 790.547 215.75 791.26 215.75 791.511C215.75 791.762 226.938 791.511 240.71 790.952C254.483 790.392 265.613 789.679 265.613 789.428Z" fill="#263238"/>
<path d="M224.739 791.048C224.855 790.951 224.585 790.45 224.025 789.678C223.285 788.65 222.356 787.772 221.286 787.093C220.138 786.361 218.786 786.017 217.428 786.11C216.387 786.206 215.847 786.611 215.904 786.708C215.962 786.804 216.541 786.708 217.448 786.708C218.612 786.812 219.735 787.189 220.727 787.807C221.715 788.455 222.634 789.205 223.466 790.045C224.16 790.758 224.623 791.125 224.739 791.048Z" fill="#263238"/>
<path d="M245.918 784.181C246.111 784.412 245.494 785.164 244.723 786.11C243.951 787.055 243.257 787.711 242.987 787.576C242.716 787.441 242.987 786.438 243.893 785.454C244.8 784.47 245.745 784.046 245.918 784.181Z" fill="#263238"/>
<path d="M248.542 784.74C248.754 784.933 248.31 785.782 247.558 786.669C246.806 787.556 245.976 788.077 245.726 787.923C245.475 787.768 245.919 786.92 246.729 785.994C247.539 785.068 248.33 784.547 248.542 784.74Z" fill="#263238"/>
<path d="M250.779 785.261C251.03 785.415 250.779 786.129 250.297 786.9C249.815 787.672 249.313 788.251 249.043 788.135C248.773 788.019 248.851 787.228 249.352 786.399C249.854 785.569 250.548 785.087 250.779 785.261Z" fill="#263238"/>
<path d="M245.938 784.548C245.229 783.709 244.721 782.719 244.452 781.654C244.068 780.512 243.898 779.309 243.951 778.105C244.005 777.378 244.167 776.662 244.433 775.983C244.584 775.594 244.792 775.23 245.05 774.903C245.218 774.69 245.428 774.515 245.667 774.389C245.906 774.262 246.169 774.188 246.439 774.17C246.951 774.17 247.441 774.373 247.803 774.735C248.165 775.097 248.368 775.587 248.368 776.099C248.357 776.812 248.279 777.522 248.137 778.221C247.912 779.38 247.583 780.516 247.153 781.616C246.846 782.669 246.312 783.643 245.591 784.47C245.733 783.41 246.012 782.373 246.42 781.384C246.736 780.302 246.981 779.2 247.153 778.086C247.251 777.447 247.303 776.803 247.307 776.157C247.307 775.578 246.883 775.096 246.516 775.134C246.15 775.173 245.706 775.655 245.456 776.292C245.205 776.875 245.043 777.493 244.973 778.124C244.872 779.224 244.957 780.332 245.224 781.403C245.576 782.422 245.815 783.477 245.938 784.548Z" fill="#263238"/>
<path d="M245.61 784.046C245.859 782.955 246.362 781.938 247.076 781.076C247.756 780.084 248.56 779.183 249.468 778.395C250.066 777.912 250.713 777.492 251.397 777.141C251.779 776.927 252.187 776.765 252.612 776.658C252.884 776.589 253.169 776.589 253.441 776.658C253.613 776.689 253.777 776.756 253.92 776.856C254.063 776.956 254.183 777.086 254.271 777.237C254.419 777.671 254.461 778.133 254.394 778.586C254.326 779.039 254.152 779.469 253.885 779.841C253.47 780.484 252.956 781.057 252.361 781.539C251.358 782.303 250.271 782.95 249.121 783.468C248.092 784.093 246.875 784.332 245.687 784.143C246.747 783.783 247.778 783.344 248.773 782.831C249.805 782.285 250.781 781.639 251.686 780.902C252.18 780.476 252.603 779.975 252.94 779.417C253.107 779.182 253.226 778.916 253.289 778.634C253.352 778.353 253.358 778.061 253.306 777.777C253.306 777.584 252.496 777.777 251.917 778.086C251.302 778.391 250.72 778.759 250.181 779.185C249.263 779.913 248.422 780.734 247.674 781.635C247.054 782.495 246.363 783.301 245.61 784.046Z" fill="#263238"/>
<path d="M243.122 783.795C238.602 784.468 234.029 784.707 229.465 784.509C224.899 784.649 220.329 784.391 215.808 783.737C220.351 783.375 224.912 783.297 229.465 783.506C234.019 783.366 238.577 783.463 243.122 783.795Z" fill="#263238"/>
<path d="M158.808 333.739C158.673 327.663 158.596 322.165 158.596 322.165C158.596 322.165 170.498 320.912 171.211 309.126C171.925 297.34 171.211 270.123 171.211 270.123L149.549 259.533L125.727 277.588L127.116 334.395C127.227 338.523 128.943 342.445 131.901 345.326C134.858 348.208 138.823 349.823 142.953 349.826C145.054 349.826 147.135 349.409 149.074 348.597C151.013 347.786 152.771 346.597 154.247 345.101C155.722 343.604 156.885 341.828 157.668 339.878C158.452 337.927 158.839 335.84 158.808 333.739Z" fill="#FFBE9D"/>
<path d="M127.309 286.75C127.309 286.75 146.772 284.821 150.205 267.268L171.423 286.75C173.192 282.506 173.634 277.825 172.69 273.325C171.747 268.825 169.463 264.716 166.138 261.539C154.43 249.387 146.405 251.895 141.814 251.895C137.552 251.895 115.928 256.485 109.486 281.079C109.023 282.873 108.637 287.29 108.348 289.296L127.309 286.75Z" fill="#263238"/>
<path d="M168.627 290.029C168.627 290.327 168.538 290.617 168.373 290.865C168.208 291.112 167.973 291.305 167.698 291.419C167.423 291.533 167.12 291.563 166.828 291.505C166.537 291.447 166.269 291.303 166.058 291.093C165.848 290.882 165.704 290.614 165.646 290.323C165.588 290.031 165.618 289.728 165.732 289.453C165.846 289.178 166.039 288.943 166.286 288.778C166.534 288.613 166.824 288.524 167.122 288.524C167.521 288.524 167.904 288.683 168.186 288.965C168.468 289.247 168.627 289.63 168.627 290.029Z" fill="#263238"/>
<path d="M170.093 288.448C169.9 288.641 168.781 287.696 167.161 287.599C165.54 287.503 164.306 288.294 164.151 288.081C163.997 287.869 164.267 287.619 164.788 287.252C165.51 286.788 166.361 286.565 167.218 286.615C168.075 286.666 168.894 286.991 169.552 287.541C170.035 287.908 170.189 288.294 170.093 288.448Z" fill="#263238"/>
<path d="M151.093 290.029C151.093 290.327 151.004 290.617 150.839 290.865C150.674 291.112 150.439 291.305 150.164 291.419C149.889 291.533 149.586 291.563 149.295 291.505C149.003 291.447 148.735 291.303 148.524 291.093C148.314 290.882 148.17 290.614 148.112 290.323C148.054 290.031 148.084 289.728 148.198 289.453C148.312 289.178 148.505 288.943 148.752 288.778C149 288.613 149.29 288.524 149.588 288.524C149.987 288.524 150.37 288.683 150.652 288.965C150.934 289.247 151.093 289.63 151.093 290.029Z" fill="#263238"/>
<path d="M152.076 288.448C151.883 288.641 150.765 287.696 149.144 287.599C147.524 287.503 146.29 288.294 146.116 288.081C145.942 287.869 146.251 287.619 146.772 287.252C147.493 286.787 148.344 286.564 149.201 286.616C150.058 286.668 150.876 286.992 151.536 287.541C152.018 287.908 152.173 288.294 152.076 288.448Z" fill="#263238"/>
<path d="M157.94 302.104C158.812 301.892 159.705 301.782 160.602 301.776C161.007 301.776 161.412 301.776 161.509 301.391C161.559 300.94 161.478 300.485 161.277 300.079L160.159 296.703C159.387 294.311 158.731 292.132 158.23 290.55C157.932 289.701 157.732 288.821 157.632 287.927C158.128 288.689 158.523 289.513 158.808 290.376C159.368 291.939 160.101 294.099 160.872 296.491C161.258 297.668 161.605 298.806 161.953 299.867C162.19 300.4 162.244 300.997 162.107 301.564C162.05 301.714 161.956 301.847 161.835 301.951C161.714 302.055 161.569 302.128 161.412 302.162C161.182 302.188 160.949 302.188 160.718 302.162C159.794 302.265 158.86 302.246 157.94 302.104Z" fill="#263238"/>
<path d="M152.578 303.647C155.134 304.716 157.756 305.618 160.429 306.348C159.838 307.176 158.985 307.78 158.007 308.06C157.03 308.34 155.986 308.281 155.047 307.891C151.575 306.425 152.578 303.647 152.578 303.647Z" fill="#FAFAFA"/>
<path d="M158.577 322.243C152.973 322.014 147.552 320.186 142.953 316.977C142.953 316.977 146.81 325.657 158.577 325.174V322.243Z" fill="#EB996E"/>
<path d="M149.627 265.86C149.627 265.86 153.947 274.213 152.096 280.501L171.018 285.381C171.018 285.381 175.32 261.443 149.627 265.86Z" fill="#263238"/>
<path d="M108.251 289.297C108.251 289.297 104.914 314.624 127.868 319.523L127.309 286.731L108.251 289.297Z" fill="#263238"/>
<path d="M151.305 258.144C153.261 257.951 155.236 258.188 157.092 258.838C161.73 260.129 165.922 262.676 169.203 266.2C172.484 269.723 174.728 274.084 175.686 278.803C176.194 280.689 176.286 282.664 175.956 284.59C175.725 284.59 175.706 282.352 174.78 278.938C173.632 274.483 171.39 270.386 168.258 267.017C165.125 263.649 161.201 261.116 156.841 259.649C153.504 258.549 151.286 258.356 151.305 258.144Z" fill="#263238"/>
<path d="M156.879 289.297C156.879 289.297 156.879 288.467 156.455 287.059C155.91 285.084 154.722 283.346 153.079 282.121C151.751 281.133 150.174 280.534 148.525 280.39C146.876 280.246 145.219 280.564 143.739 281.307C142.26 282.05 141.017 283.19 140.148 284.599C139.279 286.008 138.818 287.631 138.818 289.287C138.818 290.943 139.279 292.566 140.148 293.975C141.017 295.384 142.26 296.524 143.739 297.267C145.219 298.01 146.876 298.328 148.525 298.184C150.174 298.04 151.751 297.441 153.079 296.453C154.722 295.228 155.91 293.49 156.455 291.515C156.841 290.107 156.802 289.277 156.879 289.297C156.901 289.489 156.901 289.683 156.879 289.875C156.884 290.447 156.819 291.017 156.686 291.573C156.281 293.334 155.372 294.938 154.071 296.192C152.769 297.445 151.131 298.293 149.357 298.633C147.594 298.969 145.773 298.801 144.101 298.15C142.429 297.498 140.975 296.388 139.905 294.948C138.691 293.31 138.036 291.326 138.036 289.287C138.036 287.248 138.691 285.264 139.905 283.626C140.975 282.185 142.429 281.076 144.101 280.424C145.773 279.773 147.594 279.605 149.357 279.941C150.812 280.223 152.18 280.844 153.349 281.755C155.036 283.064 156.215 284.919 156.686 287.001C156.819 287.557 156.883 288.127 156.879 288.699C156.9 288.897 156.9 289.098 156.879 289.297Z" fill="#263238"/>
<path d="M178.233 289.296C178.233 289.296 178.233 288.467 177.827 287.059C177.282 285.083 176.095 283.346 174.452 282.121C173.496 281.411 172.41 280.898 171.255 280.61C170.1 280.323 168.899 280.268 167.723 280.447C166.546 280.626 165.417 281.037 164.4 281.655C163.383 282.274 162.499 283.088 161.798 284.05C160.741 285.496 160.143 287.227 160.08 289.018C160.018 290.809 160.494 292.577 161.448 294.094C162.402 295.611 163.789 296.806 165.43 297.526C167.071 298.246 168.89 298.457 170.652 298.131C172.049 297.897 173.371 297.335 174.51 296.491C176.152 295.266 177.34 293.529 177.885 291.553C178.252 290.145 178.213 289.316 178.29 289.335C178.319 289.527 178.319 289.722 178.29 289.914C178.295 290.485 178.23 291.055 178.097 291.611C177.671 293.356 176.756 294.943 175.46 296.187C174.164 297.431 172.541 298.279 170.78 298.634C169.019 298.988 167.193 298.833 165.517 298.187C163.841 297.541 162.384 296.431 161.316 294.987C160.102 293.349 159.447 291.364 159.447 289.325C159.447 287.287 160.102 285.302 161.316 283.664C162.427 282.132 163.983 280.981 165.772 280.365C167.371 279.783 169.098 279.65 170.768 279.98C172.216 280.265 173.577 280.886 174.741 281.793C176.432 283.102 177.618 284.956 178.097 287.04C178.23 287.596 178.294 288.165 178.29 288.737C178.296 288.925 178.277 289.113 178.233 289.296Z" fill="#263238"/>
<path d="M159.753 289.586C159.753 289.759 158.982 289.914 158.056 289.914C157.13 289.914 156.359 289.759 156.359 289.586C156.359 289.412 157.13 289.258 158.056 289.258C158.982 289.258 159.753 289.393 159.753 289.586Z" fill="#263238"/>
<path d="M138.767 291.226C136.108 292.079 133.386 292.724 130.627 293.155C127.92 293.805 125.166 294.238 122.39 294.447C125.043 293.592 127.758 292.947 130.511 292.518C133.226 291.876 135.986 291.444 138.767 291.226Z" fill="#263238"/>
<path d="M126.017 305.114C125.052 305.704 123.913 305.943 122.793 305.792C121.672 305.641 120.637 305.109 119.863 304.284C119.12 303.425 118.589 302.403 118.314 301.3C118.04 300.197 118.028 299.046 118.282 297.938C118.462 296.578 119.151 295.337 120.211 294.466C121.05 294.08 121.972 293.908 122.894 293.965C123.817 294.022 124.711 294.307 125.496 294.794L126.017 305.114Z" fill="#FFBE9D"/>
<path d="M123.374 303.204C123.374 303.05 122.776 302.954 122.082 302.452C121.643 302.137 121.293 301.714 121.067 301.224C120.84 300.734 120.745 300.193 120.789 299.655C120.836 299.115 121.028 298.597 121.343 298.156C121.659 297.715 122.087 297.367 122.583 297.148C123.355 296.762 123.972 296.781 123.972 296.627C123.972 296.472 123.374 296.202 122.332 296.472C121.649 296.675 121.041 297.077 120.588 297.628C120.135 298.178 119.858 298.852 119.791 299.562C119.725 300.272 119.873 300.985 120.216 301.611C120.558 302.236 121.081 302.744 121.715 303.069C122.699 303.513 123.374 303.339 123.374 303.204Z" fill="#EB996E"/>
<path d="M102.522 454.701C102.522 454.701 81.8249 476.189 86.0878 522.213C90.3508 568.238 95.9446 629.867 95.9446 629.867C95.9446 629.867 122.564 605.852 136.086 616.113C149.607 626.375 163.09 634.766 180.74 623.636C204.813 608.398 231.201 618.467 231.201 618.467L188.764 466.294L102.522 454.701Z" fill="#263238"/>
<path d="M129.412 460.122C129.47 461.686 129.173 463.242 128.544 464.674C127.236 468.243 124.909 471.349 121.85 473.605C118.776 475.83 115.11 477.092 111.318 477.232C109.764 477.395 108.193 477.197 106.727 476.653C106.727 476.479 108.483 476.807 111.26 476.537C114.874 476.22 118.332 474.922 121.262 472.784C124.192 470.646 126.483 467.749 127.888 464.404C128.987 461.897 129.238 460.122 129.412 460.122Z" fill="#455A64"/>
<path d="M110.932 460.759C110.662 460.662 110.797 459.582 111.241 458.309C111.685 457.036 112.225 456.11 112.495 456.187C112.765 456.264 112.611 457.383 112.186 458.637C111.762 459.891 111.183 460.836 110.932 460.759Z" fill="#455A64"/>
<path d="M106.361 478.91C106.193 477.329 106.364 475.731 106.862 474.222C107.04 472.65 107.546 471.131 108.348 469.767C108.504 471.341 108.334 472.93 107.846 474.435C107.672 476.014 107.166 477.539 106.361 478.91Z" fill="#455A64"/>
<path d="M103.988 497.486C103.625 494.35 103.941 491.172 104.914 488.169C105.236 489.721 105.236 491.323 104.914 492.876C104.939 494.461 104.623 496.033 103.988 497.486Z" fill="#455A64"/>
<path d="M103.525 516.215C103.037 514.704 102.872 513.107 103.043 511.528C102.873 509.948 103.044 508.349 103.545 506.841C104.032 508.352 104.202 509.948 104.046 511.528C104.214 513.11 104.037 514.709 103.525 516.215Z" fill="#455A64"/>
<path d="M104.683 534.926C104.079 533.458 103.784 531.883 103.815 530.296C103.514 528.738 103.554 527.132 103.93 525.59C104.541 527.048 104.837 528.619 104.798 530.2C105.085 531.766 105.046 533.375 104.683 534.926Z" fill="#455A64"/>
<path d="M107.055 553.52C106.346 552.09 105.951 550.525 105.898 548.929C105.517 547.389 105.464 545.785 105.744 544.223C106.439 545.651 106.833 547.207 106.901 548.794C107.27 550.343 107.323 551.95 107.055 553.52Z" fill="#455A64"/>
<path d="M110.469 571.999C109.676 570.621 109.189 569.088 109.042 567.505C108.581 565.988 108.437 564.392 108.618 562.817C109.897 565.709 110.555 568.837 110.547 571.999H110.469Z" fill="#455A64"/>
<path d="M114.713 590.17C113.882 588.818 113.343 587.306 113.131 585.733C112.598 584.239 112.388 582.648 112.514 581.065C113.345 582.418 113.884 583.929 114.096 585.502C114.63 586.997 114.841 588.588 114.713 590.17Z" fill="#455A64"/>
<path d="M118.185 603.923C117.915 603.923 117.433 602.997 117.105 601.705C116.777 600.413 116.719 599.313 116.989 599.255C117.259 599.197 117.741 600.181 118.069 601.474C118.397 602.766 118.455 603.865 118.185 603.923Z" fill="#455A64"/>
<path d="M166.158 502.559C165.745 500.654 165.487 498.718 165.386 496.772C165.019 493.184 164.537 488.246 164.151 482.768C163.766 477.29 163.573 472.332 163.573 468.725C163.485 466.792 163.576 464.855 163.843 462.938C164.15 464.852 164.299 466.787 164.286 468.725C164.46 472.313 164.749 477.251 165.154 482.729C165.56 488.207 165.907 493.145 166.08 496.733C166.284 498.669 166.31 500.619 166.158 502.559Z" fill="#455A64"/>
<path d="M169.359 463.845C169.749 465.816 169.975 467.816 170.035 469.824C170.343 473.509 170.671 478.601 170.98 484.253C171.115 487.05 171.25 489.731 171.366 492.2C171.606 494.418 171.363 496.662 170.652 498.778C170.116 500.224 169.084 501.434 167.739 502.192C166.775 502.674 166.157 502.655 166.157 502.597C166.157 502.539 166.717 502.404 167.546 501.864C168.691 501.035 169.548 499.868 169.996 498.527C170.555 496.487 170.705 494.356 170.44 492.258C170.305 489.769 170.131 487.108 169.977 484.311C169.668 478.659 169.437 473.547 169.34 469.863C169.18 467.86 169.187 465.847 169.359 463.845Z" fill="#455A64"/>
<path d="M193.298 482.497C192.141 482.512 191 482.233 189.98 481.687C187.42 480.58 185.169 478.865 183.421 476.691C181.673 474.514 180.475 471.946 179.93 469.207C179.661 468.085 179.661 466.915 179.93 465.793C180.259 466.863 180.523 467.951 180.721 469.053C181.419 471.608 182.635 473.991 184.295 476.056C185.954 478.12 188.02 479.82 190.366 481.051C191.366 481.484 192.345 481.967 193.298 482.497Z" fill="#455A64"/>
<path d="M230.506 608.244C230.02 608.225 229.536 608.167 229.06 608.07L224.912 607.433C219.801 606.674 214.647 606.229 209.481 606.102C201.882 605.89 194.295 606.853 186.99 608.957C182.881 610.134 178.83 612.101 174.433 613.837C172.186 614.725 169.852 615.372 167.469 615.766C164.969 616.177 162.41 616.046 159.966 615.381C155.008 614.011 151.015 611.002 146.965 608.764C143.057 606.62 138.83 605.115 134.446 604.309C130.465 603.576 126.406 603.368 122.371 603.691C118.861 604.035 115.397 604.739 112.032 605.794C107.16 607.384 102.594 609.791 98.5294 612.912C97.4114 613.742 96.3483 614.644 95.3467 615.612C94.999 615.962 94.6249 616.284 94.2279 616.577C94.5158 616.176 94.8456 615.808 95.2117 615.477C96.1561 614.439 97.1817 613.478 98.2787 612.603C102.298 609.324 106.871 606.79 111.781 605.119C115.183 604 118.694 603.243 122.255 602.862C126.363 602.504 130.499 602.679 134.562 603.383C139.061 604.188 143.4 605.719 147.408 607.916C151.536 610.173 155.491 613.124 160.197 614.416C164.904 615.709 169.842 614.513 174.047 612.854C178.252 611.195 182.495 609.189 186.701 608.012C194.098 605.922 201.781 605.017 209.462 605.331C214.638 605.526 219.794 606.08 224.893 606.99C226.687 607.318 228.076 607.588 229.021 607.819C229.532 607.897 230.031 608.039 230.506 608.244Z" fill="#455A64"/>
<path d="M241.115 435.412C245.726 434.409 254.502 430.802 254.618 429.626C254.984 427.427 246.902 430.011 244.645 430.455C242.389 430.899 230.352 428.719 230.352 428.719C227.401 427.079 224.565 425.363 222.212 423.974C221.154 422.938 220.411 421.624 220.07 420.183C219.728 418.742 219.802 417.234 220.283 415.834C221.44 412.42 221.518 409.565 220.92 408.485C220.674 408.138 220.327 407.876 219.927 407.733C219.526 407.591 219.092 407.576 218.682 407.69C218.273 407.804 217.909 408.041 217.639 408.37C217.37 408.699 217.209 409.102 217.177 409.526C216.665 411.686 215.853 413.763 214.766 415.699C213.93 417.317 212.828 418.784 211.506 420.039C210.04 421.408 208.729 422.527 207.649 423.453C197.425 425.285 168.414 429.433 142.953 422.932C139.77 421.516 137.011 419.296 134.948 416.49L106.303 433.734C119.593 475.9 216.252 448.664 216.252 448.664L242.736 439.695C242.736 439.695 257.473 436.087 257.473 434.834C257.55 432.847 246.651 435.335 241.115 435.412Z" fill="#FFBE9D"/>
<path d="M158.615 334.607C158.723 335.245 158.723 335.897 158.615 336.536C158.356 338.378 157.81 340.168 156.995 341.84C155.804 344.35 154.016 346.529 151.787 348.187C149.007 350.238 145.589 351.236 142.142 351.003C138.709 350.823 135.444 349.46 132.903 347.145C130.867 345.249 129.313 342.895 128.37 340.278C127.727 338.538 127.356 336.71 127.27 334.858C127.214 334.212 127.259 333.561 127.405 332.929C127.644 335.381 128.195 337.792 129.045 340.104C130.031 342.562 131.561 344.765 133.52 346.547C135.926 348.706 138.993 349.984 142.22 350.173C145.438 350.384 148.631 349.485 151.266 347.627C153.404 346.066 155.153 344.033 156.378 341.686C157.45 339.442 158.203 337.059 158.615 334.607Z" fill="#263238"/>
</svg>
