<svg width="44" height="45" viewBox="0 0 44 45" fill="none" xmlns="http://www.w3.org/2000/svg">
<rect opacity="0.01" x="44" y="44.1157" width="44" height="44" transform="rotate(180 44 44.1157)" fill="#1A1A1A"/>
<path d="M5.93973 13.4806L21.5597 21.969C21.8347 22.1156 22.1647 22.1156 22.4397 21.969L38.0597 13.4806C38.3511 13.3367 38.5277 13.032 38.5077 12.7077C38.4877 12.3833 38.275 12.1026 37.9681 11.9956L22.3481 5.61564C22.1249 5.52395 21.8746 5.52395 21.6514 5.61564L6.0314 11.9956C5.72452 12.1026 5.5118 12.3833 5.49177 12.7077C5.47175 13.032 5.64834 13.3367 5.93973 13.4806Z" fill="#1A1A1A"/>
<path d="M37.9682 19.659L34.6132 18.229L22.4399 24.8473C22.1649 24.994 21.8349 24.994 21.5599 24.8473L9.38652 18.229L6.03152 19.659C5.74194 19.811 5.56055 20.1111 5.56055 20.4382C5.56055 20.7652 5.74194 21.0653 6.03152 21.2173L21.6515 30.2007C21.9216 30.3658 22.2614 30.3658 22.5315 30.2007L38.1515 21.2173C38.4273 21.0338 38.5767 20.7109 38.5379 20.3819C38.4992 20.0529 38.279 19.7735 37.9682 19.659Z" fill="#1A1A1A"/>
<path d="M37.9684 27.7989L35.1084 26.5522L22.44 33.4456C22.165 33.5922 21.835 33.5922 21.56 33.4456L8.89169 26.5522L6.03169 27.7989C5.73384 27.9534 5.54688 28.2609 5.54688 28.5964C5.54688 28.9319 5.73384 29.2395 6.03169 29.3939L21.6517 38.5606C21.9267 38.7072 22.2567 38.7072 22.5317 38.5606L38.1517 29.3939C38.4358 29.2078 38.5907 28.8773 38.5519 28.5399C38.5131 28.2024 38.2873 27.9157 37.9684 27.7989Z" fill="#1A1A1A"/>
</svg>
