<svg width="1086" height="1179" viewBox="0 0 1086 1179" fill="none" xmlns="http://www.w3.org/2000/svg">
<path d="M914.741 638.288L724.421 566.326C721.294 565.144 718.431 563.357 715.996 561.068C713.56 558.778 711.6 556.031 710.227 552.983C708.853 549.936 708.095 546.647 707.993 543.306C707.892 539.965 708.45 536.637 709.636 533.511L809.231 270.104C811.62 263.79 816.418 258.682 822.572 255.904C828.725 253.127 835.73 252.907 842.046 255.293L962.759 300.93L1019.75 432.555L947.555 623.582C945.147 629.878 940.339 634.961 934.188 637.718C928.037 640.475 921.043 640.68 914.741 638.288Z" fill="#F5F5F5"/>
<path d="M962.761 300.931L934.708 375.065C933.607 377.973 933.089 381.071 933.184 384.18C933.279 387.289 933.986 390.349 935.265 393.185C936.543 396.021 938.367 398.577 940.633 400.708C942.9 402.838 945.564 404.502 948.473 405.603L1019.75 432.556L962.761 300.931Z" fill="#EBEBEB"/>
<path d="M933.218 381.949C933.218 381.949 925.499 399.586 943.685 413.351C944.372 413.864 945.089 414.336 945.831 414.764C954.519 419.997 1011.67 454.016 1012.19 452.629L1019.73 432.689L948.448 405.736C948.448 405.736 930.915 398.278 933.218 381.949Z" fill="#E0E0E0"/>
<path d="M919.897 366.011C919.531 366.979 899.538 360.28 875.228 351.095C850.918 341.91 831.502 333.667 831.868 332.777C832.234 331.888 852.227 338.508 876.537 347.693C900.847 356.878 920.264 364.99 919.897 366.011Z" fill="#E0E0E0"/>
<path d="M960.907 429.444C960.541 430.386 927.831 418.977 887.82 403.773C847.809 388.57 815.648 375.59 816.015 374.622C816.381 373.654 849.091 385.089 889.128 400.319C929.165 415.549 961.195 428.476 960.907 429.444Z" fill="#E0E0E0"/>
<path d="M960.719 469.376C960.352 470.318 924.712 457.731 881.089 441.219C837.467 424.707 802.402 410.577 802.768 409.635C803.135 408.693 838.776 421.279 882.398 437.791C926.02 454.303 961.19 468.408 960.719 469.376Z" fill="#E0E0E0"/>
<path d="M948.235 502.4C947.868 503.342 912.228 490.755 868.605 474.243C824.983 457.731 789.918 443.496 790.285 442.658C790.651 441.821 826.292 454.303 869.914 470.789C913.536 487.275 948.601 501.432 948.235 502.4Z" fill="#E0E0E0"/>
<path d="M935.761 535.424C935.394 536.366 899.727 523.78 856.131 507.268C812.535 490.756 777.444 476.625 777.784 475.683C778.124 474.741 813.791 487.328 857.44 503.814C901.088 520.299 936.101 534.456 935.761 535.424Z" fill="#E0E0E0"/>
<path d="M923.248 568.445C922.908 569.387 887.241 556.775 843.645 540.289C800.049 523.803 764.931 509.646 765.298 508.704C765.664 507.762 801.305 520.349 844.927 536.834C888.549 553.32 923.614 567.477 923.248 568.445Z" fill="#E0E0E0"/>
<path d="M280.21 364.827L29.3094 452.691C20.6343 455.729 16.0646 465.224 19.1025 473.899L144.987 833.369C148.025 842.044 157.521 846.614 166.196 843.576L417.097 755.712C425.772 752.674 430.341 743.179 427.303 734.504L301.419 375.033C298.381 366.358 288.885 361.789 280.21 364.827Z" fill="#EBEBEB"/>
<path d="M283.429 387.169L40.728 472.162L165.497 828.446L408.199 743.454L283.429 387.169Z" fill="#E0E0E0"/>
<path d="M279.086 385.497L36.3845 470.49L158.775 819.982L401.477 734.99L279.086 385.497Z" fill="#FAFAFA"/>
<path d="M401.429 734.979L278.728 385.61L279.172 385.819L36.5163 470.839L36.7519 470.368C82.4936 601.627 125.069 722.863 159.061 819.868L158.669 819.685L401.456 734.979L158.852 820.313H158.564V820.025C124.546 723.02 82.101 601.784 36.0977 470.551V470.185H36.4378L279.12 385.244H279.46V385.558L401.429 734.979Z" fill="#E0E0E0"/>
<path d="M315.362 765.125C315.362 765.125 369.399 719.54 378.767 672.071C373.345 679.596 366.455 685.944 358.512 690.734C350.57 695.524 341.74 698.655 332.554 699.94C332.554 699.94 331.482 749.659 315.362 765.125Z" fill="#E0E0E0"/>
<path d="M119.327 548.363L106.558 552.834C101.893 554.468 99.4359 559.574 101.069 564.238L105.541 577.007C107.175 581.672 112.281 584.129 116.945 582.496L129.714 578.024C134.379 576.391 136.836 571.285 135.203 566.62L130.731 553.851C129.097 549.186 123.992 546.729 119.327 548.363Z" fill="#EBEBEB"/>
<path d="M117.77 570.354C117.681 570.4 117.582 570.424 117.482 570.424C117.382 570.424 117.283 570.4 117.194 570.354L111.333 566.952C111.191 566.844 111.093 566.688 111.059 566.512C111.024 566.337 111.054 566.155 111.144 566.001C111.235 565.847 111.378 565.731 111.547 565.674C111.717 565.618 111.901 565.626 112.065 565.696L117.299 568.68L123.475 555.596C123.565 555.421 123.717 555.287 123.901 555.219C124.085 555.152 124.288 555.155 124.469 555.229C124.558 555.271 124.637 555.33 124.702 555.403C124.768 555.476 124.818 555.562 124.849 555.655C124.881 555.747 124.894 555.845 124.887 555.943C124.88 556.041 124.854 556.136 124.809 556.224L118.293 570.145C118.226 570.215 118.145 570.27 118.054 570.306C117.964 570.343 117.867 570.359 117.77 570.354Z" fill="white"/>
<path d="M285.351 494.26C285.351 494.469 253.95 505.696 214.985 519.329C176.021 532.963 144.332 543.848 144.332 543.665C144.332 543.482 175.733 532.23 214.724 518.596C253.714 504.963 285.299 494.077 285.351 494.26Z" fill="#E0E0E0"/>
<path d="M211.347 544.557C211.347 544.557 210.536 544.923 209.07 545.499L202.738 547.854C197.504 549.79 189.968 552.433 181.803 555.312C173.639 558.19 166.102 560.755 160.869 562.56L154.458 564.68C153.682 564.965 152.886 565.192 152.076 565.36C152.808 564.977 153.569 564.653 154.353 564.392L160.686 562.063C165.919 560.1 173.456 557.457 181.62 554.579C189.785 551.701 197.321 549.162 202.555 547.33L208.966 545.211C209.739 544.925 210.536 544.706 211.347 544.557Z" fill="#E0E0E0"/>
<path d="M288.668 503.891C288.668 504.074 257.266 515.3 218.276 528.933C179.285 542.567 147.622 553.479 147.622 553.27C147.622 553.06 179.024 541.86 218.04 528.227C257.057 514.593 288.668 503.681 288.668 503.891Z" fill="#E0E0E0"/>
<path d="M137.553 600.429L124.785 604.901C120.12 606.535 117.662 611.641 119.296 616.305L123.768 629.074C125.401 633.739 130.507 636.196 135.172 634.562L147.941 630.091C152.605 628.457 155.063 623.351 153.429 618.687L148.958 605.918C147.324 601.253 142.218 598.796 137.553 600.429Z" fill="#EBEBEB"/>
<path d="M136.006 622.433C135.913 622.479 135.81 622.503 135.706 622.503C135.601 622.503 135.498 622.479 135.405 622.433L129.569 619.031C129.485 618.985 129.41 618.922 129.351 618.846C129.291 618.77 129.248 618.683 129.224 618.59C129.199 618.497 129.194 618.4 129.208 618.305C129.223 618.209 129.256 618.118 129.307 618.037C129.353 617.952 129.416 617.878 129.492 617.818C129.568 617.759 129.655 617.716 129.748 617.691C129.841 617.667 129.938 617.661 130.034 617.676C130.129 617.69 130.22 617.724 130.302 617.775L135.535 620.758L141.711 607.543C141.796 607.371 141.943 607.237 142.123 607.169C142.303 607.101 142.502 607.104 142.679 607.177C142.856 607.257 142.994 607.404 143.063 607.585C143.131 607.767 143.125 607.968 143.046 608.145L136.53 622.093C136.472 622.183 136.395 622.26 136.305 622.319C136.215 622.378 136.113 622.416 136.006 622.433Z" fill="white"/>
<path d="M303.584 546.333C303.584 546.542 272.183 557.742 233.192 571.402C194.202 585.061 162.539 595.921 162.539 595.738C162.539 595.555 193.94 584.303 232.931 570.669C271.921 557.036 303.532 546.15 303.584 546.333Z" fill="#E0E0E0"/>
<path d="M229.59 596.632C229.59 596.632 228.779 596.999 227.287 597.574L220.981 599.929C215.747 601.866 208.211 604.509 200.046 607.387C191.882 610.266 184.345 612.83 179.112 614.636L172.701 616.755C171.925 617.04 171.129 617.268 170.319 617.436C171.048 617.046 171.81 616.722 172.596 616.468L178.929 614.139C184.162 612.176 191.699 609.533 199.863 606.655C208.027 603.776 215.564 601.238 220.797 599.406L227.209 597.287C227.982 597 228.779 596.782 229.59 596.632Z" fill="#E0E0E0"/>
<path d="M306.99 556.018C306.99 556.201 275.588 567.428 236.598 581.061C197.607 594.695 165.944 605.607 165.944 605.397C165.944 605.188 197.346 593.988 236.336 580.355C275.326 566.721 306.99 555.757 306.99 556.018Z" fill="#E0E0E0"/>
<path d="M155.802 652.499L143.034 656.971C138.369 658.604 135.911 663.71 137.545 668.375L142.017 681.144C143.65 685.809 148.756 688.266 153.421 686.632L166.19 682.161C170.854 680.527 173.312 675.421 171.678 670.756L167.207 657.988C165.573 653.323 160.467 650.866 155.802 652.499Z" fill="#EBEBEB"/>
<path d="M154.247 674.507C154.153 674.553 154.05 674.577 153.946 674.577C153.841 674.577 153.739 674.553 153.645 674.507L147.783 671.157C147.688 671.116 147.602 671.056 147.532 670.979C147.461 670.903 147.408 670.812 147.376 670.714C147.343 670.615 147.332 670.51 147.343 670.407C147.353 670.304 147.386 670.204 147.438 670.114C147.491 670.025 147.562 669.947 147.646 669.887C147.731 669.826 147.827 669.785 147.929 669.765C148.031 669.745 148.136 669.746 148.237 669.77C148.338 669.793 148.433 669.838 148.516 669.901L153.75 672.884L159.925 659.669C159.962 659.578 160.017 659.494 160.087 659.424C160.156 659.354 160.24 659.299 160.331 659.262C160.423 659.225 160.521 659.207 160.62 659.209C160.719 659.211 160.817 659.233 160.907 659.273C160.997 659.314 161.078 659.372 161.145 659.445C161.212 659.518 161.264 659.604 161.297 659.697C161.329 659.79 161.343 659.889 161.337 659.988C161.331 660.087 161.304 660.183 161.26 660.271L154.744 674.219C154.616 674.369 154.441 674.47 154.247 674.507Z" fill="white"/>
<path d="M321.826 598.41C321.826 598.619 290.425 609.819 251.434 623.478C212.444 637.138 180.781 647.998 180.781 647.789C180.781 647.579 212.182 636.379 251.199 622.746C290.215 609.112 321.748 598.226 321.826 598.41Z" fill="#E0E0E0"/>
<path d="M247.826 648.679C247.083 649.058 246.314 649.382 245.523 649.647L239.191 652.003C233.957 653.939 226.447 656.582 218.256 659.46C210.066 662.339 202.555 664.877 197.322 666.709L190.911 668.829C190.133 669.109 189.338 669.337 188.529 669.509C189.258 669.119 190.02 668.795 190.806 668.541L197.139 666.186C202.372 664.249 209.909 661.606 218.073 658.728C226.237 655.849 233.774 653.311 239.007 651.479L245.392 649.36C246.19 649.087 247.003 648.86 247.826 648.679Z" fill="#E0E0E0"/>
<path d="M325.309 608.039C325.309 608.222 293.908 619.448 254.917 633.082C215.927 646.715 184.264 657.627 184.264 657.418C184.264 657.209 215.665 646.009 254.656 632.349C293.646 618.69 325.126 607.83 325.309 608.039Z" fill="#E0E0E0"/>
<path d="M174.032 704.571L161.263 709.043C156.598 710.676 154.141 715.782 155.775 720.447L160.246 733.216C161.88 737.88 166.986 740.338 171.65 738.704L184.419 734.233C189.084 732.599 191.541 727.493 189.908 722.828L185.436 710.06C183.803 705.395 178.697 702.937 174.032 704.571Z" fill="#EBEBEB"/>
<path d="M172.462 726.577C172.371 726.616 172.273 726.636 172.174 726.636C172.075 726.636 171.977 726.616 171.886 726.577L166.024 723.175C165.858 723.074 165.738 722.912 165.692 722.723C165.645 722.534 165.675 722.334 165.776 722.168C165.877 722.001 166.039 721.881 166.228 721.835C166.417 721.788 166.617 721.818 166.783 721.919L172.017 724.902L178.193 711.818C178.273 711.641 178.419 711.503 178.601 711.435C178.782 711.366 178.984 711.372 179.161 711.452C179.333 711.537 179.467 711.684 179.535 711.864C179.603 712.043 179.6 712.242 179.527 712.42L172.985 726.367C172.844 726.502 172.657 726.577 172.462 726.577Z" fill="white"/>
<path d="M340.066 650.485C340.066 650.694 308.665 661.894 269.674 675.527C230.684 689.161 199.021 700.073 199.021 699.864C199.021 699.654 230.422 688.454 269.413 674.821C308.403 661.187 339.988 650.223 340.066 650.485Z" fill="#E0E0E0"/>
<path d="M266.036 700.752C265.308 701.142 264.546 701.466 263.76 701.72L257.427 704.075C252.194 706.012 244.657 708.655 236.493 711.533C228.328 714.412 220.792 716.95 215.558 718.782L209.147 720.901C207.629 721.372 206.766 721.608 206.766 721.582C207.495 721.192 208.256 720.868 209.042 720.613L215.375 718.258C220.609 716.322 228.145 713.679 236.31 710.8C244.474 707.922 252.01 705.384 257.244 703.552L263.655 701.432C264.432 701.152 265.228 700.924 266.036 700.752Z" fill="#E0E0E0"/>
<path d="M343.436 660.114C343.436 660.297 312.035 671.524 273.044 685.157C234.054 698.791 202.391 709.676 202.391 709.493C202.391 709.31 233.792 698.084 272.783 684.424C311.773 670.765 343.358 659.905 343.436 660.114Z" fill="#E0E0E0"/>
<path d="M63.8621 436.43L70.2471 454.748C72.0328 459.847 75.7701 464.029 80.6376 466.375C85.5051 468.72 91.1046 469.037 96.2057 467.256L230.448 420.154C232.971 419.273 235.297 417.903 237.29 416.122C239.284 414.341 240.907 412.185 242.066 409.776C243.226 407.367 243.899 404.754 244.047 402.085C244.195 399.416 243.816 396.744 242.93 394.221L236.545 375.904L63.8621 436.43Z" fill="#E0E0E0"/>
<path d="M151.997 411.622C148.431 412.877 144.573 413.046 140.911 412.106C137.249 411.167 133.948 409.162 131.426 406.346C128.904 403.53 127.275 400.029 126.744 396.286C126.213 392.543 126.804 388.727 128.443 385.32C130.083 381.914 132.696 379.07 135.952 377.149C139.208 375.229 142.961 374.317 146.735 374.53C150.509 374.744 154.136 376.072 157.155 378.348C160.174 380.623 162.45 383.743 163.694 387.312C165.36 392.088 165.063 397.328 162.871 401.885C160.678 406.442 156.768 409.944 151.997 411.622ZM141.792 382.497C139.592 383.265 137.67 384.668 136.268 386.529C134.866 388.39 134.048 390.624 133.916 392.95C133.785 395.276 134.346 397.589 135.529 399.595C136.713 401.602 138.464 403.213 140.563 404.224C142.662 405.235 145.014 405.601 147.32 405.275C149.627 404.949 151.785 403.946 153.522 402.394C155.259 400.841 156.496 398.808 157.077 396.552C157.658 394.296 157.557 391.918 156.786 389.72C155.754 386.775 153.595 384.36 150.783 383.006C147.972 381.652 144.738 381.469 141.792 382.497Z" fill="#E0E0E0"/>
<path d="M259.285 459.195C259.285 459.536 224.011 472.279 180.232 487.588C136.453 502.896 100.864 515.064 100.733 514.724C100.602 514.384 136.008 501.64 179.787 486.332C223.566 471.023 259.154 458.75 259.285 459.195Z" fill="#E0E0E0"/>
<path d="M213.937 465.606C213.937 465.946 198.498 471.729 179.16 478.507C159.821 485.284 144.042 490.596 143.911 490.125C143.78 489.654 159.377 484.002 178.715 477.224C198.053 470.447 213.832 465.265 213.937 465.606Z" fill="#E0E0E0"/>
<path d="M911.467 995.847C921.102 991.324 931.935 990.012 942.371 992.105C947.971 993.021 953.833 994.722 957.627 998.909C961.421 1003.1 962.18 1010.53 957.784 1014.14C954.946 1016.07 951.515 1016.93 948.102 1016.57C939.911 1016.57 930.857 1015.03 924.341 1019.95C920.599 1022.75 918.139 1027.41 913.691 1028.79C911.452 1029.31 909.104 1029.08 907.009 1028.14C904.913 1027.19 903.188 1025.58 902.098 1023.56C899.983 1019.47 899.515 1014.72 900.79 1010.29C901.339 1007.23 902.588 1004.33 904.439 1001.82C906.291 999.316 908.696 997.271 911.467 995.847Z" fill="#0B56A4"/>
<path d="M889.802 954.297C895.559 962.487 906.732 959.792 911.914 954.768C917.095 949.744 919.267 942.495 921.256 935.587C925.809 919.755 930.414 903.165 927.039 887.045C926.198 882.201 924.054 877.678 920.837 873.961C919.196 872.117 917.1 870.735 914.758 869.954C912.416 869.174 909.91 869.021 907.491 869.513C901.839 871.004 898.358 876.526 895.82 881.759C888.358 897.275 884.451 914.261 884.385 931.478C884.385 939.486 885.301 947.859 889.802 954.48" fill="#0B56A4"/>
<path d="M874.025 966.072C876.981 962.213 878.951 957.691 879.763 952.898C880.574 948.105 880.204 943.186 878.682 938.569C875.519 929.375 869.889 921.228 862.406 915.018C853.898 907.448 843.997 901.608 833.255 897.826C829.105 896.149 824.642 895.39 820.171 895.602C817.935 895.728 815.765 896.4 813.849 897.558C811.933 898.717 810.33 900.327 809.18 902.248C806.092 908.11 809.18 915.201 812.216 920.985C817.817 931.194 824.223 940.942 831.371 950.136C837.102 957.541 843.67 964.842 852.436 968.192C861.202 971.541 870.256 971.122 874.888 965.078" fill="#0B56A4"/>
<path d="M889.437 1078.1C889.725 1076.88 889.891 1075.63 889.934 1074.38C890.222 1071.76 890.536 1068.26 890.929 1064.2C891.431 1059.18 892.2 1054.2 893.232 1049.26C894.561 1043.25 896.373 1037.36 898.648 1031.65C900.883 1025.94 903.914 1020.57 907.65 1015.71C910.694 1011.75 914.583 1008.51 919.033 1006.24C922.047 1004.74 925.28 1003.74 928.611 1003.26C929.864 1003.21 931.11 1003.04 932.327 1002.73C931.066 1002.6 929.793 1002.6 928.532 1002.73C925.081 1003.01 921.706 1003.9 918.562 1005.35C913.876 1007.55 909.764 1010.81 906.551 1014.88C902.663 1019.81 899.524 1025.3 897.235 1031.15C894.914 1036.95 893.11 1042.94 891.845 1049.05C890.881 1054.05 890.217 1059.1 889.856 1064.18C889.516 1068.49 889.411 1072.03 889.359 1074.41C889.24 1075.64 889.266 1076.87 889.437 1078.1Z" fill="#263238"/>
<path d="M890.124 1070.27C890.202 1069.7 890.202 1069.12 890.124 1068.54V1063.68C890.124 1059.39 890.124 1053.21 890.333 1045.36C890.726 1030 892.034 1013.49 894.598 990.197C897.006 968.295 900.251 942.807 903.679 926.243C904.411 922.475 905.144 919.073 905.851 916.116C906.557 913.159 907.081 910.568 907.63 908.501C908.18 906.434 908.467 904.942 908.781 903.686C908.925 903.118 909.03 902.541 909.095 901.959C908.833 902.475 908.631 903.019 908.494 903.581C908.101 904.837 907.63 906.408 907.054 908.344C906.479 910.28 905.746 912.95 905.013 915.906C904.281 918.863 903.417 922.239 902.606 926.007C898.412 945.627 895.258 965.455 893.159 985.409C890.542 1008.75 889.443 1029.89 889.365 1045.39C889.365 1053.08 889.365 1059.31 889.626 1063.7C889.626 1065.72 889.836 1067.37 889.914 1068.65C889.936 1069.19 890.006 1069.74 890.124 1070.27Z" fill="#263238"/>
<path d="M890.218 1029.29C890.364 1027.55 890.364 1025.8 890.218 1024.06C889.921 1019.37 889.388 1014.7 888.622 1010.06C887.5 1003.17 885.979 996.36 884.068 989.65C881.854 981.39 879.002 973.315 875.538 965.497C869.616 951.085 861.131 937.866 850.495 926.48C848.641 924.535 846.665 922.708 844.581 921.011C843.691 920.226 842.88 919.467 841.964 918.865L839.687 917.295C838.316 916.243 836.853 915.315 835.317 914.521C840.342 918.447 845.106 922.695 849.579 927.239C859.895 938.704 868.163 951.857 874.02 966.125C877.413 973.896 880.28 981.887 882.603 990.042C884.572 996.686 886.188 1003.43 887.444 1010.24C888.517 1016.08 889.145 1020.71 889.511 1024.11C889.62 1025.86 889.856 1027.59 890.218 1029.29Z" fill="#263238"/>
<path d="M850.597 1101.59L854.705 1157.85H927.007L931.09 1101.59H850.597Z" fill="#263238"/>
<path d="M939.758 1079.41H843.643V1101.6H939.758V1079.41Z" fill="#263238"/>
<path d="M843.643 1155.71V1161.84H848.143H938.135V1155.71H843.643Z" fill="#455A64"/>
<path d="M852.564 1172.67L848.142 1161.83H934.705L929.524 1172.67H852.564Z" fill="#455A64"/>
<path d="M929.789 1119.96C929.789 1119.96 929.789 1120.17 929.449 1120.49L928.376 1121.93L924.163 1127.32L923.98 1127.55L923.797 1127.29L913.461 1113H914.089L903.883 1127.42L903.569 1127.87L903.203 1127.45L891.139 1113.06H891.82L891.165 1113.89L880.358 1127.42L880.018 1127.89L879.678 1127.42C876.014 1122.19 872.586 1117.37 869.472 1113H870.074L857.54 1127.29L857.304 1127.55L857.121 1127.27C855.472 1124.49 854.164 1122.27 853.196 1120.67L852.201 1118.92C852.069 1118.72 851.963 1118.51 851.887 1118.29C851.887 1118.29 852.044 1118.45 852.306 1118.84L853.431 1120.54L857.54 1127H857.147L869.498 1112.53L869.812 1112.17L870.1 1112.56L880.384 1126.93H879.678L890.537 1113.4L891.218 1112.56L891.558 1112.11L891.898 1112.53L903.962 1126.95H903.281L913.565 1112.59L913.853 1112.17L914.167 1112.59C918.223 1118.42 921.703 1123.37 924.294 1127.06H923.902L928.298 1121.82L929.475 1120.46L929.789 1119.96Z" fill="#E0E0E0"/>
<path d="M932.114 1101.2C932.114 1101.46 914.005 1101.67 891.658 1101.67C869.31 1101.67 851.202 1101.46 851.202 1101.2C851.202 1100.94 869.31 1100.76 891.658 1100.76C914.005 1100.76 932.114 1100.97 932.114 1101.2Z" fill="#455A64"/>
<path d="M935.78 1162.46C935.78 1162.7 916.075 1162.91 891.817 1162.91C867.559 1162.91 847.855 1162.7 847.855 1162.46C847.855 1162.23 867.533 1161.99 891.817 1161.99C916.101 1161.99 935.78 1162.2 935.78 1162.46Z" fill="#263238"/>
<path d="M222.728 982.947C222.518 983.183 220.87 982.188 219.038 980.723C217.206 979.257 215.872 977.871 216.081 977.609C216.29 977.347 217.913 978.368 219.744 979.833C221.576 981.299 222.911 982.685 222.728 982.947Z" fill="#263238"/>
<path d="M272.968 908.004C273.68 901.024 273.104 893.972 271.267 887.2C269.069 880.527 263.94 874.43 257.084 872.991C249.233 871.369 241.226 876.314 236.83 883.013C232.434 889.712 230.942 897.824 229.634 905.701C220.706 960.126 217.417 1015.33 219.821 1070.43L251.85 1074.93C265.798 1017.44 270.351 967.17 272.968 908.004Z" fill="#455A64"/>
<path d="M252.5 872.65L252.343 873.173L251.819 874.613L249.674 880.16C249.229 881.364 248.627 882.777 248.156 884.164L246.612 889.005L244.806 894.579L243.158 900.937C240.469 911.44 238.398 922.091 236.956 932.836C235.229 944.874 234.104 958.219 233.188 972.245C231.565 1000.32 231.304 1025.81 230.571 1044.23C230.231 1053.47 229.917 1060.93 229.577 1066.06C229.393 1068.67 229.263 1070.53 229.158 1072C229.158 1072.6 229.158 1073.12 229.158 1073.52C229.158 1073.91 229.158 1074.04 229.158 1074.04C229.158 1074.04 229.158 1073.88 229.158 1073.52C229.158 1073.15 229.158 1072.6 229.158 1071.97C229.158 1070.53 229.158 1068.54 229.341 1066.03C229.55 1060.8 229.734 1053.44 229.969 1044.21C230.493 1025.89 230.623 1000.3 232.272 972.193C233.162 958.141 234.339 944.769 236.119 932.679C237.62 921.967 239.778 911.358 242.582 900.911L244.309 894.552C244.99 892.599 245.618 890.741 246.193 888.979L247.868 884.138C248.365 882.672 248.993 881.364 249.464 880.16L251.819 874.717C252.064 874.142 252.273 873.67 252.448 873.304C252.429 873.085 252.446 872.864 252.5 872.65Z" fill="#263238"/>
<path d="M255.462 872.779C257.132 874.751 258.459 876.989 259.388 879.4C261.837 886.018 262.827 893.088 262.292 900.125C261.455 917.841 259.859 942.229 257.765 969.182C255.672 996.135 253.29 1020.47 251.406 1038.08C250.438 1046.87 249.627 1053.99 249.025 1059.02C248.711 1061.4 248.476 1063.28 248.292 1064.67L248.083 1066.13C248.095 1066.3 248.095 1066.47 248.083 1066.63C248.083 1066.63 248.083 1066.47 248.083 1066.13C248.083 1065.79 248.083 1065.24 248.083 1064.64C248.083 1063.26 248.371 1061.37 248.58 1058.96C249.077 1053.94 249.758 1046.85 250.595 1038.03C252.27 1020.39 254.494 996.161 256.614 969.104C258.733 942.046 260.434 917.788 261.481 900.125C262.051 893.17 261.159 886.173 258.864 879.583C257.934 877.219 256.795 874.942 255.462 872.779Z" fill="#263238"/>
<path d="M277.679 955.708C275.577 955.556 273.52 955.024 271.608 954.138C269.575 953.609 267.652 952.723 265.929 951.521C268.034 951.659 270.093 952.191 272 953.091C274.035 953.615 275.959 954.501 277.679 955.708Z" fill="#263238"/>
<path d="M281.551 923.05C279.816 924.437 277.862 925.525 275.768 926.269C273.824 927.346 271.708 928.081 269.514 928.441C273.183 925.959 277.257 924.135 281.551 923.05Z" fill="#263238"/>
<path d="M279.538 896.385C276.375 896.956 273.12 896.731 270.065 895.731C271.613 895.287 273.243 895.206 274.828 895.495C276.446 895.423 278.058 895.728 279.538 896.385Z" fill="#263238"/>
<path d="M246.459 879.325C246.198 879.482 244.784 877.729 243.345 875.426C242.298 874.095 241.556 872.549 241.173 870.899C241.435 870.742 242.848 872.469 244.313 874.798C245.779 877.127 246.799 879.142 246.459 879.325Z" fill="#263238"/>
<path d="M235.55 895.441C234.093 895.965 232.531 896.127 230.997 895.912C229.455 896.06 227.9 895.826 226.47 895.232C227.927 894.708 229.49 894.547 231.023 894.761C232.565 894.613 234.12 894.847 235.55 895.441Z" fill="#263238"/>
<path d="M227.696 927.603C226.021 927.536 224.383 927.088 222.907 926.294C221.291 925.835 219.799 925.022 218.537 923.913C220.212 923.98 221.849 924.428 223.326 925.221C224.941 925.681 226.434 926.494 227.696 927.603Z" fill="#263238"/>
<path d="M226.86 954.793C226.86 955.107 225.106 955.761 222.777 956.232C220.448 956.703 218.538 956.887 218.46 956.573C218.381 956.258 220.239 955.604 222.542 955.133C223.931 954.664 225.414 954.547 226.86 954.793Z" fill="#263238"/>
<path d="M223.246 999.172C223.246 999.486 221.362 1000.09 218.903 1000.53C217.433 1000.97 215.879 1001.04 214.375 1000.74C215.695 999.955 217.185 999.497 218.719 999.407C220.185 998.954 221.741 998.873 223.246 999.172Z" fill="#263238"/>
<path d="M220.633 1023.67C220.79 1023.93 219.168 1025.08 217.022 1026.28C214.876 1027.49 213.018 1028.12 212.887 1027.83C212.757 1027.54 214.353 1026.41 216.499 1025.21C218.644 1024.01 220.633 1023.38 220.633 1023.67Z" fill="#263238"/>
<path d="M240.7 1051.46C240.439 1051.61 239.026 1049.68 237.56 1047.11C236.5 1045.65 235.768 1043.97 235.414 1042.19C235.676 1042.04 237.089 1043.97 238.555 1046.54C239.614 1048.01 240.346 1049.68 240.7 1051.46Z" fill="#263238"/>
<path d="M246.485 1005.27C246.695 1005.48 245.125 1007.39 242.979 1009.51C240.833 1011.63 238.897 1013.15 238.661 1012.91C238.426 1012.68 240.022 1010.79 242.168 1008.67C244.314 1006.55 246.25 1005.03 246.485 1005.27Z" fill="#263238"/>
<path d="M245.203 981.015C244.967 981.25 243.528 980.046 241.958 978.398C240.388 976.749 239.341 975.153 239.551 974.944C239.76 974.734 241.225 975.912 242.795 977.56C244.365 979.209 245.438 980.805 245.203 981.015Z" fill="#263238"/>
<path d="M249.181 950.058C249.417 950.268 248.108 952.125 246.25 954.167C244.392 956.208 242.718 957.752 242.482 957.542C242.246 957.333 243.555 955.475 245.387 953.408C247.218 951.34 248.945 949.849 249.181 950.058Z" fill="#263238"/>
<path d="M251.407 927.604C251.171 927.839 249.366 926.4 247.325 924.411C245.284 922.422 243.844 920.617 244.054 920.381C244.263 920.146 246.095 921.585 248.136 923.6C250.177 925.615 251.616 927.368 251.407 927.604Z" fill="#263238"/>
<path d="M255.804 897.196C255.457 898.847 254.751 900.402 253.736 901.749C252.349 904.104 250.989 905.884 250.727 905.727C250.465 905.57 251.355 903.529 252.768 901.174C254.181 898.819 255.516 897.039 255.804 897.196Z" fill="#263238"/>
<path d="M264.047 869.039C264.335 869.196 263.524 871.238 262.241 873.593C260.959 875.948 259.625 877.753 259.415 877.623C259.664 875.988 260.282 874.431 261.221 873.069C262.503 870.688 263.759 868.909 264.047 869.039Z" fill="#263238"/>
<path d="M273.411 881.835C273.542 882.123 272.26 883.013 270.533 883.85C268.806 884.687 267.314 885.106 267.183 884.818C267.052 884.53 268.335 883.641 270.062 882.803C271.789 881.966 273.28 881.547 273.411 881.835Z" fill="#263238"/>
<path d="M273.619 982.949C269.272 982.632 265.156 980.873 261.922 977.951C263.959 978.568 265.931 979.383 267.81 980.385C269.829 981.039 271.775 981.898 273.619 982.949Z" fill="#263238"/>
<path d="M269.804 1004.35C269.804 1004.67 267.946 1005.29 265.486 1005.77C264.024 1006.23 262.468 1006.33 260.959 1006.05C262.268 1005.25 263.746 1004.77 265.276 1004.64C267.736 1004.17 269.751 1004.04 269.804 1004.35Z" fill="#263238"/>
<path d="M265.122 1041.07C264.939 1041.33 262.505 1039.63 260.255 1036.81C258.756 1035.19 257.701 1033.22 257.193 1031.07C258.655 1032.63 259.978 1034.31 261.144 1036.1C262.62 1037.63 263.951 1039.29 265.122 1041.07Z" fill="#263238"/>
<path d="M213.594 1057.86C213.384 1057.63 214.693 1056.16 216.498 1054.62C218.304 1053.08 219.953 1052 220.162 1052.26C220.371 1052.53 219.063 1053.94 217.257 1055.51C215.452 1057.08 213.803 1058.1 213.594 1057.86Z" fill="#263238"/>
<path d="M198.786 977.741C196.692 971.226 192.793 963.637 185.963 963.532C183.928 963.642 181.96 964.298 180.266 965.431C178.572 966.563 177.213 968.131 176.333 969.97C174.454 973.601 173.552 977.659 173.717 981.745C174.56 1010.75 179.502 1039.49 188.397 1067.11H213.44C213.136 1036.74 208.195 1006.61 198.786 977.741Z" fill="#455A64"/>
<path d="M153.538 936.734C152.3 930.63 149.047 925.12 144.301 921.086C139.556 917.053 133.594 914.73 127.37 914.491C116.301 916.427 112.01 927.313 110.701 938.461C109.393 949.608 112.847 960.703 116.275 971.406C127.231 1005.74 138.204 1040.08 149.194 1074.43L180.334 1071.03C170.6 1025.02 164.948 982.37 153.538 936.734Z" fill="#455A64"/>
<path d="M185.964 963.532C185.155 964.645 184.446 965.827 183.845 967.065C182.554 970.603 182.149 974.403 182.667 978.134C183.138 982.897 183.688 988.601 184.499 994.881C185.31 1001.16 186.435 1007.97 187.848 1015.24C190.674 1029.63 193.867 1042.51 195.882 1051.88C196.902 1056.56 197.687 1060.38 198.158 1063.02C198.368 1064.25 198.551 1065.25 198.682 1066.08C198.813 1066.92 198.839 1067.16 198.682 1067.16C198.546 1066.83 198.441 1066.49 198.368 1066.14L197.635 1063.13C196.955 1060.33 196.065 1056.59 195.018 1052.06C192.794 1042.69 189.471 1029.84 186.645 1015.42C185.231 1008.2 184.028 1001.29 183.374 994.96C182.955 991.82 182.693 988.784 182.431 985.984C182.17 983.184 181.908 980.541 181.777 978.134C181.33 974.294 181.87 970.402 183.347 966.829C183.97 965.553 184.863 964.428 185.964 963.532Z" fill="#263238"/>
<path d="M127.946 913.603C126.559 915.184 125.298 916.873 124.178 918.653C121.312 923.628 119.687 929.22 119.441 934.956C119.311 943.46 120.612 951.926 123.288 959.999C125.905 969.262 129.019 979.442 132.185 990.092C138.387 1011.45 143.987 1030.76 148.095 1044.86L152.806 1061.5C153.329 1063.39 153.722 1064.88 154.036 1066.03C154.207 1066.55 154.321 1067.08 154.376 1067.63C154.136 1067.14 153.943 1066.63 153.8 1066.11C153.46 1064.96 152.963 1063.49 152.387 1061.61C151.157 1057.61 149.43 1051.98 147.337 1045.1L131.086 990.406C127.946 979.703 124.989 969.472 122.268 960.261C119.602 952.072 118.371 943.485 118.63 934.878C118.967 929.031 120.767 923.362 123.864 918.392C124.951 916.581 126.33 914.963 127.946 913.603Z" fill="#263238"/>
<path d="M173.657 1067.71C173.393 1067.22 173.157 1066.73 172.95 1066.22C172.558 1065.19 171.903 1063.76 171.197 1061.82C169.705 1058 167.795 1052.37 165.963 1045.31C164.131 1038.24 162.038 1029.61 160.154 1020.19C158.27 1010.77 156.386 1000.22 154.292 989.229C152.199 978.238 149.739 967.902 146.939 958.665C144.51 950.452 141.475 942.432 137.859 934.669C135.4 929.445 132.594 924.392 129.459 919.544C128.386 917.816 127.418 916.534 126.842 915.644C126.514 915.199 126.225 914.726 125.979 914.231C126.362 914.62 126.712 915.04 127.025 915.487C127.679 916.377 128.7 917.581 129.825 919.308C133.135 924.078 136.066 929.101 138.592 934.328C142.345 942.072 145.469 950.106 147.933 958.351C150.889 968.44 153.317 978.677 155.208 989.02C157.275 999.984 159.212 1010.45 160.991 1020C162.771 1029.55 164.655 1038.01 166.539 1045.1C168.423 1052.19 170.176 1057.82 171.537 1061.66C172.165 1063.62 172.767 1065.09 173.107 1066.11C173.35 1066.62 173.534 1067.16 173.657 1067.71Z" fill="#263238"/>
<path d="M116.955 966.282C116.955 966.569 115.333 967.25 113.161 967.773C110.989 968.296 109.183 968.48 109.131 968.166C109.079 967.852 110.727 967.197 112.899 966.674C115.071 966.151 116.877 965.968 116.955 966.282Z" fill="#263238"/>
<path d="M113.663 945.028C111.962 945.507 110.194 945.701 108.429 945.604C106.689 945.85 104.919 945.796 103.196 945.447C104.825 944.67 106.628 944.327 108.429 944.453C110.194 944.195 111.996 944.394 113.663 945.028Z" fill="#263238"/>
<path d="M117.163 925.617C116.953 925.879 115.252 924.78 113.395 923.183C111.537 921.587 110.15 920.096 110.359 919.86C110.568 919.625 112.243 920.697 114.127 922.294C116.011 923.89 117.372 925.381 117.163 925.617Z" fill="#263238"/>
<path d="M126.665 907.665C126.979 907.665 126.874 909.261 126.848 911.066C126.822 912.872 126.848 914.416 126.455 914.468C126.063 914.521 125.644 913.003 125.697 911.04C125.749 909.078 126.429 907.586 126.665 907.665Z" fill="#263238"/>
<path d="M146.058 916.115C146.32 916.298 145.561 917.842 144.357 919.543C143.153 921.244 141.976 922.5 141.74 922.317C141.505 922.134 142.237 920.616 143.415 918.889C144.593 917.162 145.796 915.932 146.058 916.115Z" fill="#263238"/>
<path d="M158.636 938.072C158.636 938.386 157.144 939.302 155.051 940.165C152.957 941.029 151.126 941.474 151.021 941.186C150.916 940.898 152.513 939.956 154.606 939.119C156.699 938.281 158.531 937.706 158.636 938.072Z" fill="#263238"/>
<path d="M166.284 960.5C164.9 961.701 163.185 962.458 161.365 962.671C159.62 963.236 157.753 963.3 155.974 962.855C157.653 962.189 159.413 961.749 161.208 961.546C162.851 960.992 164.556 960.641 166.284 960.5Z" fill="#263238"/>
<path d="M131.214 954.112C130.926 954.112 131.214 952.463 131.712 950.631C132.209 948.8 132.994 947.413 133.282 947.517C133.569 947.622 133.282 949.166 132.784 950.998C132.287 952.829 131.659 954.216 131.214 954.112Z" fill="#263238"/>
<path d="M136.109 982.373C136.215 980.724 136.699 979.122 137.522 977.689C138.595 975.229 139.694 973.345 139.982 973.476C139.876 975.125 139.393 976.728 138.569 978.16C137.496 980.62 136.397 982.556 136.109 982.373Z" fill="#263238"/>
<path d="M124.019 990.119C122.477 990.081 120.957 989.744 119.545 989.124C117.163 988.365 115.227 987.685 115.306 987.371C116.863 987.171 118.446 987.397 119.885 988.025C122.319 988.784 124.15 989.831 124.019 990.119Z" fill="#263238"/>
<path d="M130.981 1013.15C131.164 1013.41 129.829 1014.67 128.024 1015.97C126.218 1017.28 124.543 1018.12 124.36 1017.88C124.177 1017.65 125.511 1016.34 127.343 1015.03C129.175 1013.72 130.797 1012.89 130.981 1013.15Z" fill="#263238"/>
<path d="M136.585 1036.12C136.585 1036.41 135.015 1037.09 132.895 1037.59C130.776 1038.09 129.022 1038.27 128.944 1037.98C128.865 1037.69 130.514 1037.01 132.634 1036.49C134.753 1035.97 136.506 1035.81 136.585 1036.12Z" fill="#263238"/>
<path d="M166.909 979.704C167.066 979.965 165.653 981.091 163.612 981.849C161.571 982.608 159.739 982.713 159.687 982.425C159.635 982.137 161.257 981.535 163.194 980.777C165.13 980.018 166.752 979.416 166.909 979.704Z" fill="#263238"/>
<path d="M171.225 1015.43C171.095 1015.71 169.42 1015.22 167.483 1014.3C165.547 1013.38 164.082 1012.42 164.212 1012.13C164.343 1011.84 166.044 1012.36 167.981 1013.25C169.917 1014.14 171.383 1015.14 171.225 1015.43Z" fill="#263238"/>
<path d="M178.896 1041.01C177.163 1040.93 175.468 1040.47 173.924 1039.68C171.307 1038.66 169.292 1037.59 169.397 1037.27C171.121 1037.36 172.807 1037.82 174.342 1038.61C176.959 1039.63 179 1040.7 178.896 1041.01Z" fill="#263238"/>
<path d="M137.811 1061.06C137.653 1060.77 139.695 1059.41 142.05 1057.56C144.405 1055.7 146.237 1054.02 146.472 1054.26C146.708 1054.49 145.216 1056.51 142.756 1058.45C141.388 1059.77 139.673 1060.67 137.811 1061.06Z" fill="#263238"/>
<path d="M158.011 1047.98C157.697 1047.98 157.252 1046.3 156.467 1044.31C155.682 1042.33 154.897 1040.73 155.159 1040.55C155.42 1040.36 156.729 1041.72 157.54 1043.9C158.351 1046.07 158.325 1047.98 158.011 1047.98Z" fill="#263238"/>
<path d="M152.594 1017.28C152.411 1017.54 151.103 1016.91 149.663 1015.89C148.224 1014.87 147.23 1013.83 147.413 1013.56C147.596 1013.3 148.904 1013.93 150.344 1014.95C151.783 1015.97 152.856 1017.02 152.594 1017.28Z" fill="#263238"/>
<path d="M199.697 969.081C199.88 969.343 198.598 970.599 196.844 971.881C195.091 973.163 193.521 974.027 193.338 973.765C193.155 973.503 194.411 972.274 196.164 970.965C197.917 969.657 199.697 968.819 199.697 969.081Z" fill="#263238"/>
<path d="M206.898 988.497C206.898 988.811 204.936 989.23 202.476 988.968C200.016 988.706 198.158 987.869 198.237 987.581C198.315 987.293 200.251 987.581 202.607 987.817C204.962 988.052 206.872 988.183 206.898 988.497Z" fill="#263238"/>
<path d="M176.355 992.866C176.355 993.154 174.602 993.808 172.195 993.965C169.787 994.122 167.903 993.729 167.929 993.415C167.955 993.101 169.839 992.996 172.142 992.839C174.445 992.682 176.303 992.552 176.355 992.866Z" fill="#263238"/>
<path d="M179.001 974.495C179.001 974.809 177.117 974.861 175.076 973.893C173.035 972.925 171.857 971.538 172.067 971.276C172.276 971.014 173.689 972.009 175.547 972.846C177.405 973.684 179.027 974.181 179.001 974.495Z" fill="#263238"/>
<path d="M209.515 1009.35C209.358 1009.61 207.448 1008.72 205.25 1007.34C203.052 1005.95 201.43 1004.72 201.613 1004.35C201.796 1003.99 203.68 1005.01 205.878 1006.37C208.076 1007.73 209.699 1009.09 209.515 1009.35Z" fill="#263238"/>
<path d="M284.012 1063.83H121.116V1092.7H284.012V1063.83Z" fill="#0B56A4"/>
<path d="M133.285 1086.99L153.094 1173.27H250.177L271.844 1086.99H133.285Z" fill="#0B56A4"/>
<path d="M283.934 1092.75C283.934 1093.06 247.299 1093.32 201.871 1093.32C156.443 1093.32 119.808 1093.06 119.808 1092.75C119.808 1092.43 156.443 1092.17 201.871 1092.17C247.299 1092.17 283.934 1092.46 283.934 1092.75Z" fill="#263238"/>
<path d="M193.34 993.497C193.078 993.654 191.953 992.372 190.854 990.592C189.755 988.813 189.075 987.243 189.336 987.086C189.598 986.929 190.723 988.211 191.822 989.99C192.921 991.77 193.602 993.314 193.34 993.497Z" fill="#263238"/>
<path d="M193.393 1016.71C193.315 1015.2 193.612 1013.7 194.257 1012.34C195.016 1010.01 195.905 1008.2 196.193 1008.31C196.274 1009.82 195.977 1011.33 195.33 1012.7C194.466 1015 193.707 1016.81 193.393 1016.71Z" fill="#263238"/>
<path d="M201.343 1041.1C201.055 1041.25 199.851 1039.29 198.726 1036.75C197.823 1035.28 197.252 1033.63 197.051 1031.91C197.339 1031.75 198.543 1033.72 199.668 1036.25C200.571 1037.73 201.142 1039.38 201.343 1041.1Z" fill="#263238"/>
<path d="M184.153 1060.72C183.918 1060.51 184.886 1059.02 186.325 1057.34C187.765 1055.67 189.099 1054.52 189.361 1054.73C189.623 1054.94 188.628 1056.45 187.189 1058.1C185.75 1059.75 184.389 1061.06 184.153 1060.72Z" fill="#263238"/>
<path d="M180.544 1025.1C180.544 1025.42 178.921 1025.39 177.037 1025.1C175.153 1024.82 173.688 1024.27 173.74 1023.95C173.792 1023.64 175.363 1023.67 177.22 1023.95C179.078 1024.24 180.596 1024.79 180.544 1025.1Z" fill="#263238"/>
<path d="M747.267 865.427H360.975V1173.48H747.267V865.427Z" fill="#E0E0E0"/>
<g opacity="0.3">
<path d="M389.104 866.055C434.585 882.279 484.749 885.76 533.552 886.676C543.679 886.859 553.911 886.833 563.698 889.292C573.484 891.752 582.931 897.326 587.955 906.092C593.424 915.644 592.849 927.602 589.735 938.148C586.621 948.694 581.256 958.454 577.383 968.738C570.526 986.934 568.428 1006.58 571.286 1025.81C572.167 1034 574.925 1041.88 579.346 1048.84C581.586 1052.29 584.603 1055.18 588.156 1057.26C591.71 1059.34 595.7 1060.56 599.809 1060.82C614.49 1061.03 624.538 1046.61 631.813 1033.84C661.671 981.508 693.962 922.107 713.065 864.982L389.104 866.055Z" fill="black"/>
</g>
<path d="M492.595 1171.83C492.203 1171.83 491.915 1103.56 491.915 1019.35C491.915 935.14 492.203 866.841 492.595 866.841C492.988 866.841 493.276 935.114 493.276 1019.35C493.276 1103.58 492.962 1171.83 492.595 1171.83Z" fill="#455A64"/>
<path d="M650.885 637.766C649.734 630.073 626.758 604.69 626.758 604.69C626.758 604.69 615.296 558.608 611.842 545.027C610.692 541.101 609.011 537.35 606.844 533.879C598.72 520.345 587.165 509.197 573.349 501.562L541.555 483.689L533.966 466.785L457.608 427.533L436.909 464.168C436.909 464.168 386.64 480.13 379.994 491.461C373.347 502.792 383.291 655.796 383.291 655.796C383.291 655.796 362.356 744.034 357.829 762.3C353.302 780.565 359.242 802.337 359.242 802.337L396.689 755.365C408.334 740.764 433.874 734.038 452.217 734.3L608.99 735.007L602.683 691.097L729.52 715.642C729.52 715.642 751.318 673.093 753.071 672.256C754.824 671.418 650.885 637.766 650.885 637.766Z" fill="#0B56A4"/>
<path d="M454.365 478.43C453.266 477.305 463.209 510.93 475.718 545.184C482.447 563.694 485.875 583.242 485.845 602.937V726.973L560.999 721.871L549.773 640.174C549.773 640.174 540.614 587.472 538.05 567.427C535.695 549.11 527.583 499.39 527.583 499.39C527.583 499.39 485.845 510.486 454.365 478.43Z" fill="white"/>
<path d="M621.16 668.541C621.043 667.91 621.043 667.262 621.16 666.631C621.333 664.92 621.666 663.229 622.155 661.581C623.743 656.077 626.695 651.063 630.738 647.005C634.802 642.959 639.812 639.99 645.314 638.37C646.962 637.881 648.653 637.548 650.364 637.375C650.986 637.256 651.626 637.256 652.248 637.375C652.248 637.611 649.631 637.899 645.601 639.286C640.371 641.08 635.621 644.048 631.716 647.963C627.81 651.877 624.853 656.634 623.071 661.869C621.684 665.925 621.396 668.541 621.16 668.541Z" fill="#263238"/>
<path d="M625.029 638.814C628.521 636.764 632.47 635.621 636.517 635.491C640.524 634.936 644.607 635.422 648.371 636.904C648.371 637.322 643.138 636.302 636.622 636.904C630.106 637.506 625.186 639.207 625.029 638.814Z" fill="#263238"/>
<g opacity="0.3">
<path d="M375.731 706.506L369.189 713.886C376.01 722.306 385.255 728.427 395.671 731.418C406.169 733.646 416.895 734.612 427.622 734.297C431.968 734.507 436.321 734.093 440.549 733.067C444.815 731.837 448.766 729.43 453.188 729.168C456.154 729.182 459.104 729.604 461.955 730.424C464.823 731.237 467.855 731.283 470.747 730.555C472.179 730.168 473.448 729.33 474.367 728.166C475.286 727.002 475.806 725.574 475.85 724.091C443.227 714.557 409.65 708.659 375.731 706.506Z" fill="black"/>
</g>
<path d="M590.311 715.98L571.993 696.407L533.919 686.855C533.919 686.855 499.168 697.323 498.33 697.323C497.493 697.323 468.08 689.263 468.08 689.263L457.796 726.997L510.786 730.635L571.287 728.201C571.287 728.201 574.453 725.27 572.569 723.255C570.685 721.24 582.696 726.657 584.109 726.709C585.522 726.762 588.244 727.861 590.128 725.61C591.41 723.935 593.137 718.99 590.311 715.98Z" fill="#FFBE9D"/>
<path d="M572.565 723.127C570.51 722.739 568.495 722.161 566.547 721.4C562.883 720.249 557.78 718.783 552.102 717.213C546.423 715.643 541.19 714.596 537.395 713.942C535.319 713.671 533.277 713.188 531.298 712.503C533.394 712.411 535.494 712.569 537.552 712.974C542.558 713.673 547.52 714.651 552.416 715.905C557.319 717.149 562.143 718.687 566.861 720.51C568.866 721.136 570.783 722.015 572.565 723.127Z" fill="#EB996E"/>
<path d="M590.308 715.982C587.455 715.261 584.642 714.387 581.882 713.365C576.648 711.638 569.505 709.492 561.471 707.268C553.437 705.044 546.32 702.506 540.903 702.192C537.985 702.042 535.06 702.156 532.163 702.532C532.872 702.143 533.641 701.877 534.439 701.747C536.579 701.285 538.77 701.109 540.955 701.223C546.555 701.223 554.039 703.605 561.89 705.96C569.74 708.315 577.12 710.487 582.248 712.476C584.865 713.444 586.828 714.334 588.241 714.962C588.977 715.198 589.673 715.542 590.308 715.982Z" fill="#EB996E"/>
<path d="M379.999 491.459C379.999 491.459 352.653 510.484 345.981 537.855C339.308 565.227 310.497 677.095 316.411 693.817C322.325 710.538 437.307 726.971 437.307 726.971L450.941 669.402L392.534 653.413C392.534 653.413 393.292 600.161 394.025 578.102C394.758 556.042 379.999 491.459 379.999 491.459Z" fill="#0B56A4"/>
<path d="M450.207 678.066L469.021 682.698L457.691 726.084L439.216 723.127L450.207 678.066Z" fill="white"/>
<path d="M315.991 687.906C315.991 687.906 315.991 688.874 316.279 690.523C316.915 693.053 318.312 695.328 320.282 697.039C325.28 701.697 334.832 705.569 346.921 707.741C352.443 709.573 358.749 711.012 365.475 712.53C372.2 714.048 379.474 715.592 387.116 717.136C402.424 720.276 419.355 723.573 437.306 726.922L436.521 727.42C437.803 722.186 439.138 716.455 440.577 710.724C443.795 697.64 446.936 684.766 449.893 672.65L450.364 673.435L398.577 658.755C391.427 655.744 383.69 654.385 375.942 654.777C370.053 655.106 364.269 656.47 358.854 658.807C355.413 660.296 352.126 662.119 349.041 664.25L346.66 665.977C346.399 666.188 346.119 666.372 345.822 666.527C345.822 666.527 346.058 666.265 346.555 665.846C347.052 665.428 347.811 664.774 348.858 663.988C351.897 661.735 355.169 659.813 358.619 658.258C364.068 655.788 369.919 654.325 375.889 653.94C383.774 653.437 391.668 654.744 398.97 657.76L450.913 672.31L451.541 672.467L451.384 673.095C448.427 685.211 445.313 697.981 442.121 711.195C440.708 716.9 439.347 722.552 438.039 727.865L437.882 728.493H437.253C419.302 725.117 402.398 721.767 387.089 718.575C379.448 716.979 372.2 715.382 365.448 713.812C358.697 712.242 352.364 710.751 346.817 708.84C334.57 706.511 325.019 702.482 319.968 697.588C317.966 695.788 316.591 693.395 316.043 690.758C315.855 689.818 315.837 688.852 315.991 687.906Z" fill="#263238"/>
<path d="M395.725 657.315C395.568 657.499 393.605 655.693 390.099 653.364C380.916 647.215 370.061 644.044 359.011 644.284C354.772 644.284 352.181 644.859 352.129 644.624C354.322 643.831 356.628 643.398 358.959 643.342C370.313 642.519 381.585 645.796 390.727 652.579C392.643 653.871 394.332 655.472 395.725 657.315Z" fill="#263238"/>
<path d="M403.391 563.631C403.487 564.798 403.487 565.971 403.391 567.138C403.391 569.414 403.155 572.659 402.841 576.689C402.187 584.723 401.01 595.792 398.89 607.934C397.233 618.321 394.811 628.572 391.642 638.603C391.013 640.513 390.333 642.24 389.784 643.836L388.109 647.604C387.618 648.678 387.013 649.696 386.303 650.64C386.631 649.518 387.07 648.431 387.612 647.395C388.056 646.27 388.527 644.988 389.077 643.575C389.627 642.161 390.15 640.33 390.726 638.341C393.586 628.274 395.866 618.052 397.555 607.724C399.649 595.635 400.983 584.618 401.873 576.611C402.266 572.816 402.606 569.65 402.868 567.138C402.902 565.952 403.077 564.775 403.391 563.631Z" fill="#263238"/>
<path d="M470.068 533.985C470.068 533.985 469.807 533.279 469.179 532.049C468.248 530.306 466.888 528.829 465.227 527.757C463.999 526.914 462.594 526.363 461.12 526.146C459.646 525.928 458.142 526.05 456.723 526.501C454.923 527.117 453.315 528.192 452.058 529.619C450.801 531.046 449.937 532.777 449.553 534.64L449.186 536.497L448.375 534.77C445.314 528.202 442.649 521.456 440.394 514.569C436.396 503.097 434.395 491.024 434.48 478.876C434.48 476.547 434.794 474.453 434.925 472.595C435.056 470.737 435.474 469.193 435.762 467.937C436.038 466.617 436.423 465.321 436.913 464.064C436.021 468.954 435.522 473.907 435.422 478.876C435.637 490.89 437.748 502.794 441.676 514.15C443.933 520.984 446.554 527.693 449.526 534.247L448.349 534.404C448.8 532.346 449.785 530.443 451.204 528.886C452.624 527.329 454.427 526.173 456.435 525.533C457.993 525.063 459.639 524.962 461.242 525.239C462.846 525.516 464.362 526.164 465.672 527.129C467.372 528.324 468.712 529.962 469.545 531.866C469.774 532.367 469.941 532.894 470.042 533.436C470.095 533.776 470.121 533.985 470.068 533.985Z" fill="#263238"/>
<path d="M533.862 539.872C533.582 538.851 533.381 537.81 533.26 536.758C532.688 533.874 532.503 530.926 532.711 527.992C533.3 523.479 535.548 519.346 539.017 516.4C541.163 514.634 543.853 513.663 546.632 513.652C548.147 513.635 549.647 513.946 551.03 514.565C552.412 515.184 553.644 516.096 554.64 517.237L553.488 517.917L551.002 511.663C546.109 499.338 541.765 488.112 538.677 480.026L535.092 470.37C534.594 469.217 534.217 468.016 533.967 466.785C534.611 467.867 535.154 469.006 535.589 470.187C536.636 472.804 537.971 475.865 539.593 479.686C542.916 487.72 547.444 498.841 552.285 511.088L554.744 517.368L556.341 521.398L553.724 518.022C552.86 517.02 551.786 516.219 550.579 515.677C549.372 515.134 548.06 514.863 546.737 514.882C544.246 514.866 541.826 515.707 539.881 517.263C536.611 519.997 534.429 523.813 533.731 528.018C533.45 530.884 533.502 533.774 533.889 536.628C534.013 537.706 534.004 538.796 533.862 539.872Z" fill="#263238"/>
<path d="M582.402 546.364C582.768 546.364 588.682 586.087 595.617 635.204C602.551 684.321 607.837 724.175 607.471 724.175C607.105 724.175 601.191 684.452 594.256 635.204C587.322 585.956 582.036 546.416 582.402 546.364Z" fill="#263238"/>
<g opacity="0.3">
<path d="M441.172 514.987C441.491 525.163 443.7 535.19 447.688 544.557C450.541 541.024 453.707 537.309 458.155 536.262C463.546 534.98 469.015 538.303 472.914 542.385C472.239 538.304 470.626 534.434 468.204 531.081C466.995 529.432 465.421 528.086 463.605 527.146C461.789 526.206 459.781 525.699 457.737 525.664C455.699 525.712 453.736 526.438 452.158 527.727C450.58 529.016 449.476 530.795 449.023 532.782L441.513 515.17" fill="black"/>
</g>
<path d="M396.981 543.744C396.746 543.744 396.824 540.997 396.039 536.731C394.964 531.174 392.803 525.883 389.681 521.161C387.922 518.605 385.915 516.23 383.688 514.07C381.843 512.323 379.836 510.754 377.696 509.386C374.006 507.057 371.415 506.167 371.52 505.932C372.162 505.978 372.791 506.137 373.378 506.403C374.11 506.6 374.821 506.872 375.497 507.214C376.402 507.603 377.277 508.057 378.114 508.575C380.39 509.861 382.522 511.388 384.473 513.128C386.82 515.314 388.917 517.754 390.727 520.403C393.971 525.263 396.081 530.789 396.903 536.574C397.163 538.306 397.251 540.059 397.165 541.808C397.165 543.064 397.086 543.744 396.981 543.744Z" fill="#263238"/>
<path d="M548.886 357.144C547.392 343.132 540.676 330.196 530.077 320.91C519.477 311.625 505.77 306.67 491.683 307.032H488.778C457.508 309.649 442.278 337.675 445.784 368.841L454.367 478.485L458.005 482.933C466.171 492.965 477.426 500.014 490.016 502.982C502.606 505.95 515.825 504.67 527.612 499.341L525.204 464.066C525.204 464.066 555.193 458.623 554.774 428.53C554.591 413.928 551.765 384.045 548.886 357.144Z" fill="#FFBE9D"/>
<path d="M525.436 463.985C511.474 464.373 497.694 460.74 485.739 453.518C485.739 453.518 495.552 474.949 525.514 471.469L525.436 463.985Z" fill="#EB996E"/>
<path d="M539.357 381.897C539.386 383.014 538.984 384.101 538.234 384.929C537.483 385.758 536.442 386.265 535.327 386.345C534.781 386.399 534.231 386.344 533.707 386.183C533.183 386.023 532.696 385.759 532.275 385.409C531.853 385.058 531.506 384.627 531.253 384.141C531 383.655 530.846 383.123 530.8 382.577C530.763 381.458 531.163 380.368 531.915 379.538C532.667 378.708 533.712 378.203 534.83 378.129C535.376 378.071 535.928 378.123 536.453 378.283C536.979 378.442 537.467 378.705 537.889 379.057C538.311 379.408 538.658 379.84 538.91 380.328C539.162 380.816 539.314 381.349 539.357 381.897Z" fill="#263238"/>
<path d="M541.268 365.543C540.928 366.066 537.526 366.433 533.418 368.631C529.31 370.829 526.902 373.577 526.353 373.524C525.803 373.472 526.353 372.765 527.373 371.536C528.938 369.8 530.799 368.356 532.868 367.27C534.844 366.166 537.01 365.447 539.253 365.151C540.797 364.994 541.452 365.281 541.268 365.543Z" fill="#263238"/>
<path d="M495.92 384.172C495.97 385.295 495.575 386.392 494.82 387.225C494.066 388.058 493.013 388.559 491.89 388.62C491.344 388.678 490.792 388.625 490.267 388.466C489.741 388.307 489.253 388.043 488.831 387.692C488.409 387.341 488.062 386.909 487.81 386.421C487.558 385.933 487.406 385.4 487.363 384.852C487.327 383.733 487.727 382.643 488.479 381.813C489.231 380.983 490.276 380.478 491.393 380.404C491.939 380.346 492.491 380.398 493.017 380.558C493.542 380.717 494.031 380.98 494.453 381.332C494.875 381.683 495.222 382.115 495.474 382.603C495.726 383.091 495.878 383.624 495.92 384.172Z" fill="#263238"/>
<path d="M495.399 371.848C494.797 371.848 491.997 370.095 487.549 368.996C483.1 367.897 479.411 368.132 479.018 367.766C478.626 367.4 479.489 367.243 481.085 367.112C483.417 366.964 485.757 367.185 488.02 367.766C490.211 368.286 492.298 369.171 494.196 370.383C495.242 371.22 495.556 371.796 495.399 371.848Z" fill="#263238"/>
<path d="M513.399 407.777C515.824 406.968 518.336 406.449 520.883 406.233C522.061 406.233 523.16 405.815 523.343 405.003C523.417 403.791 523.115 402.585 522.479 401.549L518.737 392.626C513.504 379.961 509.788 369.52 510.311 369.336C510.835 369.153 515.545 379.228 520.595 391.893C521.851 395.033 523.055 398.017 524.18 400.869C524.953 402.272 525.212 403.901 524.913 405.474C524.75 405.896 524.494 406.276 524.163 406.584C523.832 406.892 523.435 407.121 523.003 407.254C522.358 407.456 521.689 407.57 521.014 407.594C518.494 407.982 515.935 408.043 513.399 407.777Z" fill="#263238"/>
<path d="M495.398 354.002C494.875 355.232 490.296 354.421 484.931 354.787C479.567 355.153 475.013 356.462 474.464 355.284C474.15 354.735 474.987 353.583 476.793 352.458C479.222 351.076 481.935 350.267 484.724 350.095C487.514 349.923 490.306 350.391 492.886 351.464C494.613 352.38 495.555 353.4 495.398 354.002Z" fill="#263238"/>
<path d="M541.161 355.021C540.141 356.094 536.163 355.021 531.401 355.021C526.638 355.021 522.582 355.832 521.64 354.733C521.221 354.21 521.849 353.137 523.603 352.116C526.02 350.849 528.725 350.227 531.453 350.311C534.204 350.292 536.911 350.996 539.304 352.352C541.031 353.425 541.606 354.524 541.161 355.021Z" fill="#263238"/>
<path d="M557.651 330.4C557.386 329.026 556.628 327.797 555.519 326.944C554.41 326.09 553.028 325.672 551.632 325.768C553.136 325.339 554.541 324.619 555.767 323.648C556.376 323.157 556.835 322.503 557.089 321.762C557.344 321.021 557.384 320.224 557.206 319.461C556.421 317.132 553.438 316.635 551.083 315.981C547.991 315.083 545.251 313.256 543.232 310.747C540.38 307.136 539.281 302.426 536.795 298.527C535.189 296.01 533.04 293.885 530.504 292.308C527.969 290.732 525.112 289.744 522.144 289.418C519.177 289.091 516.174 289.435 513.356 290.422C510.539 291.41 507.979 293.017 505.864 295.125C503.555 292.752 500.713 290.964 497.574 289.91C494.435 288.856 491.09 288.566 487.817 289.065C484.544 289.564 481.437 290.838 478.754 292.779C476.072 294.721 473.892 297.274 472.395 300.228C468.381 298.554 463.991 297.99 459.684 298.595C455.376 299.2 451.311 300.952 447.914 303.667C444.516 306.383 441.911 309.962 440.371 314.029C438.832 318.097 438.414 322.504 439.162 326.788L457.898 338.276C458.05 336.851 458.503 335.475 459.226 334.238C459.95 333.001 460.928 331.931 462.095 331.1C463.263 330.269 464.593 329.695 465.999 329.417C467.405 329.138 468.853 329.161 470.25 329.484C475.902 331.132 479.513 337.674 485.375 338.119C489.954 338.459 493.853 334.927 498.276 333.749C503.64 332.31 509.318 334.456 514.16 337.177C519.001 339.899 523.632 343.3 529.023 344.661C535.462 345.952 542.145 345.154 548.099 342.384C550.743 341.457 553.154 339.966 555.165 338.014C556.156 337.035 556.899 335.833 557.332 334.509C557.764 333.184 557.873 331.775 557.651 330.4Z" fill="#263238"/>
<path d="M461.065 329.43L546.897 328.959C543.8 323.191 539.3 318.295 533.813 314.724C522.415 306.395 508.677 301.88 494.56 301.823C480.561 301.823 452.561 319.8 442.695 329.718C434.845 337.568 435.054 344.346 435.054 344.346C434.06 355.493 440.628 367.897 443.428 378.809C444.841 384.409 447.798 401.366 447.798 401.366C452.508 401.235 454.157 397.414 453.32 392.757L451.933 374.439C456.564 370.575 459.809 365.306 461.173 359.431C462.538 353.556 461.949 347.396 459.495 341.886C458.318 340.264 455.492 332.701 461.065 329.43Z" fill="#263238"/>
<path d="M450.703 373.237C446.333 358.059 442.303 341.835 446.961 326.658H444.344L443.298 327.417C440.878 326.603 438.262 326.582 435.83 327.356C433.397 328.13 431.275 329.659 429.77 331.721C428.265 333.783 427.456 336.271 427.461 338.823C427.465 341.376 428.283 343.861 429.795 345.917C427.243 345.895 424.771 346.805 422.844 348.477C420.916 350.15 419.666 352.468 419.328 354.998C419.336 358.522 420.304 361.978 422.128 364.994C423.955 368.019 425.073 371.419 425.399 374.938C425.509 376.69 424.997 378.425 423.953 379.837C422.91 381.249 421.401 382.248 419.694 382.657C420.521 384.442 421.938 385.888 423.706 386.751C425.475 387.614 427.486 387.841 429.402 387.394C428.18 390.377 426.139 392.953 423.515 394.825C429.114 398.646 436.782 397.442 442.853 394.38C446.619 392.866 449.694 390.014 451.488 386.373C453.163 382.16 451.907 377.528 450.703 373.237Z" fill="#263238"/>
<path d="M449.29 390.95C448.767 390.74 428.356 385.376 429.638 405.918C430.92 426.46 451.226 421.043 451.226 420.441C451.226 419.839 449.29 390.95 449.29 390.95Z" fill="#FFBE9D"/>
<path d="M446.309 412.985C446.309 412.985 445.969 413.246 445.367 413.56C444.554 413.964 443.617 414.039 442.75 413.77C440.526 413.089 438.511 409.766 438.197 406.05C438.039 404.275 438.28 402.486 438.904 400.817C439.07 400.156 439.396 399.546 439.852 399.04C440.308 398.534 440.881 398.147 441.52 397.912C441.927 397.785 442.364 397.802 442.759 397.959C443.154 398.117 443.484 398.405 443.692 398.775C444.006 399.325 443.875 399.744 444.006 399.796C444.137 399.848 444.425 399.403 444.216 398.566C444.047 398.077 443.738 397.649 443.326 397.336C443.036 397.134 442.708 396.992 442.361 396.92C442.015 396.848 441.658 396.847 441.311 396.917C440.478 397.136 439.714 397.563 439.092 398.158C438.469 398.753 438.008 399.497 437.752 400.319C436.997 402.158 436.683 404.147 436.836 406.129C437.229 410.263 439.453 413.979 442.593 414.712C443.151 414.834 443.728 414.832 444.285 414.705C444.841 414.579 445.362 414.331 445.812 413.979C446.309 413.482 446.388 413.011 446.309 412.985Z" fill="#EB996E"/>
<path d="M427.957 373.913C427.957 373.913 427.382 373.128 427.565 371.506C427.784 370.405 428.242 369.366 428.907 368.461C429.571 367.557 430.426 366.81 431.411 366.272C434.36 364.868 437.568 364.093 440.832 363.995C442.658 363.996 444.459 363.564 446.087 362.737C447.715 361.909 449.124 360.708 450.2 359.233C451.909 355.905 452.479 352.108 451.823 348.425C451.325 344.971 450.409 341.857 449.965 339.162C449.136 336.274 449.181 333.205 450.095 330.343C450.114 333.23 450.438 336.108 451.064 338.926C451.639 341.543 452.66 344.605 453.288 348.242C454.078 352.266 453.469 356.44 451.561 360.07C450.426 361.947 448.707 363.399 446.667 364.205C444.841 364.882 442.931 365.305 440.989 365.461C437.894 365.479 434.831 366.083 431.961 367.24C431.062 367.702 430.264 368.338 429.613 369.111C428.962 369.883 428.47 370.777 428.167 371.741C428.049 372.46 427.979 373.185 427.957 373.913Z" fill="#455A64"/>
<path d="M422.993 364.99C422.993 364.99 422.548 364.414 422.365 363.132C422.154 361.324 422.51 359.495 423.386 357.898C423.986 356.764 424.815 355.766 425.819 354.967C426.993 354.087 428.34 353.462 429.771 353.136C431.159 352.838 432.48 352.288 433.67 351.513C434.196 351.043 434.608 350.46 434.875 349.807C435.143 349.154 435.258 348.449 435.214 347.745C435.214 346.201 435.03 344.553 435.083 342.904C435.104 341.329 435.28 339.761 435.606 338.22C436.134 335.617 437.137 333.133 438.563 330.893C439.017 330.071 439.669 329.375 440.459 328.868C441.249 328.36 442.154 328.058 443.09 327.988C444.451 327.988 445.027 328.616 444.974 328.669C444.922 328.721 444.294 328.433 443.142 328.669C442.356 328.837 441.618 329.184 440.987 329.683C440.357 330.182 439.849 330.82 439.505 331.547C438.324 333.742 437.494 336.108 437.045 338.56C436.792 340.012 436.661 341.483 436.653 342.956C436.653 344.474 436.888 346.097 436.81 347.876C436.848 348.807 436.672 349.735 436.296 350.588C435.919 351.441 435.352 352.196 434.638 352.796C433.287 353.7 431.763 354.315 430.163 354.601C428.971 354.805 427.837 355.26 426.835 355.937C425.833 356.614 424.988 357.497 424.354 358.526C423.279 360.502 422.806 362.749 422.993 364.99Z" fill="#455A64"/>
<path d="M543.26 310.749C543.391 310.749 541.716 311.874 539.021 310.618C537.503 309.795 536.175 308.663 535.122 307.295C533.825 305.593 532.207 304.162 530.359 303.082C527.957 301.731 525.213 301.108 522.462 301.289C519.711 301.471 517.073 302.448 514.868 304.102C512.251 305.934 510.079 308.525 507.018 310.671C505.461 311.825 503.677 312.637 501.784 313.052C499.825 313.395 497.809 313.205 495.949 312.502C492.233 311.168 489.302 308.891 486.109 307.74C483.029 306.557 479.753 305.962 476.453 305.987C470.769 305.979 465.244 307.867 460.753 311.351C457.752 313.695 455.259 316.624 453.425 319.96C452.143 322.341 451.672 323.807 451.541 323.755C451.411 323.702 451.541 323.362 451.751 322.656C452.047 321.637 452.414 320.64 452.85 319.672C454.54 316.109 456.997 312.963 460.046 310.461C464.639 306.707 470.365 304.614 476.296 304.521C479.789 304.43 483.265 305.026 486.528 306.274C489.982 307.53 492.965 309.807 496.341 310.985C497.94 311.601 499.676 311.772 501.365 311.482C503.003 311.106 504.545 310.393 505.892 309.388C508.64 307.426 510.943 304.835 513.743 302.899C516.331 300.959 519.484 299.921 522.718 299.942C525.477 299.962 528.183 300.702 530.569 302.088C532.48 303.306 534.14 304.878 535.462 306.719C536.379 308.064 537.564 309.204 538.943 310.069C540.241 310.841 541.787 311.085 543.26 310.749Z" fill="#455A64"/>
<path d="M501.993 413.167C502.647 413.167 503.38 417.406 507.672 419.892C511.963 422.378 516.543 421.122 516.7 421.724C516.857 422.326 515.784 422.771 513.821 423.137C511.256 423.613 508.606 423.168 506.337 421.881C504.164 420.623 502.554 418.582 501.836 416.176C501.365 414.371 501.679 413.193 501.993 413.167Z" fill="#263238"/>
<path d="M772.78 822.038C764.813 815.193 754.475 811.754 743.995 812.46L726.306 868.643C739.259 869.219 752.186 875.892 764.694 872.464C769.69 870.923 774.14 867.986 777.52 863.998C780.9 860.011 783.069 855.139 783.771 849.959C784.315 844.765 783.6 839.516 781.687 834.656C779.774 829.796 776.719 825.468 772.78 822.038Z" fill="#0B56A4"/>
<path d="M744.205 811.184C744.205 810.74 746.115 810.373 749.439 810.399C754.383 810.49 759.276 811.419 763.91 813.147C770.99 815.906 777.117 820.66 781.547 826.833C784.254 830.494 786.251 834.63 787.435 839.027C788.716 843.839 788.859 848.883 787.854 853.76C786.879 858.702 784.674 863.319 781.442 867.184C778.347 870.704 774.427 873.401 770.033 875.034C762.894 877.559 755.195 878.057 747.79 876.473C743.025 875.54 738.375 874.092 733.921 872.156C730.807 870.821 729.159 869.827 729.316 869.382C729.473 868.937 731.357 869.068 734.549 869.617C737.742 870.167 742.583 871.188 748.34 871.711C754.869 872.435 761.475 871.536 767.573 869.094C770.917 867.681 773.877 865.492 776.209 862.709C778.654 859.665 780.324 856.073 781.076 852.242C781.794 848.444 781.741 844.541 780.918 840.764C780.095 836.988 778.52 833.415 776.287 830.261C772.681 824.799 767.723 820.364 761.895 817.386C757.765 815.437 753.44 813.928 748.994 812.885C745.985 812.205 744.153 811.655 744.205 811.184Z" fill="#F5F5F5"/>
<path d="M580.313 1021.96L541.846 1129.75L675.696 1178.29C679.568 1165.21 619.618 1114.44 619.618 1114.44L647.094 1046.4L580.313 1021.96Z" fill="#0B56A4"/>
<g opacity="0.6">
<path d="M580.34 1093.64C578.91 1093.56 577.501 1094.02 576.386 1094.91C575.27 1095.81 574.526 1097.09 574.295 1098.51C574.167 1099.93 574.589 1101.35 575.476 1102.47C576.362 1103.59 577.644 1104.32 579.058 1104.52C580.583 1104.61 582.084 1104.11 583.265 1103.15C584.446 1102.18 585.223 1100.8 585.443 1099.29C585.443 1096.44 582.617 1093.17 579.791 1093.56" fill="white"/>
</g>
<path d="M541.846 1129.75L545.745 1118.89L672.869 1169.6C672.869 1169.6 677.894 1174.34 675.696 1178.29L541.846 1129.75Z" fill="white"/>
<path d="M622.049 1114.55C621.788 1115.2 618.412 1114.31 614.434 1115.25C610.457 1116.19 607.735 1118.31 607.238 1117.87C606.741 1117.42 609.07 1113.97 613.911 1112.92C618.752 1111.88 622.389 1114 622.049 1114.55Z" fill="#263238"/>
<path d="M634.089 1125.46C634.089 1126.14 630.766 1126.22 627.547 1128.08C624.329 1129.93 622.628 1132.73 621.974 1132.47C621.319 1132.21 622.261 1128.36 626.317 1125.98C630.374 1123.6 634.089 1124.83 634.089 1125.46Z" fill="#263238"/>
<path d="M635.84 1145.14C635.212 1145.14 635.474 1141.47 638.457 1138.49C641.44 1135.51 644.999 1135.22 645.077 1135.87C645.156 1136.53 642.591 1137.73 640.184 1140.22C637.777 1142.7 636.521 1145.32 635.84 1145.14Z" fill="#263238"/>
<path d="M626.576 1098.35C626.079 1098.85 623.41 1096.86 619.642 1095.73C615.873 1094.61 612.55 1094.76 612.419 1094.08C612.288 1093.4 615.873 1092.07 620.27 1093.43C624.666 1094.79 627.1 1097.96 626.576 1098.35Z" fill="#263238"/>
<path d="M629.142 1081.32C626.739 1081.1 624.435 1080.26 622.47 1078.86C620.202 1077.56 618.109 1075.97 616.242 1074.15C615.125 1073.08 614.084 1071.93 613.128 1070.72C612.525 1070.03 612.03 1069.25 611.662 1068.41C611.399 1067.8 611.352 1067.11 611.527 1066.46C611.703 1065.81 612.091 1065.23 612.63 1064.83C613.122 1064.49 613.686 1064.28 614.276 1064.19C614.866 1064.11 615.468 1064.17 616.032 1064.36C616.881 1064.66 617.683 1065.09 618.414 1065.61C619.721 1066.49 620.947 1067.48 622.077 1068.57C623.968 1070.4 625.558 1072.52 626.787 1074.85C628.132 1076.89 628.817 1079.29 628.75 1081.73C628.384 1081.73 627.599 1079.25 625.322 1075.72C623.971 1073.68 622.371 1071.83 620.559 1070.19C619.487 1069.23 618.341 1068.36 617.131 1067.58C615.849 1066.69 614.645 1066.24 614.07 1066.74C613.494 1067.24 613.782 1067.03 613.939 1067.55C614.211 1068.17 614.572 1068.74 615.012 1069.25C615.87 1070.41 616.805 1071.51 617.812 1072.55C619.51 1074.34 621.376 1075.96 623.386 1077.39C626.84 1079.88 629.299 1080.98 629.142 1081.32Z" fill="#263238"/>
<path d="M627.959 1081.99C627.392 1079.62 627.593 1077.13 628.535 1074.87C629.328 1072.35 630.539 1069.98 632.12 1067.86C633.068 1066.62 634.128 1065.46 635.286 1064.41C635.975 1063.66 636.843 1063.1 637.809 1062.78C638.776 1062.46 639.807 1062.39 640.807 1062.58C641.399 1062.81 641.911 1063.21 642.286 1063.72C642.661 1064.24 642.883 1064.85 642.927 1065.48C642.976 1066.36 642.905 1067.24 642.718 1068.1C642.306 1070.22 641.473 1072.24 640.269 1074.04C639.064 1075.84 637.513 1077.38 635.705 1078.56C631.832 1081.18 628.822 1080.87 628.849 1080.63C628.875 1080.4 631.465 1079.79 634.71 1077.18C636.556 1075.67 638.055 1073.79 639.107 1071.66C639.716 1070.41 640.148 1069.09 640.389 1067.73C640.703 1066.24 640.572 1064.88 639.996 1064.85C639.407 1064.83 638.82 1064.94 638.277 1065.17C637.734 1065.4 637.249 1065.75 636.856 1066.19C635.771 1067.11 634.772 1068.12 633.873 1069.22C632.339 1071.1 631.087 1073.19 630.157 1075.42C628.535 1079.38 628.351 1081.99 627.959 1081.99Z" fill="#263238"/>
<path d="M450.654 734.116C430.348 734.587 411.088 737.439 397.088 752.172C378.535 771.719 355.612 799.536 354.303 818.822C352.367 847.606 369.769 856.242 382.46 863.307C388.074 866.343 394.4 867.816 400.778 867.573L635.453 865.793L642.806 826.044L491.031 788.624L497.338 731.499L450.654 734.116Z" fill="#263238"/>
<path d="M497.464 731.472L571.284 728.07C571.284 728.07 698.827 735.162 726.016 760.1C753.204 785.038 749.829 813.378 740.748 840.566C731.668 867.755 651.777 1041.75 651.777 1041.75C651.777 1041.75 658.267 1052.82 654.629 1063.86C653.158 1068.69 650.454 1073.07 646.784 1076.54C643.114 1080.02 638.604 1082.48 633.695 1083.69L562.727 1057.53C562.727 1057.53 553.098 1054.12 559.901 1045.04C566.705 1035.96 571.232 1034.29 571.232 1034.29V1016.15C571.232 1016.15 596.17 970.805 598.421 964.577C600.671 958.349 624.589 866.08 624.589 866.08L640.473 838.787C640.473 838.787 602.084 820.731 568.798 807.647L491.079 788.492L497.464 731.472Z" fill="#263238"/>
<path d="M617.21 1054.33C615.063 1053.09 612.984 1051.72 610.982 1050.25C600.956 1043.76 589.664 1039.47 577.854 1037.67C575.377 1037.43 572.914 1037.06 570.474 1036.57C572.964 1036.28 575.48 1036.32 577.958 1036.7C590.063 1037.99 601.628 1042.39 611.532 1049.47C613.63 1050.83 615.54 1052.47 617.21 1054.33Z" fill="#455A64"/>
<path d="M652.667 1041.88C651.12 1040.61 649.739 1039.15 648.559 1037.53C646.152 1034.73 642.959 1030.76 639.636 1026.2C636.312 1021.65 633.434 1017.44 631.471 1014.32C630.301 1012.69 629.318 1010.94 628.541 1009.09C629.946 1010.51 631.192 1012.08 632.256 1013.77L640.735 1025.39C643.901 1029.68 646.806 1033.56 649.318 1036.93C650.611 1038.45 651.734 1040.11 652.667 1041.88Z" fill="#455A64"/>
<path d="M678.574 813.982C678.574 814.192 675.957 814.767 671.849 816.128C661.091 819.678 651.344 825.763 643.431 833.87C641.886 835.652 640.253 837.355 638.537 838.973C639.644 836.859 641.054 834.92 642.724 833.216C646.531 828.917 650.937 825.189 655.808 822.147C660.676 819.083 665.965 816.747 671.509 815.212C673.788 814.448 676.17 814.033 678.574 813.982Z" fill="#455A64"/>
<path d="M606.085 937.181C606.116 936.656 606.213 936.137 606.373 935.637L607.472 931.319L611.712 915.487L626.235 863.387C629.192 853.208 631.704 843.525 634.556 834.733C637.568 827.093 642.119 820.154 647.928 814.348C651.763 810.415 656.009 806.906 660.593 803.881C662.242 802.834 663.524 802.049 664.44 801.578C664.879 801.3 665.344 801.063 665.827 800.872C665.827 800.872 664.048 802.075 660.907 804.3C656.474 807.465 652.356 811.049 648.608 815.002C643.005 820.784 638.626 827.638 635.734 835.152C633.117 843.813 630.5 853.626 627.543 863.753L612.654 915.723C610.717 922.239 609.121 927.551 607.97 931.424C607.42 933.151 607.001 934.564 606.635 935.663C606.521 936.191 606.336 936.702 606.085 937.181Z" fill="#455A64"/>
<path d="M540.801 804.273C540.408 804.273 538.865 790.509 537.321 773.447C535.777 756.385 534.704 742.516 535.227 742.49C535.751 742.464 537.137 756.255 538.681 773.316C540.225 790.378 541.167 804.247 540.801 804.273Z" fill="#455A64"/>
<path d="M417.914 841.25C417.705 841.25 416.579 839.131 414.251 835.86C411.244 831.605 407.639 827.806 403.548 824.581C399.424 821.397 394.869 818.816 390.019 816.914C386.277 815.449 383.843 814.899 383.896 814.664C386.098 814.767 388.271 815.217 390.333 815.998C400.566 819.372 409.308 826.199 415.062 835.31C416.332 837.12 417.296 839.127 417.914 841.25Z" fill="#455A64"/>
<path d="M463.131 791.008C463.131 791.217 459.886 789.228 454.469 786.742C440.257 780.286 424.493 778.034 409.042 780.253C403.154 781.09 399.569 782.137 399.516 781.901C400.278 781.471 401.097 781.154 401.95 780.959C404.224 780.256 406.54 779.696 408.885 779.285C424.513 776.542 440.609 778.852 454.836 785.879C456.968 786.931 459.031 788.12 461.011 789.438C461.787 789.86 462.501 790.388 463.131 791.008Z" fill="#455A64"/>
<path d="M639.924 825.964C639.295 825.933 638.671 825.827 638.066 825.65L632.833 824.525L613.73 820.312C597.585 816.701 575.237 811.833 550.456 806.94C525.675 802.047 503.17 797.99 486.868 795.19L467.529 791.867L462.296 790.951C461.678 790.879 461.071 790.729 460.49 790.506C461.112 790.524 461.732 790.576 462.348 790.663L467.582 791.344C472.161 791.972 478.782 792.966 486.972 794.248C503.327 796.865 525.884 800.686 550.691 805.605C575.499 810.525 597.794 815.523 613.913 819.37C621.947 821.306 628.463 822.929 632.938 824.106L638.171 825.467C638.769 825.579 639.356 825.746 639.924 825.964Z" fill="#455A64"/>
<path d="M491.16 795.324C490.899 795.324 490.349 792.236 487.915 787.84C486.491 785.303 484.731 782.97 482.682 780.905C480.097 778.36 477.353 775.983 474.465 773.788C469.144 769.856 463.517 766.356 457.639 763.32C455.152 762.138 452.755 760.773 450.469 759.238C453.102 760.071 455.652 761.149 458.084 762.457C464.157 765.273 469.926 768.701 475.302 772.689C478.23 774.922 480.993 777.361 483.572 779.989C485.673 782.166 487.437 784.644 488.805 787.343C489.745 789.167 490.457 791.101 490.925 793.1C491.14 793.82 491.22 794.574 491.16 795.324Z" fill="#455A64"/>
<path d="M752.547 830.782C752.835 831.096 748.91 835.047 745.848 841.092C742.787 847.137 741.792 852.58 741.4 852.501C741.391 848.271 742.511 844.116 744.645 840.464C746.38 836.596 749.106 833.256 752.547 830.782Z" fill="#263238"/>
<g opacity="0.3">
<path d="M584.577 562.666L601.377 680.998L602.215 682.882C606.155 641.973 600.102 600.719 584.577 562.666Z" fill="black"/>
</g>
<path d="M675.041 630.648L620.428 726.109L485.846 729.04L485.506 735.137L615.823 734.169L619.957 734.012L757.549 734.3L785.365 686.334L820.901 635.411C821.416 634.655 821.714 633.774 821.764 632.861C821.814 631.949 821.615 631.04 821.187 630.232C820.759 629.424 820.119 628.749 819.335 628.278C818.552 627.807 817.655 627.559 816.741 627.561L679.385 628.084C678.499 628.09 677.63 628.331 676.868 628.782C676.105 629.232 675.475 629.876 675.041 630.648Z" fill="#E0E0E0"/>
<path d="M785.363 686.411C785.363 686.411 792.429 692.901 791.33 698.396C790.231 703.891 790.571 708 785.363 708.366C785.46 710.377 784.781 712.348 783.467 713.872C782.152 715.397 780.301 716.358 778.298 716.557C778.298 716.557 779.894 725.192 769.846 726.684C769.846 726.684 766.758 735.921 760.425 733.671C756.776 732.43 753.267 730.807 749.958 728.83L748.1 725.48C748.1 725.48 738.758 721.973 741.061 716.714C742.474 713.521 747.289 712.684 747.289 712.684C746.735 711.373 746.5 709.949 746.605 708.529C746.709 707.109 747.15 705.735 747.891 704.519C750.115 701.51 757.39 703.996 757.39 703.996C757.239 701.419 758.061 698.879 759.693 696.878C762.309 693.921 773.771 701.903 773.771 701.903L780.077 694.366L785.363 686.411Z" fill="#FFBE9D"/>
<path d="M769.849 726.685C765.768 724.947 761.875 722.799 758.23 720.274C754.347 718.13 750.698 715.587 747.344 712.685C751.421 714.439 755.313 716.596 758.963 719.122C762.836 721.271 766.484 723.804 769.849 726.685Z" fill="#EB996E"/>
<path d="M778.302 716.559C774.506 715.067 770.89 713.153 767.521 710.854C763.92 708.947 760.542 706.647 757.446 703.998C761.248 705.477 764.866 707.392 768.227 709.703C771.828 711.61 775.206 713.91 778.302 716.559Z" fill="#EB996E"/>
<path d="M766.785 697.615C766.995 697.222 771.312 699.499 776.336 702.691C779.451 704.489 782.449 706.482 785.312 708.658C785.129 709.103 780.628 707.061 775.604 703.843C772.453 702.083 769.497 699.995 766.785 697.615Z" fill="#EB996E"/>
<path d="M820.906 631.227C820.689 631.261 820.468 631.261 820.252 631.227H818.315H810.883L783.564 631.436L693.415 631.645H686.847C685.879 631.553 684.905 631.723 684.025 632.138C683.146 632.552 682.394 633.196 681.849 634.001C679.756 637.734 677.714 641.415 675.726 645.043L664.107 665.978L644.403 701.383C638.803 711.379 634.223 719.491 631.005 725.222C629.461 727.839 628.205 730.089 627.315 731.659L626.32 733.308L625.954 733.858C625.954 733.858 625.954 733.622 626.19 733.23L627.079 731.502L630.56 724.96L643.644 700.912L663.113 665.35C666.776 658.677 670.649 651.664 674.627 644.415L680.776 633.294C681.447 632.298 682.369 631.498 683.449 630.974C684.529 630.45 685.729 630.221 686.926 630.311H693.494L783.643 630.494L810.962 630.73L818.394 630.86H820.33C820.541 630.95 820.736 631.074 820.906 631.227Z" fill="#263238"/>
<path d="M724.079 679.24C723.443 680.159 723.087 681.242 723.052 682.359C723.017 683.476 723.305 684.58 723.881 685.537C724.457 686.495 725.298 687.265 726.301 687.757C727.304 688.249 728.428 688.442 729.538 688.311C730.648 688.18 731.697 687.732 732.558 687.02C733.42 686.308 734.058 685.363 734.396 684.298C734.734 683.233 734.757 682.093 734.464 681.015C734.17 679.937 733.572 678.966 732.74 678.219C731.453 677.215 729.821 676.759 728.2 676.95C726.578 677.141 725.097 677.964 724.079 679.24Z" fill="white"/>
<g opacity="0.3">
<path d="M342.023 642.371C340.872 642.842 339.537 643.627 339.537 644.988C339.579 645.494 339.79 645.97 340.137 646.341C340.484 646.711 340.945 646.954 341.447 647.029C343.367 646.757 345.247 646.256 347.047 645.537C361.204 642.423 372.849 645.406 386.299 650.771L386.744 650.326C381.406 638.734 357.253 636.169 342.023 642.371Z" fill="black"/>
</g>
<path d="M1071.1 1173.58C1071.1 1173.95 834.409 1174.26 542.505 1174.26C250.6 1174.26 13.9106 1173.84 13.9106 1173.58C13.9106 1173.32 250.548 1172.9 542.505 1172.9C834.461 1172.9 1071.1 1173.09 1071.1 1173.58Z" fill="#263238"/>
<path d="M268.835 339.375C269.28 339.819 356.184 309.962 356.184 309.962L322.689 233.29L245.415 262.938L287.964 287.379L268.835 339.375Z" fill="#455A64"/>
<path d="M309.606 256.371V151.987C309.606 151.987 429.482 130.058 515.862 131.366C602.243 132.675 691.188 146.832 691.188 146.832V247.055C691.188 247.055 420.454 222.876 309.606 256.371Z" fill="#455A64"/>
<path d="M308.978 256.471L356.08 310.403V247.05C356.08 247.05 316.697 251.761 308.978 256.471Z" fill="#263238"/>
<path d="M309.605 151.96C309.997 151.96 310.154 175.512 309.997 204.296C309.84 233.081 309.369 256.632 309.003 256.632C308.637 256.632 308.453 233.238 308.61 204.296C308.767 175.355 309.212 151.96 309.605 151.96Z" fill="#263238"/>
<path d="M731.744 331.366C731.299 331.81 644.395 301.953 644.395 301.953L677.812 225.254L755.164 254.85L712.589 279.291L731.744 331.366Z" fill="#455A64"/>
<path d="M691.66 248.465L644.558 302.397V243.624C660.35 244.165 676.088 245.782 691.66 248.465Z" fill="#263238"/>
<path d="M691.137 146.829C691.503 146.829 691.922 169.569 692.053 197.647C692.184 225.725 692.053 248.465 691.608 248.465C691.163 248.465 690.823 225.725 690.692 197.647C690.561 169.569 690.744 146.829 691.137 146.829Z" fill="#263238"/>
<path d="M377.198 197.752C376.951 194.747 377.595 191.736 379.051 189.095C380.506 186.454 382.708 184.301 385.38 182.904C388.053 181.508 391.077 180.931 394.076 181.244C397.075 181.558 399.915 182.749 402.241 184.668L398.577 189.064C397.591 188.164 396.418 187.493 395.143 187.1C393.867 186.706 392.52 186.6 391.198 186.788C388.852 187.114 386.732 188.359 385.304 190.248C383.876 192.137 383.257 194.517 383.583 196.862C383.909 199.208 385.154 201.328 387.043 202.756C388.933 204.184 391.312 204.803 393.658 204.477C394.988 204.302 396.262 203.831 397.385 203.097C398.509 202.363 399.453 201.386 400.147 200.238L404.753 203.457C403.047 205.939 400.646 207.863 397.851 208.987C395.057 210.111 391.993 210.386 389.043 209.777C386.093 209.168 383.388 207.703 381.267 205.563C379.146 203.424 377.703 200.707 377.12 197.752H377.198Z" fill="white"/>
<path d="M405.745 193.827C405.258 190.805 405.689 187.708 406.982 184.934C408.276 182.161 410.372 179.84 413 178.271C415.628 176.703 418.666 175.96 421.721 176.138C424.776 176.316 427.707 177.407 430.135 179.27C432.563 181.133 434.376 183.681 435.338 186.586C436.301 189.491 436.37 192.618 435.535 195.562C434.7 198.506 433.001 201.132 430.657 203.099C428.313 205.067 425.432 206.285 422.388 206.597C420.449 206.906 418.468 206.817 416.565 206.335C414.661 205.852 412.877 204.987 411.319 203.792C409.761 202.597 408.464 201.097 407.505 199.384C406.547 197.67 405.948 195.779 405.745 193.827ZM429.584 191.367C429.371 189.669 428.663 188.071 427.549 186.773C426.434 185.475 424.962 184.534 423.315 184.067C421.669 183.6 419.922 183.628 418.291 184.148C416.661 184.667 415.22 185.655 414.147 186.989C413.075 188.322 412.419 189.942 412.261 191.646C412.103 193.349 412.45 195.062 413.259 196.57C414.068 198.078 415.303 199.314 416.81 200.124C418.317 200.935 420.03 201.284 421.734 201.128C422.909 201.05 424.055 200.73 425.099 200.187C426.144 199.643 427.065 198.889 427.802 197.971C428.54 197.054 429.08 195.993 429.387 194.856C429.693 193.719 429.76 192.531 429.584 191.367Z" fill="white"/>
<path d="M467.426 202.541L466.301 185.846L459 200.133L456.122 200.317L447.094 187.442L448.167 203.771L442.122 204.163L440.447 176.347L445.681 176.006L457.195 192.623L466.327 174.698L471.561 174.358L473.445 202.148L467.426 202.541Z" fill="white"/>
<path d="M503.459 183.491C503.616 189.719 499.063 193.697 491.631 193.958L486.005 194.115L486.24 201.809L479.777 201.992L478.992 173.966L491.055 173.626C498.513 173.521 503.25 177.263 503.459 183.491ZM496.917 183.674C496.917 180.613 494.797 178.885 490.846 178.99L485.612 179.147L485.9 188.829L491.134 188.672C495.059 188.568 496.996 186.71 496.917 183.674Z" fill="white"/>
<path d="M508.484 173.364H514.921V195.973H528.895V201.207H508.484V173.364Z" fill="white"/>
<path d="M553.883 196.785V202.019L532.294 201.391L533.105 173.522L554.04 174.15L553.883 179.384L539.229 178.939L539.072 185.01L551.999 185.376L551.842 190.4L538.915 190.008L538.732 196.471L553.883 196.785Z" fill="white"/>
<path d="M565.818 179.985L556.92 179.462L557.234 174.228L581.466 175.693L581.152 180.927L572.255 180.377L570.894 202.96L564.457 202.568L565.818 179.985Z" fill="white"/>
<path d="M604.94 200.605L604.469 205.839L582.959 203.85L585.576 176.112L606.51 178.048L606.039 183.282L591.437 181.816L590.888 187.861L603.762 189.039L603.317 194.037L590.417 192.859L589.841 199.27L604.94 200.605Z" fill="white"/>
<path d="M613 178.649L625.534 180.324C634.562 181.528 640.031 187.782 638.932 196.025C637.833 204.268 630.872 209.109 621.844 207.801L609.31 206.126L613 178.649ZM622.237 202.645C623.376 202.828 624.54 202.781 625.66 202.507C626.781 202.232 627.835 201.736 628.76 201.047C629.686 200.359 630.464 199.491 631.049 198.497C631.634 197.503 632.013 196.401 632.165 195.258C632.318 194.114 632.239 192.952 631.934 191.839C631.63 190.727 631.105 189.686 630.392 188.78C629.679 187.873 628.791 187.119 627.782 186.561C626.772 186.003 625.661 185.653 624.513 185.532L618.678 184.747L616.401 201.86L622.237 202.645Z" fill="white"/>
<path d="M744.755 156.327L751.611 164.361L770.923 156.327L765.271 147.875L744.755 156.327Z" fill="#455A64"/>
<path d="M735.905 118.098C735.905 120.086 735.316 122.028 734.211 123.681C733.107 125.333 731.538 126.621 729.702 127.382C727.866 128.142 725.845 128.341 723.896 127.954C721.947 127.566 720.156 126.609 718.751 125.204C717.346 123.798 716.389 122.008 716.001 120.059C715.613 118.109 715.812 116.089 716.573 114.253C717.333 112.417 718.621 110.847 720.274 109.743C721.926 108.639 723.869 108.05 725.856 108.05C728.519 108.057 731.071 109.118 732.954 111.001C734.837 112.884 735.898 115.435 735.905 118.098Z" fill="#0B56A4"/>
<path d="M510.805 267.989C510.8 268.985 510.499 269.957 509.94 270.781C509.381 271.606 508.59 272.245 507.667 272.619C506.744 272.993 505.731 273.084 504.756 272.881C503.781 272.677 502.888 272.189 502.191 271.478C501.495 270.766 501.025 269.863 500.842 268.884C500.659 267.905 500.772 266.894 501.165 265.979C501.558 265.064 502.214 264.287 503.05 263.745C503.886 263.204 504.864 262.923 505.86 262.939C507.183 262.959 508.445 263.501 509.371 264.447C510.297 265.393 510.812 266.665 510.805 267.989Z" fill="#0B56A4"/>
<path d="M276.738 192.466C276.737 193.224 276.512 193.965 276.09 194.594C275.668 195.224 275.068 195.713 274.367 196.001C273.666 196.288 272.895 196.361 272.152 196.209C271.41 196.058 270.729 195.688 270.197 195.149C269.665 194.609 269.305 193.924 269.164 193.179C269.022 192.435 269.105 191.665 269.403 190.968C269.7 190.271 270.198 189.678 270.833 189.264C271.468 188.851 272.212 188.635 272.969 188.646C273.973 188.66 274.932 189.068 275.637 189.783C276.342 190.498 276.738 191.462 276.738 192.466Z" fill="#0B56A4"/>
<path d="M262.556 150.414L273.808 151.094L279.146 128.956L268.627 129.401L262.556 150.414Z" fill="#455A64"/>
<path d="M614.251 327.126L618.046 337.75L640.498 333.982L635.971 324.483L614.251 327.126Z" fill="#0B56A4"/>
<path d="M387.169 265.814L380.234 274.711L395.438 291.642L401.038 282.718L387.169 265.814Z" fill="#455A64"/>
<path d="M360.285 56.8101L386.846 83.8939L424.24 69.7632L425.731 79.0528L409.533 112.208L424.475 136.963L423.219 144.368L387.029 138.271L365.623 161.744L360.599 157.949L356.177 128.092L322.42 110.507L320.928 103.677L354.921 94.3873L360.285 56.8101Z" fill="#0B56A4"/>
<g opacity="0.3">
<path d="M360.283 56.8101L386.844 83.8939L424.238 69.7632L425.729 79.0528L409.531 112.208L424.473 136.963L423.217 144.368L387.027 138.271L365.622 161.744L360.597 157.949L356.175 128.092L322.418 110.507L320.927 103.677L354.919 94.3873L360.283 56.8101Z" fill="black"/>
</g>
<path d="M360.285 49.1982L386.846 76.3083L424.24 69.7663L406.681 103.418L424.475 136.966L387.029 130.685L360.599 157.952L355.025 120.401L320.928 103.68L354.921 86.7755L360.285 49.1982Z" fill="#0B56A4"/>
<path d="M635.714 56.8101L609.127 83.8939L571.733 69.7632L570.241 79.0528L586.439 112.208L571.497 136.963L572.753 144.368L608.944 138.271L630.349 161.744L635.373 157.949L639.796 128.092L673.553 110.507L675.044 103.677L641.052 94.3873L635.714 56.8101Z" fill="#0B56A4"/>
<g opacity="0.3">
<path d="M635.714 56.8101L609.127 83.8939L571.733 69.7632L570.241 79.0528L586.439 112.208L571.497 136.963L572.754 144.368L608.944 138.271L630.349 161.744L635.374 157.949L639.796 128.092L673.553 110.507L675.044 103.677L641.052 94.3873L635.714 56.8101Z" fill="black"/>
</g>
<path d="M635.705 49.1982L609.118 76.3083L571.724 69.7663L589.283 103.418L571.488 136.966L608.935 130.685L635.364 157.952L640.938 120.401L675.035 103.68L641.043 86.7755L635.705 49.1982Z" fill="#0B56A4"/>
<path d="M497.128 9.26465L519.24 52.468L570.242 49.4587L568.515 61.3389L536.119 95.6452L544.885 131.521L540.567 140.078L498.725 118.856L463.686 139.372L459.002 132.804L464.968 94.6769L430.479 60.3707L431.264 51.4998L476.273 53.096L497.128 9.26465Z" fill="#0B56A4"/>
<g opacity="0.3">
<path d="M497.129 9.26465L519.241 52.468L570.242 49.4587L568.515 61.3389L536.119 95.6452L544.886 131.521L540.568 140.078L498.725 118.856L463.686 139.372L459.002 132.804L464.968 94.6769L430.479 60.3707L431.264 51.4998L476.273 53.096L497.129 9.26465Z" fill="black"/>
</g>
<path d="M500.003 0L522.115 43.1772L570.238 49.4575L535.984 83.8422L544.882 131.52L501.626 109.592L458.998 132.803L466.508 84.8628L431.26 51.4986L479.174 43.8052L500.003 0Z" fill="#0B56A4"/>
<path d="M588.109 387.572L625.059 391.654C637.533 373.994 656.162 361.638 677.284 357.014C698.405 352.391 720.493 355.834 739.204 366.668C757.916 377.502 771.9 394.942 778.406 415.561C784.913 436.181 783.472 458.488 774.368 478.1C765.263 497.711 749.153 513.208 729.203 521.545C709.253 529.882 686.906 530.456 666.555 523.155C646.203 515.853 629.318 501.204 619.219 482.086C609.119 462.968 606.535 440.764 611.975 419.837L588.109 387.572Z" fill="#FAFAFA"/>
<path d="M588.113 387.571C589.553 389.507 597.037 399.399 612.319 419.679H611.769C611.788 419.636 611.816 419.598 611.851 419.567C611.886 419.536 611.928 419.514 611.973 419.501C612.019 419.489 612.066 419.486 612.112 419.494C612.158 419.503 612.202 419.521 612.24 419.548C612.302 419.585 612.35 419.64 612.378 419.706C612.406 419.772 612.413 419.845 612.397 419.915C608.652 434.595 608.85 450.004 612.973 464.583C614.183 468.958 615.786 473.214 617.762 477.301C618.808 479.394 619.803 481.54 620.928 483.66L624.827 489.862C637.278 507.911 656.113 520.564 677.529 525.267C689.385 527.873 701.659 527.926 713.537 525.424C726.057 522.699 737.824 517.249 748 509.462C758.658 501.368 767.226 490.844 772.99 478.766C778.959 466.486 781.902 452.955 781.573 439.305C781.192 426.247 777.884 413.441 771.891 401.833C766.256 390.828 758.269 381.198 748.497 373.623C730.895 360.018 708.743 353.687 686.61 355.934C677.258 357.056 668.127 359.579 659.526 363.418C645.84 369.743 634.048 379.54 625.324 391.836C625.297 391.887 625.254 391.927 625.202 391.95C625.15 391.974 625.092 391.98 625.036 391.967L588.113 387.571L625.115 391.313L624.801 391.47C633.498 379.007 645.345 369.075 659.133 362.685C667.777 358.702 676.983 356.072 686.427 354.887C708.863 352.512 731.353 358.865 749.23 372.629C759.17 380.293 767.293 390.06 773.017 401.231C779.135 413.006 782.508 426.014 782.882 439.279C783.226 453.144 780.248 466.89 774.194 479.368C768.327 491.632 759.616 502.317 748.785 510.534C738.443 518.43 726.489 523.951 713.772 526.706C701.684 529.249 689.191 529.169 677.137 526.471C655.492 521.699 636.473 508.873 623.937 490.594L620.012 484.314C618.887 482.168 617.892 479.97 616.82 477.851C614.851 473.71 613.257 469.401 612.057 464.976C607.953 450.241 607.844 434.679 611.743 419.888L612.371 420.124C612.322 420.2 612.247 420.255 612.161 420.279C612.074 420.304 611.981 420.295 611.9 420.255L588.113 387.571Z" fill="#263238"/>
<path d="M663.92 410.627C663.95 411.028 663.95 411.43 663.92 411.831C663.92 412.694 663.92 413.793 663.92 415.18C663.92 418.216 663.92 422.429 664.077 427.767C664.077 438.627 664.26 453.935 664.391 472.253L663.789 471.651H725.362C725.519 471.494 724.08 472.933 724.682 472.305V463.931C724.682 461.184 724.682 458.436 724.682 455.714V439.778C724.682 429.468 724.682 419.707 724.682 410.732L725.258 411.334L680.772 411.02L668.185 410.889H664.836H663.632H664.705H667.95L680.38 410.732L725.205 410.444H725.807V411.02C725.807 419.995 725.807 429.756 725.807 440.066V472.279C726.435 471.677 724.996 473.142 725.127 472.985H663.554H662.952V472.279C662.952 453.804 663.161 438.391 663.24 427.453C663.24 422.219 663.24 417.98 663.397 414.997C663.397 413.663 663.397 412.59 663.397 411.752C663.52 411.355 663.696 410.977 663.92 410.627Z" fill="#263238"/>
<path d="M718.847 420.809C719.736 421.516 711.467 433.448 700.346 447.475C698.148 450.274 695.976 452.944 693.961 455.325L692.653 456.921L691.187 455.587C681.557 446.925 675.041 440.278 675.617 439.598C676.193 438.918 683.755 444.413 693.725 452.682L690.925 452.944C692.836 450.327 694.929 447.71 697.153 444.936C708.249 430.91 717.983 420.129 718.847 420.809Z" fill="#0B56A4"/>
</svg>
