<svg width="1510" height="925" viewBox="0 0 1510 925" fill="none" xmlns="http://www.w3.org/2000/svg">
<g filter="url(#filter0_f_306_671)">
<path d="M1289.52 337.85C1341.25 364.122 1395.7 430.562 1199.76 486.141C954.824 555.614 845.964 535.707 736.699 697.406C649.287 826.765 694.592 700.385 728.17 621.025C747.938 583.512 822.568 499.142 962.947 461.765C1103.33 424.387 1164.42 363.581 1177.42 337.85H1289.52ZM830.388 172.104C877.078 195.812 925.59 246.261 851.536 298.387H856.506C908.227 324.659 925.185 366.723 729.239 422.302C484.828 491.628 476.531 503.905 367.928 664.626L367.232 665.655C279.82 795.014 299.457 707.226 333.035 627.866C352.803 590.353 389.55 459.68 529.929 422.302C587.852 406.879 632.276 387.465 665.393 368.175C413.635 430.953 358.992 384.798 233.947 569.772C126.993 727.987 182.424 573.417 223.51 476.354C247.697 430.473 259.035 369.377 430.799 323.661C602.562 277.946 677.311 203.575 693.215 172.104H830.388ZM894.868 400.464C928.368 417.477 963.638 460.5 836.726 496.49C678.084 541.478 607.577 528.587 536.807 633.296C480.191 717.062 509.534 635.224 531.282 583.835C544.086 559.543 592.424 504.909 683.347 480.705C774.269 456.501 813.837 417.126 822.256 400.464H894.868Z" fill="url(#paint0_linear_306_671)"/>
</g>
<defs>
<filter id="filter0_f_306_671" x="0" y="0.104492" width="1510" height="924.896" filterUnits="userSpaceOnUse" color-interpolation-filters="sRGB">
<feFlood flood-opacity="0" result="BackgroundImageFix"/>
<feBlend mode="normal" in="SourceGraphic" in2="BackgroundImageFix" result="shape"/>
<feGaussianBlur stdDeviation="86" result="effect1_foregroundBlur_306_671"/>
</filter>
<linearGradient id="paint0_linear_306_671" x1="85.5841" y1="859.287" x2="859.704" y2="416.39" gradientUnits="userSpaceOnUse">
<stop stop-color="#529FF9"/>
<stop offset="0.525" stop-color="#74D9EC"/>
<stop offset="1" stop-color="#C0F7FF"/>
</linearGradient>
</defs>
</svg>
