<svg width="2560" height="1448" viewBox="0 0 2560 1448" fill="none" xmlns="http://www.w3.org/2000/svg">
<g filter="url(#filter0_f_306_671)">
<path d="M264.128 487C165.831 536.932 62.3357 663.203 434.733 768.831C900.232 900.867 1107.12 863.032 1314.78 1170.34C1480.91 1416.19 1394.81 1176.01 1330.99 1025.18C1293.42 953.886 1151.59 793.539 884.793 722.502C618 651.465 501.895 535.902 477.192 487H264.128ZM1136.73 172C1047.99 217.056 955.792 312.934 1096.53 412H1087.09C988.788 461.932 956.56 541.873 1328.96 647.502C1793.47 779.257 1809.23 802.59 2015.64 1108.04L2016.96 1110C2183.09 1355.85 2145.77 1189.01 2081.95 1038.18C2044.38 966.886 1974.54 718.539 1707.75 647.502C1597.67 618.192 1513.25 581.301 1450.31 544.641C1928.77 663.947 2032.62 576.23 2270.27 927.774C2473.54 1228.46 2368.19 934.7 2290.1 750.231C2244.14 663.034 2222.59 546.918 1896.15 460.035C1569.71 373.152 1427.65 231.811 1397.42 172H1136.73ZM1014.18 606C950.512 638.333 883.48 720.1 1124.68 788.5C1426.18 874 1560.18 849.5 1694.68 1048.5C1802.28 1207.7 1746.51 1052.17 1705.18 954.5C1680.85 908.333 1588.98 804.5 1416.18 758.5C1243.38 712.5 1168.18 637.667 1152.18 606H1014.18Z" fill="url(#paint0_linear_306_671)"/>
</g>
<defs>
<filter id="filter0_f_306_671" x="0" y="0" width="2560" height="1448" filterUnits="userSpaceOnUse" color-interpolation-filters="sRGB">
<feFlood flood-opacity="0" result="BackgroundImageFix"/>
<feBlend mode="normal" in="SourceGraphic" in2="BackgroundImageFix" result="shape"/>
<feGaussianBlur stdDeviation="86" result="effect1_foregroundBlur_306_671"/>
</filter>
<linearGradient id="paint0_linear_306_671" x1="2552.23" y1="1478" x2="1081.01" y2="636.268" gradientUnits="userSpaceOnUse">
<stop stop-color="#529FF9"/>
<stop offset="0.525" stop-color="#74D9EC"/>
<stop offset="1" stop-color="#C0F7FF"/>
</linearGradient>
</defs>
</svg>
