<svg width="1132" height="704" viewBox="0 0 1132 704" fill="none" xmlns="http://www.w3.org/2000/svg">
<path d="M67.4706 1.03613H1V59.5431M67.4706 1.03613V59.5431M67.4706 1.03613H133.941M67.4706 59.5431H1M67.4706 59.5431H133.941M67.4706 59.5431V118.05M1 59.5431V118.05M133.941 1.03613V59.5431M133.941 1.03613H200.412M133.941 59.5431H200.412M133.941 59.5431V118.05M200.412 1.03613V59.5431M200.412 1.03613H266.882M200.412 59.5431H266.882M200.412 59.5431V118.05M266.882 1.03613V59.5431M266.882 1.03613H333.353M266.882 59.5431H333.353M266.882 59.5431V118.05M333.353 1.03613V59.5431M333.353 1.03613H399.824M333.353 59.5431H399.824M333.353 59.5431V118.05M399.824 1.03613V59.5431M399.824 1.03613H466.294M399.824 59.5431H466.294M399.824 59.5431V118.05M466.294 1.03613V59.5431M466.294 1.03613H532.765M466.294 59.5431H532.765M466.294 59.5431V118.05M532.765 1.03613V59.5431M532.765 1.03613H599.235M532.765 59.5431H599.235M532.765 59.5431V118.05M599.235 1.03613V59.5431M599.235 1.03613H665.706M599.235 59.5431H665.706M599.235 59.5431V118.05M665.706 1.03613V59.5431M665.706 1.03613H732.176M665.706 59.5431H732.176M665.706 59.5431V118.05M732.176 1.03613V59.5431M732.176 1.03613H798.647M732.176 59.5431H798.647M732.176 59.5431V118.05M798.647 1.03613V59.5431M798.647 1.03613H865.118M798.647 59.5431H865.118M798.647 59.5431V118.05M865.118 1.03613V59.5431M865.118 1.03613H931.588M865.118 59.5431H931.588M865.118 59.5431V118.05M931.588 1.03613V59.5431M931.588 1.03613H998.059M931.588 59.5431H998.059M931.588 59.5431V118.05M998.059 1.03613V59.5431M998.059 1.03613H1064.53M998.059 59.5431H1064.53M998.059 59.5431V118.05M1064.53 1.03613V59.5431M1064.53 1.03613H1131V59.5431M1064.53 59.5431H1131M1064.53 59.5431V118.05M1131 59.5431V118.05M67.4706 118.05H1M67.4706 118.05H133.941M67.4706 118.05V176.557M1 118.05V176.557M133.941 118.05H200.412M133.941 118.05V176.557M200.412 118.05H266.882M200.412 118.05V176.557M266.882 118.05H333.353M266.882 118.05V176.557M333.353 118.05H399.824M333.353 118.05V176.557M399.824 118.05H466.294M399.824 118.05V176.557M466.294 118.05H532.765M466.294 118.05V176.557M532.765 118.05H599.235M532.765 118.05V176.557M599.235 118.05H665.706M599.235 118.05V176.557M665.706 118.05H732.176M665.706 118.05V176.557M732.176 118.05H798.647M732.176 118.05V176.557M798.647 118.05H865.118M798.647 118.05V176.557M865.118 118.05H931.588M865.118 118.05V176.557M931.588 118.05H998.059M931.588 118.05V176.557M998.059 118.05H1064.53M998.059 118.05V176.557M1064.53 118.05H1131M1064.53 118.05V176.557M1131 118.05V176.557M67.4706 176.557H1M67.4706 176.557H133.941M67.4706 176.557V235.064M1 176.557V235.064M133.941 176.557H200.412M133.941 176.557V235.064M200.412 176.557H266.882M200.412 176.557V235.064M266.882 176.557H333.353M266.882 176.557V235.064M333.353 176.557H399.824M333.353 176.557V235.064M399.824 176.557H466.294M399.824 176.557V235.064M466.294 176.557H532.765M466.294 176.557V235.064M532.765 176.557H599.235M532.765 176.557V235.064M599.235 176.557H665.706M599.235 176.557V235.064M665.706 176.557H732.176M665.706 176.557V235.064M732.176 176.557H798.647M732.176 176.557V235.064M798.647 176.557H865.118M798.647 176.557V235.064M865.118 176.557H931.588M865.118 176.557V235.064M931.588 176.557H998.059M931.588 176.557V235.064M998.059 176.557H1064.53M998.059 176.557V235.064M1064.53 176.557H1131M1064.53 176.557V235.064M1131 176.557V235.064M67.4706 235.064H1M67.4706 235.064H133.941M67.4706 235.064V293.571M1 235.064V293.571M133.941 235.064H200.412M133.941 235.064V293.571M200.412 235.064H266.882M200.412 235.064V293.571M266.882 235.064H333.353M266.882 235.064V293.571M333.353 235.064H399.824M333.353 235.064V293.571M399.824 235.064H466.294M399.824 235.064V293.571M466.294 235.064H532.765M466.294 235.064V293.571M532.765 235.064H599.235M532.765 235.064V293.571M599.235 235.064H665.706M599.235 235.064V293.571M665.706 235.064H732.176M665.706 235.064V293.571M732.176 235.064H798.647M732.176 235.064V293.571M798.647 235.064H865.118M798.647 235.064V293.571M865.118 235.064H931.588M865.118 235.064V293.571M931.588 235.064H998.059M931.588 235.064V293.571M998.059 235.064H1064.53M998.059 235.064V293.571M1064.53 235.064H1131M1064.53 235.064V293.571M1131 235.064V293.571M67.4706 293.571H1M67.4706 293.571H133.941M67.4706 293.571V352.078M1 293.571V352.078M133.941 293.571H200.412M133.941 293.571V352.078M200.412 293.571H266.882M200.412 293.571V352.078M266.882 293.571H333.353M266.882 293.571V352.078M333.353 293.571H399.824M333.353 293.571V352.078M399.824 293.571H466.294M399.824 293.571V352.078M466.294 293.571H532.765M466.294 293.571V352.078M532.765 293.571H599.235M532.765 293.571V352.078M599.235 293.571H665.706M599.235 293.571V352.078M665.706 293.571H732.176M665.706 293.571V352.078M732.176 293.571H798.647M732.176 293.571V352.078M798.647 293.571H865.118M798.647 293.571V352.078M865.118 293.571H931.588M865.118 293.571V352.078M931.588 293.571H998.059M931.588 293.571V352.078M998.059 293.571H1064.53M998.059 293.571V352.078M1064.53 293.571H1131M1064.53 293.571V352.078M1131 293.571V352.078M67.4706 352.078H1M67.4706 352.078H133.941M67.4706 352.078V410.585M1 352.078V410.585M133.941 352.078H200.412M133.941 352.078V410.585M200.412 352.078H266.882M200.412 352.078V410.585M266.882 352.078H333.353M266.882 352.078V410.585M333.353 352.078H399.824M333.353 352.078V410.585M399.824 352.078H466.294M399.824 352.078V410.585M466.294 352.078H532.765M466.294 352.078V410.585M532.765 352.078H599.235M532.765 352.078V410.585M599.235 352.078H665.706M599.235 352.078V410.585M665.706 352.078H732.176M665.706 352.078V410.585M732.176 352.078H798.647M732.176 352.078V410.585M798.647 352.078H865.118M798.647 352.078V410.585M865.118 352.078H931.588M865.118 352.078V410.585M931.588 352.078H998.059M931.588 352.078V410.585M998.059 352.078H1064.53M998.059 352.078V410.585M1064.53 352.078H1131M1064.53 352.078V410.585M1131 352.078V410.585M67.4706 410.585H1M67.4706 410.585H133.941M67.4706 410.585V469.092M1 410.585V469.092M133.941 410.585H200.412M133.941 410.585V469.092M200.412 410.585H266.882M200.412 410.585V469.092M266.882 410.585H333.353M266.882 410.585V469.092M333.353 410.585H399.824M333.353 410.585V469.092M399.824 410.585H466.294M399.824 410.585V469.092M466.294 410.585H532.765M466.294 410.585V469.092M532.765 410.585H599.235M532.765 410.585V469.092M599.235 410.585H665.706M599.235 410.585V469.092M665.706 410.585H732.176M665.706 410.585V469.092M732.176 410.585H798.647M732.176 410.585V469.092M798.647 410.585H865.118M798.647 410.585V469.092M865.118 410.585H931.588M865.118 410.585V469.092M931.588 410.585H998.059M931.588 410.585V469.092M998.059 410.585H1064.53M998.059 410.585V469.092M1064.53 410.585H1131M1064.53 410.585V469.092M1131 410.585V469.092M67.4706 469.092H1M67.4706 469.092H133.941M67.4706 469.092V527.599M1 469.092V527.599M133.941 469.092H200.412M133.941 469.092V527.599M200.412 469.092H266.882M200.412 469.092V527.599M266.882 469.092H333.353M266.882 469.092V527.599M333.353 469.092H399.824M333.353 469.092V527.599M399.824 469.092H466.294M399.824 469.092V527.599M466.294 469.092H532.765M466.294 469.092V527.599M532.765 469.092H599.235M532.765 469.092V527.599M599.235 469.092H665.706M599.235 469.092V527.599M665.706 469.092H732.176M665.706 469.092V527.599M732.176 469.092H798.647M732.176 469.092V527.599M798.647 469.092H865.118M798.647 469.092V527.599M865.118 469.092H931.588M865.118 469.092V527.599M931.588 469.092H998.059M931.588 469.092V527.599M998.059 469.092H1064.53M998.059 469.092V527.599M1064.53 469.092H1131M1064.53 469.092V527.599M1131 469.092V527.599M67.4706 527.599H1M67.4706 527.599H133.941M67.4706 527.599V586.106M1 527.599V586.106M133.941 527.599H200.412M133.941 527.599V586.106M200.412 527.599H266.882M200.412 527.599V586.106M266.882 527.599H333.353M266.882 527.599V586.106M333.353 527.599H399.824M333.353 527.599V586.106M399.824 527.599H466.294M399.824 527.599V586.106M466.294 527.599H532.765M466.294 527.599V586.106M532.765 527.599H599.235M532.765 527.599V586.106M599.235 527.599H665.706M599.235 527.599V586.106M665.706 527.599H732.176M665.706 527.599V586.106M732.176 527.599H798.647M732.176 527.599V586.106M798.647 527.599H865.118M798.647 527.599V586.106M865.118 527.599H931.588M865.118 527.599V586.106M931.588 527.599H998.059M931.588 527.599V586.106M998.059 527.599H1064.53M998.059 527.599V586.106M1064.53 527.599H1131M1064.53 527.599V586.106M1131 527.599V586.106M67.4706 586.106H1M67.4706 586.106H133.941M67.4706 586.106V644.613M1 586.106V644.613M133.941 586.106H200.412M133.941 586.106V644.613M200.412 586.106H266.882M200.412 586.106V644.613M266.882 586.106H333.353M266.882 586.106V644.613M333.353 586.106H399.824M333.353 586.106V644.613M399.824 586.106H466.294M399.824 586.106V644.613M466.294 586.106H532.765M466.294 586.106V644.613M532.765 586.106H599.235M532.765 586.106V644.613M599.235 586.106H665.706M599.235 586.106V644.613M665.706 586.106H732.176M665.706 586.106V644.613M732.176 586.106H798.647M732.176 586.106V644.613M798.647 586.106H865.118M798.647 586.106V644.613M865.118 586.106H931.588M865.118 586.106V644.613M931.588 586.106H998.059M931.588 586.106V644.613M998.059 586.106H1064.53M998.059 586.106V644.613M1064.53 586.106H1131M1064.53 586.106V644.613M1131 586.106V644.613M67.4706 644.613H1M67.4706 644.613H133.941M67.4706 644.613V703.12M1 644.613V703.12H67.4706M133.941 644.613H200.412M133.941 644.613V703.12M200.412 644.613H266.882M200.412 644.613V703.12M266.882 644.613H333.353M266.882 644.613V703.12M333.353 644.613H399.824M333.353 644.613V703.12M399.824 644.613H466.294M399.824 644.613V703.12M466.294 644.613H532.765M466.294 644.613V703.12M532.765 644.613H599.235M532.765 644.613V703.12M599.235 644.613H665.706M599.235 644.613V703.12M665.706 644.613H732.176M665.706 644.613V703.12M732.176 644.613H798.647M732.176 644.613V703.12M798.647 644.613H865.118M798.647 644.613V703.12M865.118 644.613H931.588M865.118 644.613V703.12M931.588 644.613H998.059M931.588 644.613V703.12M998.059 644.613H1064.53M998.059 644.613V703.12M1064.53 644.613H1131M1064.53 644.613V703.12M1131 644.613V703.12H1064.53M67.4706 703.12H133.941M133.941 703.12H200.412M200.412 703.12H266.882M266.882 703.12H333.353M333.353 703.12H399.824M399.824 703.12H466.294M466.294 703.12H532.765M532.765 703.12H599.235M599.235 703.12H665.706M665.706 703.12H732.176M732.176 703.12H798.647M798.647 703.12H865.118M865.118 703.12H931.588M931.588 703.12H998.059M998.059 703.12H1064.53" stroke="url(#paint0_radial_306_955)" stroke-opacity="0.7" stroke-width="1.49321"/>
<defs>
<radialGradient id="paint0_radial_306_955" cx="0" cy="0" r="1" gradientTransform="matrix(669.439 759.647 -1296.52 1028.4 126.556 -30.3058)" gradientUnits="userSpaceOnUse">
<stop offset="0.123834" stop-color="#525252" stop-opacity="0"/>
<stop offset="0.515437" stop-color="#C3C3C3" stop-opacity="0.7"/>
<stop offset="1" stop-color="#898989" stop-opacity="0"/>
</radialGradient>
</defs>
</svg>
